<?xml version="1.0" encoding="utf-8"?>
<!-- Generator: Adobe Illustrator 18.0.0, SVG Export Plug-In . SVG Version: 6.00 Build 0)  -->
<!DOCTYPE svg PUBLIC "-//W3C//DTD SVG 1.1//EN" "http://www.w3.org/Graphics/SVG/1.1/DTD/svg11.dtd">
<svg version="1.1" id="Lager_1" xmlns="http://www.w3.org/2000/svg" xmlns:xlink="http://www.w3.org/1999/xlink" x="0px" y="0px"
	 viewBox="0 772.4 1215.8 712.7" enable-background="new 0 772.4 1215.8 712.7" xml:space="preserve">
<polygon fill="#FFED00" points="1215.8,772.9 859.5,772.9 964.3,877.2 712.2,1128.7 712.2,1485.1 1215.8,1485.1 "/>
<polygon fill="#F39200" points="712.2,416.6 607.9,520.8 356.4,269.3 0,269.3 0,772.9 712.2,772.9 "/>
<polygon fill="#EA5B0C" points="859.5,269.3 712.2,269.3 712.2,-86.6 460.3,-338.9 104.8,17.4 607.9,520.8 "/>
<polygon fill="#E30613" points="964.3,165 1215.8,-86.6 1215.8,-442.9 712.2,-442.9 712.2,269.3 1068.5,269.3 "/>
<polygon fill="#E6007E" points="1215.8,269.3 1571.6,269.3 1824,17.4 1467.7,-338.9 964.3,165 1215.8,416.6 "/>
<rect x="1215.8" y="269.3" fill="#C21D7E" width="712.2" height="503.1"/>
<polygon fill="#FDC300" points="964.3,877.2 712.2,625.6 712.2,772.9 356.4,772.9 104.8,1024.7 460.3,1380.3 "/>
</svg>
