<?xml version="1.0" encoding="utf-8"?>
<!-- Generator: Adobe Illustrator 19.0.0, SVG Export Plug-In . SVG Version: 6.00 Build 0)  -->
<!DOCTYPE svg PUBLIC "-//W3C//DTD SVG 1.1//EN" "http://www.w3.org/Graphics/SVG/1.1/DTD/svg11.dtd">
<svg version="1.1" id="Layer_1" xmlns="http://www.w3.org/2000/svg" xmlns:xlink="http://www.w3.org/1999/xlink" x="0px" y="0px"
	 viewBox="0 0 121 141" style="enable-background:new 0 0 121 141;" xml:space="preserve">
<style type="text/css">
	.st0{fill:#FFFFFF;}
	.st1{fill:#38FFA1;}
	.st2{fill:none;stroke:#38FFA1;stroke-width:0.75;stroke-miterlimit:10;}
	.st3{fill:none;stroke:#38FFA1;stroke-width:0.6948;stroke-miterlimit:10;}
</style>
<g id="XMLID_163_">
	<polygon id="XMLID_3351_" class="st0" points="100.5,100.5 70.5,100.5 70.5,40.5 100.5,40.5 100.5,20.5 20.5,20.5 20.5,40.5 
		50.5,40.5 50.5,100.5 20.5,100.5 20.5,120.5 100.5,120.5 	"/>
</g>
<text transform="matrix(1 0 0 1 297.6401 420.9452)" style="font-family:'MyriadPro-Regular'; font-size:12px;">Årstagårdens BP</text>
<g id="XMLID_179_">
	<g id="XMLID_148_">
		<g id="XMLID_207_">
			
				<rect id="XMLID_1432_" x="0.2" y="0.2" transform="matrix(0.7071 0.7071 -0.7071 0.7071 0.707 -0.2929)" class="st1" width="1" height="1"/>
		</g>
		<g id="XMLID_206_">
			<path id="XMLID_1423_" class="st1" d="M18.5,19.3l-1.5-1.5l0.7-0.7l1.5,1.5L18.5,19.3z M16.3,17l-1.5-1.5l0.7-0.7l1.5,1.5
				L16.3,17z M14.1,14.8l-1.5-1.5l0.7-0.7l1.5,1.5L14.1,14.8z M11.9,12.6l-1.5-1.5l0.7-0.7l1.5,1.5L11.9,12.6z M9.6,10.3L8.1,8.8
				l0.7-0.7l1.5,1.5L9.6,10.3z M7.4,8.1L5.9,6.6l0.7-0.7l1.5,1.5L7.4,8.1z M5.2,5.9L3.7,4.4l0.7-0.7l1.5,1.5L5.2,5.9z M2.9,3.6
				L1.5,2.2l0.7-0.7l1.5,1.5L2.9,3.6z"/>
		</g>
		<g id="XMLID_205_">
			
				<rect id="XMLID_1422_" x="19.5" y="19.5" transform="matrix(0.7071 0.7071 -0.7071 0.7071 20.0001 -8.2843)" class="st1" width="1" height="1"/>
		</g>
	</g>
	<g id="XMLID_147_">
		<g id="XMLID_204_">
			
				<rect id="XMLID_1421_" x="19.5" y="0.2" transform="matrix(0.7071 0.7071 -0.7071 0.7071 6.3579 -13.9351)" class="st1" width="1" height="1"/>
		</g>
		<g id="XMLID_203_">
			<path id="XMLID_1412_" class="st1" d="M2.2,19.3l-0.7-0.7l1.5-1.5l0.7,0.7L2.2,19.3z M4.4,17l-0.7-0.7l1.5-1.5l0.7,0.7L4.4,17z
				 M6.6,14.8l-0.7-0.7l1.5-1.5l0.7,0.7L6.6,14.8z M8.8,12.6l-0.7-0.7l1.5-1.5l0.7,0.7L8.8,12.6z M11.1,10.3l-0.7-0.7l1.5-1.5
				l0.7,0.7L11.1,10.3z M13.3,8.1l-0.7-0.7l1.5-1.5l0.7,0.7L13.3,8.1z M15.5,5.9l-0.7-0.7l1.5-1.5L17,4.4L15.5,5.9z M17.8,3.6
				l-0.7-0.7l1.5-1.5l0.7,0.7L17.8,3.6z"/>
		</g>
		<g id="XMLID_202_">
			
				<rect id="XMLID_1411_" x="0.2" y="19.5" transform="matrix(0.7071 0.7071 -0.7071 0.7071 14.3493 5.358)" class="st1" width="1" height="1"/>
		</g>
	</g>
	<g id="XMLID_146_">
		<g id="XMLID_201_">
			
				<rect id="XMLID_1410_" x="20.2" y="0.2" transform="matrix(0.7071 0.7071 -0.7071 0.7071 6.5649 -14.4351)" class="st1" width="1" height="1"/>
		</g>
		<g id="XMLID_200_">
			<path id="XMLID_1401_" class="st1" d="M38.5,19.3l-1.5-1.5l0.7-0.7l1.5,1.5L38.5,19.3z M36.3,17l-1.5-1.5l0.7-0.7l1.5,1.5
				L36.3,17z M34.1,14.8l-1.5-1.5l0.7-0.7l1.5,1.5L34.1,14.8z M31.9,12.6l-1.5-1.5l0.7-0.7l1.5,1.5L31.9,12.6z M29.6,10.3l-1.5-1.5
				l0.7-0.7l1.5,1.5L29.6,10.3z M27.4,8.1l-1.5-1.5l0.7-0.7l1.5,1.5L27.4,8.1z M25.2,5.9l-1.5-1.5l0.7-0.7l1.5,1.5L25.2,5.9z
				 M22.9,3.6l-1.5-1.5l0.7-0.7l1.5,1.5L22.9,3.6z"/>
		</g>
		<g id="XMLID_199_">
			
				<rect id="XMLID_1400_" x="39.5" y="19.5" transform="matrix(0.7071 0.7071 -0.7071 0.7071 25.858 -22.4266)" class="st1" width="1" height="1"/>
		</g>
	</g>
	<g id="XMLID_145_">
		<g id="XMLID_198_">
			
				<rect id="XMLID_1399_" x="39.5" y="0.2" transform="matrix(0.7071 0.7071 -0.7071 0.7071 12.2158 -28.0774)" class="st1" width="1" height="1"/>
		</g>
		<g id="XMLID_197_">
			<path id="XMLID_1390_" class="st1" d="M22.2,19.3l-0.7-0.7l1.5-1.5l0.7,0.7L22.2,19.3z M24.4,17l-0.7-0.7l1.5-1.5l0.7,0.7
				L24.4,17z M26.6,14.8l-0.7-0.7l1.5-1.5l0.7,0.7L26.6,14.8z M28.8,12.6l-0.7-0.7l1.5-1.5l0.7,0.7L28.8,12.6z M31.1,10.3l-0.7-0.7
				l1.5-1.5l0.7,0.7L31.1,10.3z M33.3,8.1l-0.7-0.7l1.5-1.5l0.7,0.7L33.3,8.1z M35.5,5.9l-0.7-0.7l1.5-1.5L37,4.4L35.5,5.9z
				 M37.8,3.6l-0.7-0.7l1.5-1.5l0.7,0.7L37.8,3.6z"/>
		</g>
		<g id="XMLID_196_">
			
				<rect id="XMLID_1389_" x="20.2" y="19.5" transform="matrix(0.7071 0.7071 -0.7071 0.7071 20.2072 -8.7843)" class="st1" width="1" height="1"/>
		</g>
	</g>
	<g id="XMLID_134_">
		<g id="XMLID_114_">
			
				<rect id="XMLID_1252_" x="0.2" y="20.2" transform="matrix(0.7071 0.7071 -0.7071 0.7071 14.8493 5.565)" class="st1" width="1" height="1"/>
		</g>
		<g id="XMLID_113_">
			<path id="XMLID_1243_" class="st1" d="M18.5,39.3l-1.5-1.5l0.7-0.7l1.5,1.5L18.5,39.3z M16.3,37l-1.5-1.5l0.7-0.7l1.5,1.5
				L16.3,37z M14.1,34.8l-1.5-1.5l0.7-0.7l1.5,1.5L14.1,34.8z M11.9,32.6l-1.5-1.5l0.7-0.7l1.5,1.5L11.9,32.6z M9.6,30.3l-1.5-1.5
				l0.7-0.7l1.5,1.5L9.6,30.3z M7.4,28.1l-1.5-1.5l0.7-0.7l1.5,1.5L7.4,28.1z M5.2,25.9l-1.5-1.5l0.7-0.7l1.5,1.5L5.2,25.9z
				 M2.9,23.6l-1.5-1.5l0.7-0.7l1.5,1.5L2.9,23.6z"/>
		</g>
		<g id="XMLID_112_">
			
				<rect id="XMLID_1242_" x="19.5" y="39.5" transform="matrix(0.7071 0.7071 -0.7071 0.7071 34.1424 -2.4264)" class="st1" width="1" height="1"/>
		</g>
	</g>
	<g id="XMLID_133_">
		<g id="XMLID_111_">
			
				<rect id="XMLID_1241_" x="19.5" y="20.2" transform="matrix(0.7071 0.7071 -0.7071 0.7071 20.5001 -8.0772)" class="st1" width="1" height="1"/>
		</g>
		<g id="XMLID_110_">
			<path id="XMLID_1232_" class="st1" d="M2.2,39.3l-0.7-0.7l1.5-1.5l0.7,0.7L2.2,39.3z M4.4,37l-0.7-0.7l1.5-1.5l0.7,0.7L4.4,37z
				 M6.6,34.8l-0.7-0.7l1.5-1.5l0.7,0.7L6.6,34.8z M8.8,32.6l-0.7-0.7l1.5-1.5l0.7,0.7L8.8,32.6z M11.1,30.3l-0.7-0.7l1.5-1.5
				l0.7,0.7L11.1,30.3z M13.3,28.1l-0.7-0.7l1.5-1.5l0.7,0.7L13.3,28.1z M15.5,25.9l-0.7-0.7l1.5-1.5l0.7,0.7L15.5,25.9z M17.8,23.6
				l-0.7-0.7l1.5-1.5l0.7,0.7L17.8,23.6z"/>
		</g>
		<g id="XMLID_109_">
			
				<rect id="XMLID_1231_" x="0.2" y="39.5" transform="matrix(0.7071 0.7071 -0.7071 0.7071 28.4915 11.2159)" class="st1" width="1" height="1"/>
		</g>
	</g>
	<g id="XMLID_178_">
		<g id="XMLID_162_">
			<g id="XMLID_176_">
				
					<rect id="XMLID_177_" x="119.8" y="139.8" transform="matrix(-0.7071 -0.7071 0.7071 -0.7071 106.1515 324.5572)" class="st1" width="1" height="1"/>
			</g>
			<g id="XMLID_166_">
				<path id="XMLID_167_" class="st1" d="M102.5,121.7l1.5,1.5l-0.7,0.7l-1.5-1.5L102.5,121.7z M104.7,124l1.5,1.5l-0.7,0.7
					l-1.5-1.5L104.7,124z M106.9,126.2l1.5,1.5l-0.7,0.7l-1.5-1.5L106.9,126.2z M109.1,128.4l1.5,1.5l-0.7,0.7l-1.5-1.5L109.1,128.4
					z M111.4,130.7l1.5,1.5l-0.7,0.7l-1.5-1.5L111.4,130.7z M113.6,132.9l1.5,1.5l-0.7,0.7l-1.5-1.5L113.6,132.9z M115.8,135.1
					l1.5,1.5l-0.7,0.7l-1.5-1.5L115.8,135.1z M118.1,137.4l1.5,1.5l-0.7,0.7l-1.5-1.5L118.1,137.4z"/>
			</g>
			<g id="XMLID_164_">
				
					<rect id="XMLID_165_" x="100.5" y="120.5" transform="matrix(-0.7071 -0.7071 0.7071 -0.7071 86.8584 277.9796)" class="st1" width="1" height="1"/>
			</g>
		</g>
		<g id="XMLID_143_">
			<g id="XMLID_160_">
				
					<rect id="XMLID_161_" x="100.5" y="139.8" transform="matrix(-0.7071 -0.7071 0.7071 -0.7071 73.2162 310.9149)" class="st1" width="1" height="1"/>
			</g>
			<g id="XMLID_150_">
				<path id="XMLID_151_" class="st1" d="M118.8,121.7l0.7,0.7l-1.5,1.5l-0.7-0.7L118.8,121.7z M116.6,124l0.7,0.7l-1.5,1.5
					l-0.7-0.7L116.6,124z M114.4,126.2l0.7,0.7l-1.5,1.5l-0.7-0.7L114.4,126.2z M112.2,128.4l0.7,0.7l-1.5,1.5l-0.7-0.7L112.2,128.4
					z M109.9,130.7l0.7,0.7l-1.5,1.5l-0.7-0.7L109.9,130.7z M107.7,132.9l0.7,0.7l-1.5,1.5l-0.7-0.7L107.7,132.9z M105.5,135.1
					l0.7,0.7l-1.5,1.5l-0.7-0.7L105.5,135.1z M103.2,137.4l0.7,0.7l-1.5,1.5l-0.7-0.7L103.2,137.4z"/>
			</g>
			<g id="XMLID_144_">
				
					<rect id="XMLID_149_" x="119.8" y="120.5" transform="matrix(-0.7071 -0.7071 0.7071 -0.7071 119.7938 291.6219)" class="st1" width="1" height="1"/>
			</g>
		</g>
		<g id="XMLID_126_">
			<g id="XMLID_141_">
				
					<rect id="XMLID_142_" x="99.8" y="139.8" transform="matrix(-0.7071 -0.7071 0.7071 -0.7071 72.0092 310.415)" class="st1" width="1" height="1"/>
			</g>
			<g id="XMLID_129_">
				<path id="XMLID_130_" class="st1" d="M82.5,121.7l1.5,1.5l-0.7,0.7l-1.5-1.5L82.5,121.7z M84.7,124l1.5,1.5l-0.7,0.7l-1.5-1.5
					L84.7,124z M86.9,126.2l1.5,1.5l-0.7,0.7l-1.5-1.5L86.9,126.2z M89.1,128.4l1.5,1.5l-0.7,0.7l-1.5-1.5L89.1,128.4z M91.4,130.7
					l1.5,1.5l-0.7,0.7l-1.5-1.5L91.4,130.7z M93.6,132.9l1.5,1.5l-0.7,0.7l-1.5-1.5L93.6,132.9z M95.8,135.1l1.5,1.5l-0.7,0.7
					l-1.5-1.5L95.8,135.1z M98.1,137.4l1.5,1.5l-0.7,0.7l-1.5-1.5L98.1,137.4z"/>
			</g>
			<g id="XMLID_127_">
				
					<rect id="XMLID_128_" x="80.5" y="120.5" transform="matrix(-0.7071 -0.7071 0.7071 -0.7071 52.7161 263.8373)" class="st1" width="1" height="1"/>
			</g>
		</g>
		<g id="XMLID_105_">
			<g id="XMLID_124_">
				
					<rect id="XMLID_125_" x="80.5" y="139.8" transform="matrix(-0.7071 -0.7071 0.7071 -0.7071 39.0738 296.7727)" class="st1" width="1" height="1"/>
			</g>
			<g id="XMLID_108_">
				<path id="XMLID_115_" class="st1" d="M98.8,121.7l0.7,0.7l-1.5,1.5l-0.7-0.7L98.8,121.7z M96.6,124l0.7,0.7l-1.5,1.5l-0.7-0.7
					L96.6,124z M94.4,126.2l0.7,0.7l-1.5,1.5l-0.7-0.7L94.4,126.2z M92.2,128.4l0.7,0.7l-1.5,1.5l-0.7-0.7L92.2,128.4z M89.9,130.7
					l0.7,0.7l-1.5,1.5l-0.7-0.7L89.9,130.7z M87.7,132.9l0.7,0.7l-1.5,1.5l-0.7-0.7L87.7,132.9z M85.5,135.1l0.7,0.7l-1.5,1.5
					l-0.7-0.7L85.5,135.1z M83.2,137.4l0.7,0.7l-1.5,1.5l-0.7-0.7L83.2,137.4z"/>
			</g>
			<g id="XMLID_106_">
				
					<rect id="XMLID_107_" x="99.8" y="120.5" transform="matrix(-0.7071 -0.7071 0.7071 -0.7071 85.6515 277.4796)" class="st1" width="1" height="1"/>
			</g>
		</g>
		<g id="XMLID_90_">
			<g id="XMLID_103_">
				
					<rect id="XMLID_104_" x="119.8" y="119.8" transform="matrix(-0.7071 -0.7071 0.7071 -0.7071 120.2938 290.4149)" class="st1" width="1" height="1"/>
			</g>
			<g id="XMLID_93_">
				<path id="XMLID_94_" class="st1" d="M102.5,101.7l1.5,1.5l-0.7,0.7l-1.5-1.5L102.5,101.7z M104.7,104l1.5,1.5l-0.7,0.7l-1.5-1.5
					L104.7,104z M106.9,106.2l1.5,1.5l-0.7,0.7l-1.5-1.5L106.9,106.2z M109.1,108.4l1.5,1.5l-0.7,0.7l-1.5-1.5L109.1,108.4z
					 M111.4,110.7l1.5,1.5l-0.7,0.7l-1.5-1.5L111.4,110.7z M113.6,112.9l1.5,1.5l-0.7,0.7l-1.5-1.5L113.6,112.9z M115.8,115.1
					l1.5,1.5l-0.7,0.7l-1.5-1.5L115.8,115.1z M118.1,117.4l1.5,1.5l-0.7,0.7l-1.5-1.5L118.1,117.4z"/>
			</g>
			<g id="XMLID_91_">
				
					<rect id="XMLID_92_" x="100.5" y="100.5" transform="matrix(-0.7071 -0.7071 0.7071 -0.7071 101.0007 243.8372)" class="st1" width="1" height="1"/>
			</g>
		</g>
		<g id="XMLID_23_">
			<g id="XMLID_88_">
				
					<rect id="XMLID_89_" x="100.5" y="119.8" transform="matrix(-0.7071 -0.7071 0.7071 -0.7071 87.3584 276.7726)" class="st1" width="1" height="1"/>
			</g>
			<g id="XMLID_78_">
				<path id="XMLID_79_" class="st1" d="M118.8,101.7l0.7,0.7l-1.5,1.5l-0.7-0.7L118.8,101.7z M116.6,104l0.7,0.7l-1.5,1.5l-0.7-0.7
					L116.6,104z M114.4,106.2l0.7,0.7l-1.5,1.5l-0.7-0.7L114.4,106.2z M112.2,108.4l0.7,0.7l-1.5,1.5l-0.7-0.7L112.2,108.4z
					 M109.9,110.7l0.7,0.7l-1.5,1.5l-0.7-0.7L109.9,110.7z M107.7,112.9l0.7,0.7l-1.5,1.5l-0.7-0.7L107.7,112.9z M105.5,115.1
					l0.7,0.7l-1.5,1.5l-0.7-0.7L105.5,115.1z M103.2,117.4l0.7,0.7l-1.5,1.5l-0.7-0.7L103.2,117.4z"/>
			</g>
			<g id="XMLID_76_">
				
					<rect id="XMLID_77_" x="119.8" y="100.5" transform="matrix(-0.7071 -0.7071 0.7071 -0.7071 133.9361 257.4795)" class="st1" width="1" height="1"/>
			</g>
		</g>
	</g>
</g>
<g id="XMLID_180_">
	<g id="XMLID_376_">
		<g id="XMLID_389_">
			
				<rect id="XMLID_390_" x="0.2" y="139.8" transform="matrix(0.7071 -0.7071 0.7071 0.7071 -98.9957 41.5911)" class="st1" width="1" height="1"/>
		</g>
		<g id="XMLID_379_">
			<path id="XMLID_380_" class="st1" d="M19.3,122.5l-1.5,1.5l-0.7-0.7l1.5-1.5L19.3,122.5z M17,124.7l-1.5,1.5l-0.7-0.7l1.5-1.5
				L17,124.7z M14.8,126.9l-1.5,1.5l-0.7-0.7l1.5-1.5L14.8,126.9z M12.6,129.1l-1.5,1.5l-0.7-0.7l1.5-1.5L12.6,129.1z M10.3,131.4
				l-1.5,1.5l-0.7-0.7l1.5-1.5L10.3,131.4z M8.1,133.6l-1.5,1.5l-0.7-0.7l1.5-1.5L8.1,133.6z M5.9,135.8l-1.5,1.5l-0.7-0.7l1.5-1.5
				L5.9,135.8z M3.6,138.1l-1.5,1.5l-0.7-0.7l1.5-1.5L3.6,138.1z"/>
		</g>
		<g id="XMLID_377_">
			
				<rect id="XMLID_378_" x="19.5" y="120.5" transform="matrix(0.7071 -0.7071 0.7071 0.7071 -79.7026 49.5825)" class="st1" width="1" height="1"/>
		</g>
	</g>
	<g id="XMLID_361_">
		<g id="XMLID_374_">
			
				<rect id="XMLID_375_" x="19.5" y="139.8" transform="matrix(0.7071 -0.7071 0.7071 0.7071 -93.3449 55.2334)" class="st1" width="1" height="1"/>
		</g>
		<g id="XMLID_364_">
			<path id="XMLID_365_" class="st1" d="M3.6,123.2l-0.7,0.7l-1.5-1.5l0.7-0.7L3.6,123.2z M5.9,125.5l-0.7,0.7l-1.5-1.5l0.7-0.7
				L5.9,125.5z M8.1,127.7l-0.7,0.7l-1.5-1.5l0.7-0.7L8.1,127.7z M10.3,129.9l-0.7,0.7l-1.5-1.5l0.7-0.7L10.3,129.9z M12.6,132.2
				l-0.7,0.7l-1.5-1.5l0.7-0.7L12.6,132.2z M14.8,134.4l-0.7,0.7l-1.5-1.5l0.7-0.7L14.8,134.4z M17,136.6l-0.7,0.7l-1.5-1.5l0.7-0.7
				L17,136.6z M19.3,138.8l-0.7,0.7l-1.5-1.5l0.7-0.7L19.3,138.8z"/>
		</g>
		<g id="XMLID_362_">
			
				<rect id="XMLID_363_" x="0.2" y="120.5" transform="matrix(0.7071 -0.7071 0.7071 0.7071 -85.3534 35.9403)" class="st1" width="1" height="1"/>
		</g>
	</g>
	<g id="XMLID_346_">
		<g id="XMLID_359_">
			
				<rect id="XMLID_360_" x="20.2" y="139.8" transform="matrix(0.7071 -0.7071 0.7071 0.7071 -93.1378 55.7333)" class="st1" width="1" height="1"/>
		</g>
		<g id="XMLID_349_">
			<path id="XMLID_350_" class="st1" d="M39.3,122.5l-1.5,1.5l-0.7-0.7l1.5-1.5L39.3,122.5z M37,124.7l-1.5,1.5l-0.7-0.7l1.5-1.5
				L37,124.7z M34.8,126.9l-1.5,1.5l-0.7-0.7l1.5-1.5L34.8,126.9z M32.6,129.1l-1.5,1.5l-0.7-0.7l1.5-1.5L32.6,129.1z M30.3,131.4
				l-1.5,1.5l-0.7-0.7l1.5-1.5L30.3,131.4z M28.1,133.6l-1.5,1.5l-0.7-0.7l1.5-1.5L28.1,133.6z M25.9,135.8l-1.5,1.5l-0.7-0.7
				l1.5-1.5L25.9,135.8z M23.6,138.1l-1.5,1.5l-0.7-0.7l1.5-1.5L23.6,138.1z"/>
		</g>
		<g id="XMLID_347_">
			
				<rect id="XMLID_348_" x="39.5" y="120.5" transform="matrix(0.7071 -0.7071 0.7071 0.7071 -73.8447 63.7248)" class="st1" width="1" height="1"/>
		</g>
	</g>
	<g id="XMLID_331_">
		<g id="XMLID_344_">
			
				<rect id="XMLID_345_" x="39.5" y="139.8" transform="matrix(0.7071 -0.7071 0.7071 0.7071 -87.487 69.3756)" class="st1" width="1" height="1"/>
		</g>
		<g id="XMLID_334_">
			<path id="XMLID_335_" class="st1" d="M23.6,123.2l-0.7,0.7l-1.5-1.5l0.7-0.7L23.6,123.2z M25.9,125.5l-0.7,0.7l-1.5-1.5l0.7-0.7
				L25.9,125.5z M28.1,127.7l-0.7,0.7l-1.5-1.5l0.7-0.7L28.1,127.7z M30.3,129.9l-0.7,0.7l-1.5-1.5l0.7-0.7L30.3,129.9z M32.6,132.2
				l-0.7,0.7l-1.5-1.5l0.7-0.7L32.6,132.2z M34.8,134.4l-0.7,0.7l-1.5-1.5l0.7-0.7L34.8,134.4z M37,136.6l-0.7,0.7l-1.5-1.5l0.7-0.7
				L37,136.6z M39.3,138.8l-0.7,0.7l-1.5-1.5l0.7-0.7L39.3,138.8z"/>
		</g>
		<g id="XMLID_332_">
			
				<rect id="XMLID_333_" x="20.2" y="120.5" transform="matrix(0.7071 -0.7071 0.7071 0.7071 -79.4955 50.0825)" class="st1" width="1" height="1"/>
		</g>
	</g>
	<g id="XMLID_316_">
		<g id="XMLID_329_">
			
				<rect id="XMLID_330_" x="0.2" y="119.8" transform="matrix(0.7071 -0.7071 0.7071 0.7071 -84.8535 35.7332)" class="st1" width="1" height="1"/>
		</g>
		<g id="XMLID_319_">
			<path id="XMLID_320_" class="st1" d="M19.3,102.5l-1.5,1.5l-0.7-0.7l1.5-1.5L19.3,102.5z M17,104.7l-1.5,1.5l-0.7-0.7l1.5-1.5
				L17,104.7z M14.8,106.9l-1.5,1.5l-0.7-0.7l1.5-1.5L14.8,106.9z M12.6,109.1l-1.5,1.5l-0.7-0.7l1.5-1.5L12.6,109.1z M10.3,111.4
				l-1.5,1.5l-0.7-0.7l1.5-1.5L10.3,111.4z M8.1,113.6l-1.5,1.5l-0.7-0.7l1.5-1.5L8.1,113.6z M5.9,115.8l-1.5,1.5l-0.7-0.7l1.5-1.5
				L5.9,115.8z M3.6,118.1l-1.5,1.5l-0.7-0.7l1.5-1.5L3.6,118.1z"/>
		</g>
		<g id="XMLID_317_">
			
				<rect id="XMLID_318_" x="19.5" y="100.5" transform="matrix(0.7071 -0.7071 0.7071 0.7071 -65.5604 43.7246)" class="st1" width="1" height="1"/>
		</g>
	</g>
	<g id="XMLID_301_">
		<g id="XMLID_314_">
			
				<rect id="XMLID_315_" x="19.5" y="119.8" transform="matrix(0.7071 -0.7071 0.7071 0.7071 -79.2026 49.3755)" class="st1" width="1" height="1"/>
		</g>
		<g id="XMLID_304_">
			<path id="XMLID_305_" class="st1" d="M3.6,103.2l-0.7,0.7l-1.5-1.5l0.7-0.7L3.6,103.2z M5.9,105.5l-0.7,0.7l-1.5-1.5l0.7-0.7
				L5.9,105.5z M8.1,107.7l-0.7,0.7l-1.5-1.5l0.7-0.7L8.1,107.7z M10.3,109.9l-0.7,0.7l-1.5-1.5l0.7-0.7L10.3,109.9z M12.6,112.2
				l-0.7,0.7l-1.5-1.5l0.7-0.7L12.6,112.2z M14.8,114.4l-0.7,0.7l-1.5-1.5l0.7-0.7L14.8,114.4z M17,116.6l-0.7,0.7l-1.5-1.5l0.7-0.7
				L17,116.6z M19.3,118.8l-0.7,0.7l-1.5-1.5l0.7-0.7L19.3,118.8z"/>
		</g>
		<g id="XMLID_302_">
			
				<rect id="XMLID_303_" x="0.2" y="100.5" transform="matrix(0.7071 -0.7071 0.7071 0.7071 -71.2112 30.0824)" class="st1" width="1" height="1"/>
		</g>
	</g>
	<g id="XMLID_181_">
		<g id="XMLID_274_">
			<g id="XMLID_299_">
				
					<rect id="XMLID_300_" x="119.8" y="0.2" transform="matrix(-0.7071 0.7071 -0.7071 -0.7071 205.8543 -83.8536)" class="st1" width="1" height="1"/>
			</g>
			<g id="XMLID_289_">
				<path id="XMLID_290_" class="st1" d="M101.7,18.5l1.5-1.5l0.7,0.7l-1.5,1.5L101.7,18.5z M104,16.3l1.5-1.5l0.7,0.7l-1.5,1.5
					L104,16.3z M106.2,14.1l1.5-1.5l0.7,0.7l-1.5,1.5L106.2,14.1z M108.4,11.9l1.5-1.5l0.7,0.7l-1.5,1.5L108.4,11.9z M110.7,9.6
					l1.5-1.5l0.7,0.7l-1.5,1.5L110.7,9.6z M112.9,7.4l1.5-1.5l0.7,0.7l-1.5,1.5L112.9,7.4z M115.1,5.2l1.5-1.5l0.7,0.7l-1.5,1.5
					L115.1,5.2z M117.4,2.9l1.5-1.5l0.7,0.7l-1.5,1.5L117.4,2.9z"/>
			</g>
			<g id="XMLID_275_">
				
					<rect id="XMLID_276_" x="100.5" y="19.5" transform="matrix(-0.7071 0.7071 -0.7071 -0.7071 186.5612 -37.2759)" class="st1" width="1" height="1"/>
			</g>
		</g>
		<g id="XMLID_254_">
			<g id="XMLID_272_">
				
					<rect id="XMLID_273_" x="100.5" y="0.2" transform="matrix(-0.7071 0.7071 -0.7071 -0.7071 172.9189 -70.2113)" class="st1" width="1" height="1"/>
			</g>
			<g id="XMLID_257_">
				<path id="XMLID_258_" class="st1" d="M117.4,17.8l0.7-0.7l1.5,1.5l-0.7,0.7L117.4,17.8z M115.1,15.5l0.7-0.7l1.5,1.5l-0.7,0.7
					L115.1,15.5z M112.9,13.3l0.7-0.7l1.5,1.5l-0.7,0.7L112.9,13.3z M110.7,11.1l0.7-0.7l1.5,1.5l-0.7,0.7L110.7,11.1z M108.4,8.8
					l0.7-0.7l1.5,1.5l-0.7,0.7L108.4,8.8z M106.2,6.6l0.7-0.7l1.5,1.5l-0.7,0.7L106.2,6.6z M104,4.4l0.7-0.7l1.5,1.5l-0.7,0.7
					L104,4.4z M101.7,2.2l0.7-0.7l1.5,1.5l-0.7,0.7L101.7,2.2z"/>
			</g>
			<g id="XMLID_255_">
				
					<rect id="XMLID_256_" x="119.8" y="19.5" transform="matrix(-0.7071 0.7071 -0.7071 -0.7071 219.4966 -50.9182)" class="st1" width="1" height="1"/>
			</g>
		</g>
		<g id="XMLID_239_">
			<g id="XMLID_252_">
				
					<rect id="XMLID_253_" x="99.8" y="0.2" transform="matrix(-0.7071 0.7071 -0.7071 -0.7071 171.7119 -69.7113)" class="st1" width="1" height="1"/>
			</g>
			<g id="XMLID_242_">
				<path id="XMLID_243_" class="st1" d="M81.7,18.5l1.5-1.5l0.7,0.7l-1.5,1.5L81.7,18.5z M84,16.3l1.5-1.5l0.7,0.7L84.7,17L84,16.3
					z M86.2,14.1l1.5-1.5l0.7,0.7l-1.5,1.5L86.2,14.1z M88.4,11.9l1.5-1.5l0.7,0.7l-1.5,1.5L88.4,11.9z M90.7,9.6l1.5-1.5l0.7,0.7
					l-1.5,1.5L90.7,9.6z M92.9,7.4l1.5-1.5l0.7,0.7l-1.5,1.5L92.9,7.4z M95.1,5.2l1.5-1.5l0.7,0.7l-1.5,1.5L95.1,5.2z M97.4,2.9
					l1.5-1.5l0.7,0.7l-1.5,1.5L97.4,2.9z"/>
			</g>
			<g id="XMLID_240_">
				
					<rect id="XMLID_241_" x="80.5" y="19.5" transform="matrix(-0.7071 0.7071 -0.7071 -0.7071 152.4188 -23.1337)" class="st1" width="1" height="1"/>
			</g>
		</g>
		<g id="XMLID_224_">
			<g id="XMLID_237_">
				
					<rect id="XMLID_238_" x="80.5" y="0.2" transform="matrix(-0.7071 0.7071 -0.7071 -0.7071 138.7765 -56.069)" class="st1" width="1" height="1"/>
			</g>
			<g id="XMLID_227_">
				<path id="XMLID_228_" class="st1" d="M97.4,17.8l0.7-0.7l1.5,1.5l-0.7,0.7L97.4,17.8z M95.1,15.5l0.7-0.7l1.5,1.5L96.6,17
					L95.1,15.5z M92.9,13.3l0.7-0.7l1.5,1.5l-0.7,0.7L92.9,13.3z M90.7,11.1l0.7-0.7l1.5,1.5l-0.7,0.7L90.7,11.1z M88.4,8.8l0.7-0.7
					l1.5,1.5l-0.7,0.7L88.4,8.8z M86.2,6.6l0.7-0.7l1.5,1.5l-0.7,0.7L86.2,6.6z M84,4.4l0.7-0.7l1.5,1.5l-0.7,0.7L84,4.4z M81.7,2.2
					l0.7-0.7l1.5,1.5l-0.7,0.7L81.7,2.2z"/>
			</g>
			<g id="XMLID_225_">
				
					<rect id="XMLID_226_" x="99.8" y="19.5" transform="matrix(-0.7071 0.7071 -0.7071 -0.7071 185.3542 -36.7759)" class="st1" width="1" height="1"/>
			</g>
		</g>
		<g id="XMLID_209_">
			<g id="XMLID_222_">
				
					<rect id="XMLID_223_" x="119.8" y="20.2" transform="matrix(-0.7071 0.7071 -0.7071 -0.7071 219.9965 -49.7112)" class="st1" width="1" height="1"/>
			</g>
			<g id="XMLID_212_">
				<path id="XMLID_213_" class="st1" d="M101.7,38.5l1.5-1.5l0.7,0.7l-1.5,1.5L101.7,38.5z M104,36.3l1.5-1.5l0.7,0.7l-1.5,1.5
					L104,36.3z M106.2,34.1l1.5-1.5l0.7,0.7l-1.5,1.5L106.2,34.1z M108.4,31.9l1.5-1.5l0.7,0.7l-1.5,1.5L108.4,31.9z M110.7,29.6
					l1.5-1.5l0.7,0.7l-1.5,1.5L110.7,29.6z M112.9,27.4l1.5-1.5l0.7,0.7l-1.5,1.5L112.9,27.4z M115.1,25.2l1.5-1.5l0.7,0.7l-1.5,1.5
					L115.1,25.2z M117.4,22.9l1.5-1.5l0.7,0.7l-1.5,1.5L117.4,22.9z"/>
			</g>
			<g id="XMLID_210_">
				
					<rect id="XMLID_211_" x="100.5" y="39.5" transform="matrix(-0.7071 0.7071 -0.7071 -0.7071 200.7034 -3.1335)" class="st1" width="1" height="1"/>
			</g>
		</g>
		<g id="XMLID_182_">
			<g id="XMLID_195_">
				
					<rect id="XMLID_208_" x="100.5" y="20.2" transform="matrix(-0.7071 0.7071 -0.7071 -0.7071 187.0611 -36.0689)" class="st1" width="1" height="1"/>
			</g>
			<g id="XMLID_185_">
				<path id="XMLID_186_" class="st1" d="M117.4,37.8l0.7-0.7l1.5,1.5l-0.7,0.7L117.4,37.8z M115.1,35.5l0.7-0.7l1.5,1.5l-0.7,0.7
					L115.1,35.5z M112.9,33.3l0.7-0.7l1.5,1.5l-0.7,0.7L112.9,33.3z M110.7,31.1l0.7-0.7l1.5,1.5l-0.7,0.7L110.7,31.1z M108.4,28.8
					l0.7-0.7l1.5,1.5l-0.7,0.7L108.4,28.8z M106.2,26.6l0.7-0.7l1.5,1.5l-0.7,0.7L106.2,26.6z M104,24.4l0.7-0.7l1.5,1.5l-0.7,0.7
					L104,24.4z M101.7,22.2l0.7-0.7l1.5,1.5l-0.7,0.7L101.7,22.2z"/>
			</g>
			<g id="XMLID_183_">
				
					<rect id="XMLID_184_" x="119.8" y="39.5" transform="matrix(-0.7071 0.7071 -0.7071 -0.7071 233.6388 -16.7758)" class="st1" width="1" height="1"/>
			</g>
		</g>
	</g>
</g>
<g id="XMLID_391_">
	<path id="XMLID_404_" class="st1" d="M120.3,0.7v139.5H0.8V0.7H120.3 M121,0H0v141h121V0L121,0z"/>
</g>
<line id="XMLID_392_" class="st2" x1="100.5" y1="0" x2="100.5" y2="141"/>
<line id="XMLID_394_" class="st2" x1="20.5" y1="0" x2="20.5" y2="141"/>
<line id="XMLID_401_" class="st2" x1="40" y1="0" x2="40" y2="20.5"/>
<line id="XMLID_398_" class="st2" x1="40" y1="120.3" x2="40" y2="141"/>
<line id="XMLID_402_" class="st2" x1="81" y1="0" x2="81" y2="20.5"/>
<line id="XMLID_410_" class="st2" x1="81" y1="120.3" x2="81" y2="141"/>
<g id="XMLID_395_">
	<line id="XMLID_407_" class="st3" x1="0" y1="100.5" x2="20.5" y2="100.5"/>
	<line id="XMLID_403_" class="st3" x1="0" y1="40.5" x2="20.5" y2="40.5"/>
</g>
<g id="XMLID_399_">
	<line id="XMLID_409_" class="st3" x1="100.3" y1="100.5" x2="121" y2="100.5"/>
	<line id="XMLID_408_" class="st3" x1="100.3" y1="40.5" x2="121" y2="40.5"/>
</g>
<line id="XMLID_393_" class="st3" x1="0" y1="20.5" x2="121" y2="20.5"/>
<line id="XMLID_396_" class="st3" x1="0" y1="120.5" x2="121" y2="120.5"/>
</svg>
