<?xml version="1.0" encoding="utf-8"?>
<!-- Generator: Adobe Illustrator 19.0.0, SVG Export Plug-In . SVG Version: 6.00 Build 0)  -->
<!DOCTYPE svg PUBLIC "-//W3C//DTD SVG 1.1//EN" "http://www.w3.org/Graphics/SVG/1.1/DTD/svg11.dtd">
<svg version="1.1" id="Layer_1" xmlns="http://www.w3.org/2000/svg" xmlns:xlink="http://www.w3.org/1999/xlink" x="0px" y="0px"
	 viewBox="-780 586.2 358.4 149.8" style="enable-background:new -780 586.2 358.4 149.8;" xml:space="preserve">
<style type="text/css">
	.st0{fill:#C8C8C8;}
	.st1{fill:#668CFF;}
</style>
<g>
	<rect x="-532.5" y="650.1" class="st0" width="50.5" height="10.1"/>
	<rect x="-532.5" y="635" class="st0" width="45.4" height="10.1"/>
	<rect x="-532.5" y="665.2" class="st0" width="40.4" height="10.1"/>
	<path class="st0" d="M-427.6,635h-2.9h-7.5h-23.8v-6.1v-13.1v-1h-1h-4h-69.3h-7.5h-2.9h-6.2v54.9v5.7v16.2v4v20.2h4h6.1h6.1h4.3
		l5-20.2h14.8v20.2h1h9.1h55.2l5,20.2h4.3h6.1h6.1h4v-20.2v-4v-16.2v-5.7V635H-427.6z M-524.6,685.4h-7.9h-2.5l-5,20.2h-2.5v-10.1
		v-4v-14.1V671v-46.1h3.9h9.2h57.5v60.6h-52.7V685.4z M-431.6,691.1v6.4v14.1v4v10.2h-2.5l-5-20.2h-2.5h-7.9h-52.7v-10.1h30.3h9.1h1
		v-15.1h15.1v-10.1h-15.1v-5h20.2v-10.1h-20.2v-10.1h17.2h9.2h3.9v46H-431.6z"/>
</g>
<g id="XMLID_1319_">
	<path class="st0" d="M-744.5,711.7h59.1l6.1,24.2h25l-24.2-96.9v-24.2h-72.7V639l-24.2,96.9h25L-744.5,711.7z M-726.3,639h22.7
		l12.1,48.5h-47L-726.3,639z"/>
</g>
<g id="XMLID_1371_">
	<path class="st1" d="M-767,712.3c-0.5,0-1-0.1-1.6-0.2l0.2-1c0.5,0.1,1,0.1,1.5,0.2L-767,712.3z M-765.4,712.3l-0.1-1
		c0.5,0,1-0.1,1.5-0.2l0.2,1C-764.4,712.3-764.9,712.3-765.4,712.3z M-770.1,711.8c-0.5-0.1-1-0.3-1.5-0.5l0.4-0.9
		c0.4,0.2,0.9,0.4,1.4,0.5L-770.1,711.8z M-762.3,711.8l-0.3-1c0.5-0.1,0.9-0.3,1.4-0.5l0.4,0.9
		C-761.3,711.5-761.8,711.6-762.3,711.8z M-773,710.6c-0.5-0.3-0.9-0.6-1.3-0.9l0.6-0.8c0.4,0.3,0.8,0.6,1.2,0.8L-773,710.6z
		 M-759.4,710.5l-0.5-0.9c0.4-0.2,0.8-0.5,1.2-0.8l0.6,0.8C-758.5,710-759,710.3-759.4,710.5z M-775.5,708.7
		c-0.4-0.4-0.7-0.7-1.1-1.1l0.8-0.6c0.3,0.4,0.7,0.7,1,1.1L-775.5,708.7z M-756.9,708.7l-0.7-0.7c0.4-0.3,0.7-0.7,1-1.1l0.8,0.6
		C-756.1,707.9-756.5,708.3-756.9,708.7z M-777.6,706.3c-0.3-0.4-0.6-0.9-0.8-1.4l0.9-0.5c0.2,0.4,0.5,0.9,0.7,1.3L-777.6,706.3z
		 M-754.8,706.2l-0.8-0.6c0.3-0.4,0.5-0.8,0.7-1.3l0.9,0.4C-754.3,705.3-754.6,705.8-754.8,706.2z M-779,703.4
		c-0.2-0.5-0.3-1-0.5-1.5l1-0.2c0.1,0.5,0.3,0.9,0.4,1.4L-779,703.4z M-753.4,703.4l-0.9-0.3c0.2-0.5,0.3-0.9,0.4-1.4l1,0.2
		C-753.1,702.4-753.2,702.9-753.4,703.4z M-779.7,700.4c-0.1-0.5-0.1-1.1-0.1-1.6h1c0,0.5,0,1,0.1,1.5L-779.7,700.4z M-752.7,700.4
		l-1-0.1c0.1-0.5,0.1-1,0.1-1.5h0.7h0.3C-752.6,699.3-752.6,699.8-752.7,700.4z M-778.7,697.3l-1-0.1c0.1-0.5,0.1-1,0.3-1.6l1,0.2
		C-778.6,696.4-778.7,696.9-778.7,697.3z M-753.7,697.3c-0.1-0.5-0.1-1-0.3-1.4l1-0.2c0.1,0.5,0.2,1,0.3,1.6L-753.7,697.3z
		 M-778.1,694.5l-0.9-0.3c0.2-0.5,0.4-1,0.6-1.5l0.9,0.4C-777.7,693.6-777.9,694-778.1,694.5z M-754.4,694.4
		c-0.2-0.5-0.4-0.9-0.6-1.3l0.9-0.5c0.2,0.5,0.5,1,0.6,1.4L-754.4,694.4z M-776.7,691.9l-0.8-0.5c0.3-0.4,0.6-0.9,0.9-1.3l0.8,0.6
		C-776.2,691.1-776.5,691.5-776.7,691.9z M-755.7,691.8c-0.3-0.4-0.6-0.8-0.9-1.2l0.8-0.6c0.3,0.4,0.7,0.8,0.9,1.3L-755.7,691.8z
		 M-774.9,689.6l-0.7-0.7c0.4-0.4,0.8-0.7,1.2-1l0.6,0.8C-774.1,689-774.5,689.3-774.9,689.6z M-757.6,689.6
		c-0.4-0.3-0.7-0.7-1.1-0.9l0.6-0.8c0.4,0.3,0.8,0.6,1.2,1L-757.6,689.6z M-772.5,687.9l-0.5-0.9c0.5-0.3,0.9-0.5,1.4-0.7l0.4,0.9
		C-771.7,687.4-772.1,687.6-772.5,687.9z M-759.9,687.8c-0.4-0.2-0.9-0.5-1.3-0.7l0.4-0.9c0.5,0.2,1,0.4,1.4,0.7L-759.9,687.8z
		 M-769.8,686.7l-0.3-1c0.5-0.2,1-0.3,1.5-0.4l0.2,1C-768.9,686.5-769.4,686.6-769.8,686.7z M-762.6,686.7c-0.5-0.1-0.9-0.2-1.4-0.3
		l0.2-1c0.5,0.1,1,0.2,1.5,0.4L-762.6,686.7z M-767,686.2l-0.1-1c0.5,0,1.1,0,1.6,0l-0.1,1C-766,686.2-766.5,686.2-767,686.2z"/>
</g>
<g id="XMLID_1399_">
	<path class="st1" d="M-533.3,712.3c-0.5,0-1.1-0.1-1.6-0.2l0.2-1c0.5,0.1,1,0.1,1.5,0.2L-533.3,712.3z M-531.7,712.3l-0.1-1
		c0.5,0,1-0.1,1.5-0.2l0.2,1C-530.7,712.3-531.2,712.3-531.7,712.3z M-536.4,711.8c-0.5-0.1-1-0.3-1.5-0.5l0.4-0.9
		c0.4,0.2,0.9,0.4,1.4,0.5L-536.4,711.8z M-528.6,711.8l-0.3-1c0.5-0.1,0.9-0.3,1.4-0.5l0.4,0.9
		C-527.6,711.5-528.1,711.7-528.6,711.8z M-539.3,710.6c-0.5-0.3-0.9-0.6-1.3-0.9l0.6-0.8c0.4,0.3,0.8,0.6,1.2,0.8L-539.3,710.6z
		 M-525.7,710.5l-0.5-0.9c0.4-0.2,0.8-0.5,1.2-0.8l0.6,0.8C-524.8,710-525.3,710.3-525.7,710.5z M-541.9,708.7
		c-0.4-0.4-0.7-0.7-1.1-1.1l0.8-0.6c0.3,0.4,0.7,0.7,1,1.1L-541.9,708.7z M-523.2,708.7l-0.7-0.7c0.4-0.3,0.7-0.7,1-1.1l0.8,0.6
		C-522.5,707.9-522.8,708.3-523.2,708.7z M-543.9,706.3c-0.3-0.4-0.6-0.9-0.8-1.4l0.9-0.5c0.2,0.4,0.5,0.9,0.7,1.3L-543.9,706.3z
		 M-521.2,706.2l-0.8-0.6c0.3-0.4,0.5-0.8,0.7-1.3l0.9,0.4C-520.6,705.3-520.9,705.8-521.2,706.2z M-545.3,703.4
		c-0.2-0.5-0.3-1-0.5-1.5l1-0.2c0.1,0.5,0.3,0.9,0.4,1.4L-545.3,703.4z M-519.8,703.4l-0.9-0.3c0.2-0.5,0.3-0.9,0.4-1.4l1,0.2
		C-519.4,702.4-519.6,702.9-519.8,703.4z M-546,700.4c-0.1-0.5-0.1-1-0.1-1.6h1c0,0.5,0,1,0.1,1.5L-546,700.4z M-519,700.4l-1-0.1
		c0.1-0.5,0.1-1,0.1-1.5l1-0.1v0.1C-518.9,699.3-519,699.8-519,700.4z M-545.1,697.3l-1-0.1c0.1-0.5,0.2-1,0.3-1.6l1,0.2
		C-544.9,696.4-545,696.9-545.1,697.3z M-520,697.3c-0.1-0.5-0.1-1-0.3-1.4l1-0.2c0.1,0.5,0.2,1,0.3,1.6L-520,697.3z M-544.4,694.5
		l-0.9-0.3c0.2-0.5,0.4-1,0.6-1.5l0.9,0.4C-544,693.6-544.2,694-544.4,694.5z M-520.7,694.4c-0.2-0.5-0.4-0.9-0.6-1.3l0.9-0.5
		c0.2,0.5,0.4,1,0.6,1.4L-520.7,694.4z M-543.1,691.9l-0.8-0.5c0.3-0.4,0.6-0.9,0.9-1.3l0.8,0.6
		C-542.5,691.1-542.8,691.5-543.1,691.9z M-522,691.8c-0.3-0.4-0.6-0.8-0.9-1.2l0.8-0.6c0.3,0.4,0.7,0.8,0.9,1.3L-522,691.8z
		 M-541.2,689.6l-0.7-0.7c0.4-0.4,0.8-0.7,1.2-1l0.6,0.8C-540.5,689-540.8,689.3-541.2,689.6z M-523.9,689.6
		c-0.4-0.3-0.7-0.6-1.1-0.9l0.6-0.8c0.4,0.3,0.8,0.7,1.2,1L-523.9,689.6z M-538.9,687.9l-0.5-0.9c0.5-0.3,0.9-0.5,1.4-0.7l0.4,0.9
		C-538,687.4-538.4,687.6-538.9,687.9z M-526.3,687.8c-0.4-0.2-0.9-0.5-1.3-0.7l0.4-0.9c0.5,0.2,1,0.4,1.4,0.7L-526.3,687.8z
		 M-536.2,686.7l-0.3-1c0.5-0.2,1-0.3,1.5-0.4l0.2,1C-535.2,686.5-535.7,686.6-536.2,686.7z M-529,686.7c-0.5-0.1-0.9-0.2-1.4-0.3
		l0.2-1c0.5,0.1,1,0.2,1.5,0.4L-529,686.7z M-533.3,686.2l-0.1-1c0.5,0,1.1,0,1.6,0l-0.1,1C-532.3,686.2-532.8,686.2-533.3,686.2z"
		/>
</g>
<g id="XMLID_1398_">
	<g>
		<path class="st1" d="M-547.4,699.3h-1.5v-1h1.5V699.3z M-550.4,699.3h-1.5v-1h1.5V699.3z M-553.4,699.3h-1.5v-1h1.5V699.3z
			 M-556.4,699.3h-1.5v-1h1.5V699.3z M-559.4,699.3h-1.5v-1h1.5V699.3z M-562.5,699.3h-1.5v-1h1.5V699.3z M-565.5,699.3h-1.5v-1h1.5
			V699.3z M-568.5,699.3h-1.5v-1h1.5V699.3z M-571.5,699.3h-1.5v-1h1.5V699.3z M-574.5,699.3h-1.5v-1h1.5V699.3z M-577.6,699.3h-1.5
			v-1h1.5V699.3z M-580.6,699.3h-1.5v-1h1.5V699.3z M-583.6,699.3h-1.5v-1h1.5V699.3z M-586.6,699.3h-1.5v-1h1.5V699.3z
			 M-589.6,699.3h-1.5v-1h1.5V699.3z M-592.7,699.3h-1.5v-1h1.5V699.3z M-595.7,699.3h-1.5v-1h1.5V699.3z M-598.7,699.3h-1.5v-1h1.5
			V699.3z M-601.7,699.3h-1.5v-1h1.5V699.3z M-604.7,699.3h-1.5v-1h1.5V699.3z M-607.8,699.3h-1.5v-1h1.5V699.3z M-610.8,699.3h-1.5
			v-1h1.5V699.3z M-613.8,699.3h-1.5v-1h1.5V699.3z M-616.8,699.3h-1.5v-1h1.5V699.3z M-619.8,699.3h-1.5v-1h1.5V699.3z
			 M-622.9,699.3h-1.5v-1h1.5V699.3z M-625.9,699.3h-1.5v-1h1.5V699.3z M-628.9,699.3h-1.5v-1h1.5V699.3z M-631.9,699.3h-1.5v-1h1.5
			V699.3z M-634.9,699.3h-1.5v-1h1.5V699.3z M-638,699.3h-1.5v-1h1.5V699.3z M-641,699.3h-1.5v-1h1.5V699.3z M-644,699.3h-1.5v-1
			h1.5V699.3z M-647,699.3h-1.5v-1h1.5V699.3z M-650,699.3h-1.5v-1h1.5V699.3z M-653.1,699.3h-1.5v-1h1.5V699.3z M-656.1,699.3h-1.5
			v-1h1.5V699.3z M-659.1,699.3h-1.5v-1h1.5V699.3z M-662.1,699.3h-1.5v-1h1.5V699.3z M-665.1,699.3h-1.5v-1h1.5V699.3z
			 M-668.2,699.3h-1.5v-1h1.5V699.3z M-671.2,699.3h-1.5v-1h1.5V699.3z M-674.2,699.3h-1.5v-1h1.5V699.3z M-677.2,699.3h-1.5v-1h1.5
			V699.3z M-680.2,699.3h-1.5v-1h1.5V699.3z M-683.3,699.3h-1.5v-1h1.5V699.3z M-686.3,699.3h-1.5v-1h1.5V699.3z M-689.3,699.3h-1.5
			v-1h1.5V699.3z M-692.3,699.3h-1.5v-1h1.5V699.3z M-695.3,699.3h-1.5v-1h1.5V699.3z M-698.4,699.3h-1.5v-1h1.5V699.3z
			 M-701.4,699.3h-1.5v-1h1.5V699.3z M-704.4,699.3h-1.5v-1h1.5V699.3z M-707.4,699.3h-1.5v-1h1.5V699.3z M-710.4,699.3h-1.5v-1h1.5
			V699.3z M-713.5,699.3h-1.5v-1h1.5V699.3z M-716.5,699.3h-1.5v-1h1.5V699.3z M-719.5,699.3h-1.5v-1h1.5V699.3z M-722.5,699.3h-1.5
			v-1h1.5V699.3z M-725.5,699.3h-1.5v-1h1.5V699.3z M-728.6,699.3h-1.5v-1h1.5V699.3z M-731.6,699.3h-1.5v-1h1.5V699.3z
			 M-734.6,699.3h-1.5v-1h1.5V699.3z M-737.6,699.3h-1.5v-1h1.5V699.3z M-740.6,699.3h-1.5v-1h1.5V699.3z M-743.7,699.3h-1.5v-1h1.5
			V699.3z M-746.7,699.3h-1.5v-1h1.5V699.3z M-749.7,699.3h-1.5v-1h1.5V699.3z"/>
	</g>
</g>
</svg>
