<?xml version="1.0" encoding="utf-8"?>
<!-- Generator: Adobe Illustrator 19.0.0, SVG Export Plug-In . SVG Version: 6.00 Build 0)  -->
<!DOCTYPE svg PUBLIC "-//W3C//DTD SVG 1.1//EN" "http://www.w3.org/Graphics/SVG/1.1/DTD/svg11.dtd">
<svg version="1.1" id="Layer_1" xmlns="http://www.w3.org/2000/svg" xmlns:xlink="http://www.w3.org/1999/xlink" x="0px" y="0px"
	 viewBox="0 0 496.8 154" style="enable-background:new 0 0 496.8 154;" xml:space="preserve">
<style type="text/css">
	.st0{fill:#38FFA1;}
</style>
<rect class="st0" width="242.2" height="154"/>
<rect x="254.7" class="st0" width="242.2" height="154"/>
<g>
	<polygon points="22.5,22.9 17.9,22.9 17.9,13.8 22.5,13.8 22.5,10.7 10.2,10.7 10.2,13.8 14.8,13.8 14.8,22.9 10.2,22.9 10.2,26 
		22.5,26 	"/>
	<path d="M12.6,78h7.5l0.8,3.1H24l-3.1-12.2v-3.1h-9.2v3.1L8.7,81.1h3.2L12.6,78z M14.9,68.9h2.9l1.5,6.1h-5.9L14.9,68.9z"/>
	<polygon points="22.5,59.7 13.3,59.7 13.3,56.6 20.9,56.6 20.9,53.6 13.3,53.6 13.3,50.5 22.5,50.5 22.5,47.4 10.2,47.4 10.2,62.7 
		22.5,62.7 	"/>
	<polygon points="14.8,41.3 13.3,41.3 13.3,44.4 19.4,44.4 19.4,41.3 17.9,41.3 17.9,32.1 22.5,32.1 22.5,29.1 10.2,29.1 10.2,32.1 
		14.8,32.1 	"/>
	<polygon points="16.4,91.8 16.3,91.8 14.4,84.2 8.7,84.2 8.7,99.5 11.7,99.5 11.7,87.2 12,87.2 13.9,94.9 18.8,94.9 20.7,87.2 
		20.9,87.2 20.9,99.5 24,99.5 24,84.2 18.3,84.2 	"/>
</g>
<g>
	<path d="M269.3,60.8L269.3,60.8c0,0.7-0.2,1.3-0.7,1.8c-0.5,0.5-1.1,0.7-2,0.7c-0.8,0-1.5-0.3-2-0.8c-0.5-0.6-0.8-1.3-0.8-2.1v-1.4
		c0-0.9,0.3-1.6,0.8-2.1c0.5-0.6,1.2-0.8,2-0.8c0.8,0,1.5,0.2,2,0.7c0.5,0.4,0.7,1,0.7,1.8l0,0h-1.1c0-0.5-0.1-0.9-0.4-1.1
		c-0.3-0.3-0.6-0.4-1.1-0.4c-0.5,0-0.9,0.2-1.2,0.6c-0.3,0.4-0.4,0.9-0.4,1.4v1.4c0,0.6,0.1,1.1,0.4,1.5c0.3,0.4,0.7,0.6,1.2,0.6
		c0.5,0,0.9-0.1,1.1-0.4s0.4-0.6,0.4-1.1H269.3z"/>
	<path d="M271.4,58.5c0.2-0.2,0.4-0.4,0.6-0.6c0.3-0.1,0.5-0.2,0.8-0.2c0.6,0,1,0.2,1.3,0.5c0.3,0.4,0.5,0.9,0.5,1.6v3.2h-1.2v-3.2
		c0-0.4-0.1-0.7-0.2-0.9s-0.4-0.3-0.7-0.3c-0.2,0-0.4,0-0.6,0.1c-0.2,0.1-0.3,0.2-0.5,0.4v3.9h-1.2v-7.6h1.2V58.5z"/>
	<path d="M278.4,58.9l-0.5,0c-0.2,0-0.4,0-0.6,0.1c-0.2,0.1-0.3,0.2-0.4,0.4v3.7h-1.2v-5.3h1.1l0.1,0.8c0.1-0.3,0.3-0.5,0.5-0.6
		c0.2-0.2,0.5-0.2,0.7-0.2c0.1,0,0.1,0,0.2,0c0.1,0,0.1,0,0.2,0L278.4,58.9z"/>
	<path d="M280.4,56.5h-1.2v-1h1.2V56.5z M280.4,63.1h-1.2v-5.3h1.2V63.1z"/>
	<path d="M284.6,61.7c0-0.2-0.1-0.3-0.2-0.5s-0.4-0.2-0.9-0.3c-0.6-0.1-1.1-0.3-1.4-0.6c-0.3-0.2-0.5-0.6-0.5-1
		c0-0.4,0.2-0.8,0.6-1.1s0.9-0.5,1.5-0.5c0.6,0,1.2,0.2,1.5,0.5c0.4,0.3,0.6,0.7,0.5,1.2l0,0h-1.1c0-0.2-0.1-0.4-0.2-0.6
		s-0.4-0.2-0.7-0.2c-0.3,0-0.5,0.1-0.7,0.2c-0.1,0.1-0.2,0.3-0.2,0.5s0.1,0.3,0.2,0.4c0.1,0.1,0.4,0.2,0.9,0.3
		c0.7,0.1,1.2,0.3,1.5,0.6c0.3,0.2,0.5,0.6,0.5,1c0,0.5-0.2,0.9-0.6,1.2c-0.4,0.3-0.9,0.4-1.5,0.4c-0.7,0-1.2-0.2-1.6-0.5
		s-0.6-0.8-0.6-1.2l0,0h1.1c0,0.3,0.1,0.5,0.3,0.7s0.5,0.2,0.8,0.2c0.3,0,0.5-0.1,0.7-0.2S284.6,61.9,284.6,61.7z"/>
	<path d="M288.2,56.6v1.3h0.9v0.9h-0.9v2.9c0,0.2,0,0.4,0.1,0.5c0.1,0.1,0.2,0.1,0.4,0.1c0.1,0,0.1,0,0.2,0c0.1,0,0.1,0,0.2,0
		l0.1,0.9c-0.1,0.1-0.2,0.1-0.4,0.1c-0.1,0-0.3,0-0.4,0c-0.4,0-0.8-0.1-1-0.4c-0.2-0.3-0.4-0.7-0.4-1.2v-2.9h-0.8v-0.9h0.8v-1.3
		H288.2z"/>
	<path d="M291.2,56.5H290v-1h1.2V56.5z M291.2,63.1H290v-5.3h1.2V63.1z"/>
	<path d="M295.6,63.1c0-0.1-0.1-0.3-0.1-0.4c0-0.1,0-0.3-0.1-0.4c-0.2,0.2-0.4,0.5-0.6,0.6c-0.3,0.2-0.6,0.3-0.9,0.3
		c-0.5,0-1-0.1-1.3-0.4c-0.3-0.3-0.4-0.7-0.4-1.2c0-0.5,0.2-0.9,0.6-1.2c0.4-0.3,1-0.4,1.7-0.4h0.9v-0.5c0-0.3-0.1-0.5-0.2-0.6
		s-0.4-0.2-0.7-0.2c-0.3,0-0.5,0.1-0.6,0.2s-0.2,0.3-0.2,0.5h-1.1l0,0c0-0.4,0.2-0.8,0.6-1.1c0.4-0.3,0.9-0.5,1.5-0.5
		c0.6,0,1.1,0.2,1.5,0.5s0.6,0.8,0.6,1.3v2.3c0,0.2,0,0.4,0,0.6c0,0.2,0.1,0.4,0.1,0.6H295.6z M294.1,62.3c0.3,0,0.6-0.1,0.8-0.2
		c0.2-0.1,0.4-0.3,0.5-0.5v-0.8h-0.9c-0.3,0-0.6,0.1-0.8,0.3c-0.2,0.2-0.3,0.4-0.3,0.6c0,0.2,0.1,0.4,0.2,0.5
		C293.7,62.2,293.9,62.3,294.1,62.3z"/>
	<path d="M298.8,57.8l0.1,0.8c0.2-0.3,0.4-0.5,0.7-0.6c0.3-0.2,0.6-0.2,0.9-0.2c0.5,0,1,0.2,1.3,0.5c0.3,0.3,0.5,0.9,0.5,1.6v3.3
		H301v-3.3c0-0.4-0.1-0.7-0.2-0.8c-0.2-0.2-0.4-0.3-0.8-0.3c-0.2,0-0.4,0.1-0.6,0.2c-0.2,0.1-0.3,0.2-0.4,0.4v3.8h-1.2v-5.3H298.8z"
		/>
	<path d="M306.8,62.2h3.3v1h-4.5V56h1.2V62.2z"/>
	<path d="M314.1,63.1c0-0.1-0.1-0.3-0.1-0.4c0-0.1,0-0.3-0.1-0.4c-0.2,0.2-0.4,0.5-0.6,0.6c-0.3,0.2-0.6,0.3-0.9,0.3
		c-0.5,0-1-0.1-1.3-0.4c-0.3-0.3-0.4-0.7-0.4-1.2c0-0.5,0.2-0.9,0.6-1.2c0.4-0.3,1-0.4,1.7-0.4h0.9v-0.5c0-0.3-0.1-0.5-0.2-0.6
		s-0.4-0.2-0.7-0.2c-0.3,0-0.5,0.1-0.6,0.2s-0.2,0.3-0.2,0.5H311l0,0c0-0.4,0.2-0.8,0.6-1.1c0.4-0.3,0.9-0.5,1.5-0.5
		c0.6,0,1.1,0.2,1.5,0.5s0.6,0.8,0.6,1.3v2.3c0,0.2,0,0.4,0,0.6c0,0.2,0.1,0.4,0.1,0.6H314.1z M312.7,62.3c0.3,0,0.6-0.1,0.8-0.2
		c0.2-0.1,0.4-0.3,0.5-0.5v-0.8H313c-0.3,0-0.6,0.1-0.8,0.3c-0.2,0.2-0.3,0.4-0.3,0.6c0,0.2,0.1,0.4,0.2,0.5
		C312.2,62.2,312.4,62.3,312.7,62.3z"/>
	<path d="M317.4,57.8l0.1,0.8c0.2-0.3,0.4-0.5,0.7-0.6c0.3-0.2,0.6-0.2,0.9-0.2c0.5,0,1,0.2,1.3,0.5c0.3,0.3,0.5,0.9,0.5,1.6v3.3
		h-1.2v-3.3c0-0.4-0.1-0.7-0.2-0.8c-0.2-0.2-0.4-0.3-0.8-0.3c-0.2,0-0.4,0.1-0.6,0.2c-0.2,0.1-0.3,0.2-0.4,0.4v3.8h-1.2v-5.3H317.4z
		"/>
	<path d="M321.7,60.6c0-0.8,0.2-1.5,0.5-2c0.4-0.5,0.9-0.8,1.5-0.8c0.3,0,0.5,0.1,0.8,0.2c0.2,0.1,0.4,0.3,0.6,0.5v-2.9h1.2v7.6h-1
		l-0.1-0.7c-0.2,0.2-0.4,0.4-0.6,0.6c-0.2,0.1-0.5,0.2-0.8,0.2c-0.6,0-1.2-0.2-1.5-0.7s-0.5-1.1-0.5-1.9V60.6z M322.8,60.7
		c0,0.5,0.1,0.9,0.3,1.2c0.2,0.3,0.5,0.4,0.9,0.4c0.3,0,0.5-0.1,0.6-0.2c0.2-0.1,0.3-0.3,0.4-0.5v-2.3c-0.1-0.2-0.3-0.3-0.4-0.5
		c-0.2-0.1-0.4-0.2-0.6-0.2c-0.4,0-0.7,0.2-0.9,0.5c-0.2,0.3-0.3,0.8-0.3,1.3V60.7z"/>
	<path d="M327.2,60.6c0-0.8,0.2-1.5,0.6-2s0.9-0.8,1.5-0.8c0.3,0,0.6,0.1,0.8,0.2c0.2,0.1,0.4,0.3,0.6,0.6l0.1-0.7h1v5.3
		c0,0.7-0.2,1.2-0.6,1.6s-1,0.6-1.8,0.6c-0.3,0-0.5,0-0.8-0.1c-0.3-0.1-0.6-0.2-0.8-0.3l0.3-0.9c0.2,0.1,0.4,0.2,0.6,0.2
		c0.2,0.1,0.5,0.1,0.7,0.1c0.4,0,0.7-0.1,0.9-0.3c0.2-0.2,0.3-0.5,0.3-0.8v-0.5c-0.2,0.2-0.4,0.4-0.6,0.5c-0.2,0.1-0.5,0.2-0.8,0.2
		c-0.6,0-1.2-0.2-1.5-0.7s-0.6-1.1-0.6-1.9V60.6z M328.4,60.7c0,0.5,0.1,0.9,0.3,1.2c0.2,0.3,0.5,0.4,0.9,0.4c0.3,0,0.5-0.1,0.6-0.2
		c0.2-0.1,0.3-0.3,0.4-0.5v-2.3c-0.1-0.2-0.3-0.3-0.4-0.5c-0.2-0.1-0.4-0.2-0.6-0.2c-0.4,0-0.7,0.2-0.9,0.5
		c-0.2,0.3-0.3,0.8-0.3,1.3V60.7z"/>
	<path d="M335.6,58.9l-0.5,0c-0.2,0-0.4,0-0.6,0.1c-0.2,0.1-0.3,0.2-0.4,0.4v3.7H333v-5.3h1.1l0.1,0.8c0.1-0.3,0.3-0.5,0.5-0.6
		c0.2-0.2,0.5-0.2,0.7-0.2c0.1,0,0.1,0,0.2,0c0.1,0,0.1,0,0.2,0L335.6,58.9z"/>
	<path d="M338.6,63.2c-0.7,0-1.3-0.2-1.8-0.7c-0.4-0.5-0.7-1.1-0.7-1.9v-0.2c0-0.8,0.2-1.4,0.7-1.9c0.4-0.5,1-0.8,1.7-0.8
		c0.7,0,1.3,0.2,1.6,0.6c0.4,0.4,0.6,1,0.6,1.7v0.7h-3.3l0,0c0,0.4,0.1,0.8,0.4,1c0.2,0.3,0.5,0.4,0.9,0.4c0.3,0,0.6,0,0.8-0.1
		s0.4-0.2,0.7-0.3l0.4,0.8c-0.2,0.2-0.5,0.3-0.8,0.4S339,63.2,338.6,63.2z M338.4,58.7c-0.3,0-0.5,0.1-0.7,0.3
		c-0.2,0.2-0.3,0.5-0.4,0.9l0,0h2.1v-0.1c0-0.3-0.1-0.6-0.3-0.8C339,58.8,338.8,58.7,338.4,58.7z"/>
	<path d="M342.6,57.8l0.1,0.8c0.2-0.3,0.4-0.5,0.7-0.6c0.3-0.2,0.6-0.2,0.9-0.2c0.5,0,1,0.2,1.3,0.5c0.3,0.3,0.5,0.9,0.5,1.6v3.3
		h-1.2v-3.3c0-0.4-0.1-0.7-0.2-0.8c-0.2-0.2-0.4-0.3-0.8-0.3c-0.2,0-0.4,0.1-0.6,0.2c-0.2,0.1-0.3,0.2-0.4,0.4v3.8h-1.2v-5.3H342.6z
		"/>
	<path d="M269.3,70.8L269.3,70.8c0,0.7-0.2,1.3-0.7,1.8c-0.5,0.5-1.1,0.7-2,0.7c-0.8,0-1.5-0.3-2-0.8c-0.5-0.6-0.8-1.3-0.8-2.1v-1.4
		c0-0.9,0.3-1.6,0.8-2.1c0.5-0.6,1.2-0.8,2-0.8c0.8,0,1.5,0.2,2,0.7c0.5,0.4,0.7,1,0.7,1.8l0,0h-1.1c0-0.5-0.1-0.9-0.4-1.1
		c-0.3-0.3-0.6-0.4-1.1-0.4c-0.5,0-0.9,0.2-1.2,0.6c-0.3,0.4-0.4,0.9-0.4,1.4v1.4c0,0.6,0.1,1.1,0.4,1.5c0.3,0.4,0.7,0.6,1.2,0.6
		c0.5,0,0.9-0.1,1.1-0.4s0.4-0.6,0.4-1.1H269.3z"/>
	<path d="M274.6,69.9h-3.1v2.2h3.6v1h-4.8V66h4.8v1h-3.6v2h3.1V69.9z"/>
	<path d="M281.5,70.2c0,0.9-0.3,1.6-0.8,2.2c-0.5,0.6-1.3,0.9-2.1,0.9c-0.9,0-1.5-0.3-2.1-0.9c-0.5-0.6-0.8-1.3-0.8-2.2v-1.3
		c0-0.9,0.3-1.6,0.8-2.2c0.5-0.6,1.2-0.9,2.1-0.9c0.9,0,1.6,0.3,2.1,0.9s0.8,1.3,0.8,2.2V70.2z M280.3,68.9c0-0.6-0.2-1.1-0.5-1.5
		c-0.3-0.4-0.7-0.6-1.3-0.6c-0.5,0-0.9,0.2-1.2,0.6s-0.5,0.9-0.5,1.5v1.3c0,0.6,0.2,1.1,0.5,1.5c0.3,0.4,0.7,0.6,1.2,0.6
		c0.5,0,1-0.2,1.3-0.6c0.3-0.4,0.5-0.9,0.5-1.5V68.9z"/>
	<path d="M282.7,73.7h-1.1l2.8-7.7h1.1L282.7,73.7z"/>
	<path d="M269,77h-2.1v6.2h-1.2V77h-2.1v-1h5.5V77z"/>
	<path d="M271.1,83.2c-0.7,0-1.3-0.2-1.8-0.7c-0.4-0.5-0.7-1.1-0.7-1.9v-0.2c0-0.8,0.2-1.4,0.7-1.9c0.4-0.5,1-0.8,1.7-0.8
		c0.7,0,1.3,0.2,1.6,0.6c0.4,0.4,0.6,1,0.6,1.7v0.7h-3.3l0,0c0,0.4,0.1,0.8,0.4,1c0.2,0.3,0.5,0.4,0.9,0.4c0.3,0,0.6,0,0.8-0.1
		s0.4-0.2,0.7-0.3l0.4,0.8c-0.2,0.2-0.5,0.3-0.8,0.4S271.5,83.2,271.1,83.2z M270.9,78.7c-0.3,0-0.5,0.1-0.7,0.3
		c-0.2,0.2-0.3,0.5-0.4,0.9l0,0h2.1v-0.1c0-0.3-0.1-0.6-0.3-0.8C271.5,78.8,271.3,78.7,270.9,78.7z"/>
	<path d="M276.2,82.3c0.3,0,0.5-0.1,0.7-0.3s0.3-0.4,0.3-0.6h1.1l0,0c0,0.5-0.2,0.9-0.6,1.3c-0.4,0.4-0.9,0.5-1.5,0.5
		c-0.8,0-1.4-0.3-1.8-0.8c-0.4-0.5-0.6-1.1-0.6-1.9v-0.2c0-0.8,0.2-1.4,0.6-1.9c0.4-0.5,1-0.8,1.8-0.8c0.6,0,1.1,0.2,1.5,0.6
		c0.4,0.4,0.6,0.8,0.6,1.4l0,0h-1.1c0-0.3-0.1-0.5-0.3-0.7c-0.2-0.2-0.4-0.3-0.7-0.3c-0.4,0-0.8,0.2-0.9,0.5s-0.3,0.7-0.3,1.2v0.2
		c0,0.5,0.1,0.9,0.3,1.2S275.8,82.3,276.2,82.3z"/>
	<path d="M280.4,78.5c0.2-0.2,0.4-0.4,0.6-0.6c0.3-0.1,0.5-0.2,0.8-0.2c0.6,0,1,0.2,1.3,0.5c0.3,0.4,0.5,0.9,0.5,1.6v3.2h-1.2v-3.2
		c0-0.4-0.1-0.7-0.2-0.9s-0.4-0.3-0.7-0.3c-0.2,0-0.4,0-0.6,0.1c-0.2,0.1-0.3,0.2-0.5,0.4v3.9h-1.2v-7.6h1.2V78.5z"/>
	<path d="M285.9,77.8l0.1,0.8c0.2-0.3,0.4-0.5,0.7-0.6c0.3-0.2,0.6-0.2,0.9-0.2c0.5,0,1,0.2,1.3,0.5c0.3,0.3,0.5,0.9,0.5,1.6v3.3
		h-1.2v-3.3c0-0.4-0.1-0.7-0.2-0.8c-0.2-0.2-0.4-0.3-0.8-0.3c-0.2,0-0.4,0.1-0.6,0.2c-0.2,0.1-0.3,0.2-0.4,0.4v3.8h-1.2v-5.3H285.9z
		"/>
	<path d="M291.6,76.5h-1.2v-1h1.2V76.5z M291.6,83.1h-1.2v-5.3h1.2V83.1z"/>
	<path d="M295,82.3c0.3,0,0.5-0.1,0.7-0.3s0.3-0.4,0.3-0.6h1.1l0,0c0,0.5-0.2,0.9-0.6,1.3c-0.4,0.4-0.9,0.5-1.5,0.5
		c-0.8,0-1.4-0.3-1.8-0.8c-0.4-0.5-0.6-1.1-0.6-1.9v-0.2c0-0.8,0.2-1.4,0.6-1.9c0.4-0.5,1-0.8,1.8-0.8c0.6,0,1.1,0.2,1.5,0.6
		c0.4,0.4,0.6,0.8,0.6,1.4l0,0H296c0-0.3-0.1-0.5-0.3-0.7c-0.2-0.2-0.4-0.3-0.7-0.3c-0.4,0-0.8,0.2-0.9,0.5s-0.3,0.7-0.3,1.2v0.2
		c0,0.5,0.1,0.9,0.3,1.2S294.6,82.3,295,82.3z"/>
	<path d="M301.2,83.1c0-0.1-0.1-0.3-0.1-0.4c0-0.1,0-0.3-0.1-0.4c-0.2,0.2-0.4,0.5-0.6,0.6c-0.3,0.2-0.6,0.3-0.9,0.3
		c-0.5,0-1-0.1-1.3-0.4c-0.3-0.3-0.4-0.7-0.4-1.2c0-0.5,0.2-0.9,0.6-1.2c0.4-0.3,1-0.4,1.7-0.4h0.9v-0.5c0-0.3-0.1-0.5-0.2-0.6
		s-0.4-0.2-0.7-0.2c-0.3,0-0.5,0.1-0.6,0.2s-0.2,0.3-0.2,0.5H298l0,0c0-0.4,0.2-0.8,0.6-1.1c0.4-0.3,0.9-0.5,1.5-0.5
		c0.6,0,1.1,0.2,1.5,0.5s0.6,0.8,0.6,1.3v2.3c0,0.2,0,0.4,0,0.6c0,0.2,0.1,0.4,0.1,0.6H301.2z M299.7,82.3c0.3,0,0.6-0.1,0.8-0.2
		c0.2-0.1,0.4-0.3,0.5-0.5v-0.8h-0.9c-0.3,0-0.6,0.1-0.8,0.3c-0.2,0.2-0.3,0.4-0.3,0.6c0,0.2,0.1,0.4,0.2,0.5
		C299.3,82.2,299.5,82.3,299.7,82.3z"/>
	<path d="M304.6,83.1h-1.2v-7.6h1.2V83.1z"/>
	<path d="M313.3,80.8L313.3,80.8c0,0.7-0.2,1.3-0.7,1.8c-0.5,0.5-1.1,0.7-2,0.7c-0.8,0-1.5-0.3-2-0.8c-0.5-0.6-0.8-1.3-0.8-2.1v-1.4
		c0-0.9,0.3-1.6,0.8-2.1c0.5-0.6,1.2-0.8,2-0.8c0.8,0,1.5,0.2,2,0.7c0.5,0.4,0.7,1,0.7,1.8l0,0h-1.1c0-0.5-0.1-0.9-0.4-1.1
		c-0.3-0.3-0.6-0.4-1.1-0.4c-0.5,0-0.9,0.2-1.2,0.6c-0.3,0.4-0.4,0.9-0.4,1.4v1.4c0,0.6,0.1,1.1,0.4,1.5c0.3,0.4,0.7,0.6,1.2,0.6
		c0.5,0,0.9-0.1,1.1-0.4s0.4-0.6,0.4-1.1H313.3z"/>
	<path d="M316.9,78.9l-0.5,0c-0.2,0-0.4,0-0.6,0.1c-0.2,0.1-0.3,0.2-0.4,0.4v3.7h-1.2v-5.3h1.1l0.1,0.8c0.1-0.3,0.3-0.5,0.5-0.6
		c0.2-0.2,0.5-0.2,0.7-0.2c0.1,0,0.1,0,0.2,0c0.1,0,0.1,0,0.2,0L316.9,78.9z"/>
	<path d="M319.8,83.2c-0.7,0-1.3-0.2-1.8-0.7c-0.4-0.5-0.7-1.1-0.7-1.9v-0.2c0-0.8,0.2-1.4,0.7-1.9c0.4-0.5,1-0.8,1.7-0.8
		c0.7,0,1.3,0.2,1.6,0.6c0.4,0.4,0.6,1,0.6,1.7v0.7h-3.3l0,0c0,0.4,0.1,0.8,0.4,1c0.2,0.3,0.5,0.4,0.9,0.4c0.3,0,0.6,0,0.8-0.1
		s0.4-0.2,0.7-0.3l0.4,0.8c-0.2,0.2-0.5,0.3-0.8,0.4S320.2,83.2,319.8,83.2z M319.7,78.7c-0.3,0-0.5,0.1-0.7,0.3
		c-0.2,0.2-0.3,0.5-0.4,0.9l0,0h2.1v-0.1c0-0.3-0.1-0.6-0.3-0.8C320.3,78.8,320,78.7,319.7,78.7z"/>
	<path d="M325.9,83.1c0-0.1-0.1-0.3-0.1-0.4c0-0.1,0-0.3-0.1-0.4c-0.2,0.2-0.4,0.5-0.6,0.6c-0.3,0.2-0.6,0.3-0.9,0.3
		c-0.5,0-1-0.1-1.3-0.4c-0.3-0.3-0.4-0.7-0.4-1.2c0-0.5,0.2-0.9,0.6-1.2c0.4-0.3,1-0.4,1.7-0.4h0.9v-0.5c0-0.3-0.1-0.5-0.2-0.6
		s-0.4-0.2-0.7-0.2c-0.3,0-0.5,0.1-0.6,0.2s-0.2,0.3-0.2,0.5h-1.1l0,0c0-0.4,0.2-0.8,0.6-1.1c0.4-0.3,0.9-0.5,1.5-0.5
		c0.6,0,1.1,0.2,1.5,0.5s0.6,0.8,0.6,1.3v2.3c0,0.2,0,0.4,0,0.6c0,0.2,0.1,0.4,0.1,0.6H325.9z M324.4,82.3c0.3,0,0.6-0.1,0.8-0.2
		c0.2-0.1,0.4-0.3,0.5-0.5v-0.8h-0.9c-0.3,0-0.6,0.1-0.8,0.3c-0.2,0.2-0.3,0.4-0.3,0.6c0,0.2,0.1,0.4,0.2,0.5
		C324,82.2,324.2,82.3,324.4,82.3z"/>
	<path d="M329.5,76.6v1.3h0.9v0.9h-0.9v2.9c0,0.2,0,0.4,0.1,0.5c0.1,0.1,0.2,0.1,0.4,0.1c0.1,0,0.1,0,0.2,0c0.1,0,0.1,0,0.2,0
		l0.1,0.9c-0.1,0.1-0.2,0.1-0.4,0.1c-0.1,0-0.3,0-0.4,0c-0.4,0-0.8-0.1-1-0.4c-0.2-0.3-0.4-0.7-0.4-1.2v-2.9h-0.8v-0.9h0.8v-1.3
		H329.5z"/>
	<path d="M332.5,76.5h-1.2v-1h1.2V76.5z M332.5,83.1h-1.2v-5.3h1.2V83.1z"/>
	<path d="M335.5,81.3l0.1,0.4h0l0.1-0.4l1-3.5h1.2l-1.9,5.3h-1l-1.9-5.3h1.2L335.5,81.3z"/>
	<path d="M340.7,83.2c-0.7,0-1.3-0.2-1.8-0.7c-0.4-0.5-0.7-1.1-0.7-1.9v-0.2c0-0.8,0.2-1.4,0.7-1.9c0.4-0.5,1-0.8,1.7-0.8
		c0.7,0,1.3,0.2,1.6,0.6c0.4,0.4,0.6,1,0.6,1.7v0.7h-3.3l0,0c0,0.4,0.1,0.8,0.4,1c0.2,0.3,0.5,0.4,0.9,0.4c0.3,0,0.6,0,0.8-0.1
		s0.4-0.2,0.7-0.3l0.4,0.8c-0.2,0.2-0.5,0.3-0.8,0.4S341.2,83.2,340.7,83.2z M340.6,78.7c-0.3,0-0.5,0.1-0.7,0.3
		c-0.2,0.2-0.3,0.5-0.4,0.9l0,0h2.1v-0.1c0-0.3-0.1-0.6-0.3-0.8C341.2,78.8,340.9,78.7,340.6,78.7z"/>
	<path d="M346,83.1V76h2.3c0.9,0,1.6,0.3,2.2,0.8c0.6,0.6,0.8,1.3,0.8,2.2v1.1c0,0.9-0.3,1.6-0.8,2.2c-0.6,0.6-1.3,0.8-2.2,0.8H346z
		 M347.2,77v5.2h1.1c0.6,0,1.1-0.2,1.4-0.6c0.3-0.4,0.5-0.9,0.5-1.5V79c0-0.6-0.2-1.1-0.5-1.5c-0.3-0.4-0.8-0.6-1.4-0.6H347.2z"/>
	<path d="M353.6,76.5h-1.2v-1h1.2V76.5z M353.6,83.1h-1.2v-5.3h1.2V83.1z"/>
	<path d="M357.4,78.9l-0.5,0c-0.2,0-0.4,0-0.6,0.1c-0.2,0.1-0.3,0.2-0.4,0.4v3.7h-1.2v-5.3h1.1l0.1,0.8c0.1-0.3,0.3-0.5,0.5-0.6
		c0.2-0.2,0.5-0.2,0.7-0.2c0.1,0,0.1,0,0.2,0c0.1,0,0.1,0,0.2,0L357.4,78.9z"/>
	<path d="M360.4,83.2c-0.7,0-1.3-0.2-1.8-0.7c-0.4-0.5-0.7-1.1-0.7-1.9v-0.2c0-0.8,0.2-1.4,0.7-1.9c0.4-0.5,1-0.8,1.7-0.8
		c0.7,0,1.3,0.2,1.6,0.6c0.4,0.4,0.6,1,0.6,1.7v0.7h-3.3l0,0c0,0.4,0.1,0.8,0.4,1c0.2,0.3,0.5,0.4,0.9,0.4c0.3,0,0.6,0,0.8-0.1
		s0.4-0.2,0.7-0.3l0.4,0.8c-0.2,0.2-0.5,0.3-0.8,0.4S360.8,83.2,360.4,83.2z M360.2,78.7c-0.3,0-0.5,0.1-0.7,0.3
		c-0.2,0.2-0.3,0.5-0.4,0.9l0,0h2.1v-0.1c0-0.3-0.1-0.6-0.3-0.8C360.8,78.8,360.6,78.7,360.2,78.7z"/>
	<path d="M365.5,82.3c0.3,0,0.5-0.1,0.7-0.3s0.3-0.4,0.3-0.6h1.1l0,0c0,0.5-0.2,0.9-0.6,1.3c-0.4,0.4-0.9,0.5-1.5,0.5
		c-0.8,0-1.4-0.3-1.8-0.8c-0.4-0.5-0.6-1.1-0.6-1.9v-0.2c0-0.8,0.2-1.4,0.6-1.9c0.4-0.5,1-0.8,1.8-0.8c0.6,0,1.1,0.2,1.5,0.6
		c0.4,0.4,0.6,0.8,0.6,1.4l0,0h-1.1c0-0.3-0.1-0.5-0.3-0.7c-0.2-0.2-0.4-0.3-0.7-0.3c-0.4,0-0.8,0.2-0.9,0.5s-0.3,0.7-0.3,1.2v0.2
		c0,0.5,0.1,0.9,0.3,1.2S365.1,82.3,365.5,82.3z"/>
	<path d="M370,76.6v1.3h0.9v0.9H370v2.9c0,0.2,0,0.4,0.1,0.5c0.1,0.1,0.2,0.1,0.4,0.1c0.1,0,0.1,0,0.2,0c0.1,0,0.1,0,0.2,0L371,83
		c-0.1,0.1-0.2,0.1-0.4,0.1c-0.1,0-0.3,0-0.4,0c-0.4,0-0.8-0.1-1-0.4c-0.2-0.3-0.4-0.7-0.4-1.2v-2.9H368v-0.9h0.8v-1.3H370z"/>
	<path d="M371.5,80.4c0-0.8,0.2-1.4,0.6-1.9c0.4-0.5,1-0.8,1.8-0.8c0.8,0,1.4,0.3,1.8,0.8c0.4,0.5,0.6,1.1,0.6,1.9v0.1
		c0,0.8-0.2,1.4-0.6,1.9c-0.4,0.5-1,0.7-1.8,0.7c-0.8,0-1.3-0.3-1.8-0.8c-0.4-0.5-0.6-1.1-0.6-1.9V80.4z M372.7,80.5
		c0,0.5,0.1,0.9,0.3,1.3c0.2,0.3,0.5,0.5,0.9,0.5c0.4,0,0.7-0.2,0.9-0.5c0.2-0.3,0.3-0.7,0.3-1.3v-0.1c0-0.5-0.1-0.9-0.3-1.2
		c-0.2-0.3-0.5-0.5-0.9-0.5c-0.4,0-0.7,0.2-0.9,0.5c-0.2,0.3-0.3,0.7-0.3,1.2V80.5z"/>
	<path d="M379.9,78.9l-0.5,0c-0.2,0-0.4,0-0.6,0.1c-0.2,0.1-0.3,0.2-0.4,0.4v3.7h-1.2v-5.3h1.1l0.1,0.8c0.1-0.3,0.3-0.5,0.5-0.6
		c0.2-0.2,0.5-0.2,0.7-0.2c0.1,0,0.1,0,0.2,0c0.1,0,0.1,0,0.2,0L379.9,78.9z"/>
	<path d="M302.2,92.3c0.3,0,0.5-0.1,0.7-0.3s0.3-0.4,0.3-0.6h1.1l0,0c0,0.5-0.2,0.9-0.6,1.3c-0.4,0.4-0.9,0.5-1.5,0.5
		c-0.8,0-1.4-0.3-1.8-0.8c-0.4-0.5-0.6-1.1-0.6-1.9v-0.2c0-0.8,0.2-1.4,0.6-1.9c0.4-0.5,1-0.8,1.8-0.8c0.6,0,1.1,0.2,1.5,0.6
		c0.4,0.4,0.6,0.8,0.6,1.4l0,0h-1.1c0-0.3-0.1-0.5-0.3-0.7c-0.2-0.2-0.4-0.3-0.7-0.3c-0.4,0-0.8,0.2-0.9,0.5s-0.3,0.7-0.3,1.2v0.2
		c0,0.5,0.1,0.9,0.3,1.2S301.8,92.3,302.2,92.3z"/>
	<path d="M306.4,88.5c0.2-0.2,0.4-0.4,0.6-0.6c0.3-0.1,0.5-0.2,0.8-0.2c0.6,0,1,0.2,1.3,0.5c0.3,0.4,0.5,0.9,0.5,1.6v3.2h-1.2v-3.2
		c0-0.4-0.1-0.7-0.2-0.9s-0.4-0.3-0.7-0.3c-0.2,0-0.4,0-0.6,0.1c-0.2,0.1-0.3,0.2-0.5,0.4v3.9h-1.2v-7.6h1.2V88.5z"/>
	<path d="M313.4,88.9l-0.5,0c-0.2,0-0.4,0-0.6,0.1c-0.2,0.1-0.3,0.2-0.4,0.4v3.7h-1.2v-5.3h1.1l0.1,0.8c0.1-0.3,0.3-0.5,0.5-0.6
		c0.2-0.2,0.5-0.2,0.7-0.2c0.1,0,0.1,0,0.2,0c0.1,0,0.1,0,0.2,0L313.4,88.9z"/>
	<path d="M315.4,86.5h-1.2v-1h1.2V86.5z M315.4,93.1h-1.2v-5.3h1.2V93.1z"/>
	<path d="M319.6,91.7c0-0.2-0.1-0.3-0.2-0.5s-0.4-0.2-0.9-0.3c-0.6-0.1-1.1-0.3-1.4-0.6c-0.3-0.2-0.5-0.6-0.5-1
		c0-0.4,0.2-0.8,0.6-1.1s0.9-0.5,1.5-0.5c0.6,0,1.2,0.2,1.5,0.5c0.4,0.3,0.6,0.7,0.5,1.2l0,0h-1.1c0-0.2-0.1-0.4-0.2-0.6
		s-0.4-0.2-0.7-0.2c-0.3,0-0.5,0.1-0.7,0.2c-0.1,0.1-0.2,0.3-0.2,0.5s0.1,0.3,0.2,0.4c0.1,0.1,0.4,0.2,0.9,0.3
		c0.7,0.1,1.2,0.3,1.5,0.6c0.3,0.2,0.5,0.6,0.5,1c0,0.5-0.2,0.9-0.6,1.2c-0.4,0.3-0.9,0.4-1.5,0.4c-0.7,0-1.2-0.2-1.6-0.5
		s-0.6-0.8-0.6-1.2l0,0h1.1c0,0.3,0.1,0.5,0.3,0.7s0.5,0.2,0.8,0.2c0.3,0,0.5-0.1,0.7-0.2S319.6,91.9,319.6,91.7z"/>
	<path d="M323.2,86.6v1.3h0.9v0.9h-0.9v2.9c0,0.2,0,0.4,0.1,0.5c0.1,0.1,0.2,0.1,0.4,0.1c0.1,0,0.1,0,0.2,0c0.1,0,0.1,0,0.2,0
		l0.1,0.9c-0.1,0.1-0.2,0.1-0.4,0.1c-0.1,0-0.3,0-0.4,0c-0.4,0-0.8-0.1-1-0.4c-0.2-0.3-0.4-0.7-0.4-1.2v-2.9h-0.8v-0.9h0.8v-1.3
		H323.2z"/>
	<path d="M326.2,86.5H325v-1h1.2V86.5z M326.2,93.1H325v-5.3h1.2V93.1z"/>
	<path d="M330.6,93.1c0-0.1-0.1-0.3-0.1-0.4c0-0.1,0-0.3-0.1-0.4c-0.2,0.2-0.4,0.5-0.6,0.6c-0.3,0.2-0.6,0.3-0.9,0.3
		c-0.5,0-1-0.1-1.3-0.4c-0.3-0.3-0.4-0.7-0.4-1.2c0-0.5,0.2-0.9,0.6-1.2c0.4-0.3,1-0.4,1.7-0.4h0.9v-0.5c0-0.3-0.1-0.5-0.2-0.6
		s-0.4-0.2-0.7-0.2c-0.3,0-0.5,0.1-0.6,0.2s-0.2,0.3-0.2,0.5h-1.1l0,0c0-0.4,0.2-0.8,0.6-1.1c0.4-0.3,0.9-0.5,1.5-0.5
		c0.6,0,1.1,0.2,1.5,0.5s0.6,0.8,0.6,1.3v2.3c0,0.2,0,0.4,0,0.6c0,0.2,0.1,0.4,0.1,0.6H330.6z M329.1,92.3c0.3,0,0.6-0.1,0.8-0.2
		c0.2-0.1,0.4-0.3,0.5-0.5v-0.8h-0.9c-0.3,0-0.6,0.1-0.8,0.3c-0.2,0.2-0.3,0.4-0.3,0.6c0,0.2,0.1,0.4,0.2,0.5
		C328.7,92.2,328.9,92.3,329.1,92.3z"/>
	<path d="M333.8,87.8l0.1,0.8c0.2-0.3,0.4-0.5,0.7-0.6c0.3-0.2,0.6-0.2,0.9-0.2c0.5,0,1,0.2,1.3,0.5c0.3,0.3,0.5,0.9,0.5,1.6v3.3
		H336v-3.3c0-0.4-0.1-0.7-0.2-0.8c-0.2-0.2-0.4-0.3-0.8-0.3c-0.2,0-0.4,0.1-0.6,0.2c-0.2,0.1-0.3,0.2-0.4,0.4v3.8h-1.2v-5.3H333.8z"
		/>
	<path d="M339.6,93.1h-1.2V92h1.2V93.1z"/>
	<path d="M342.2,93.1H341v-7.6h1.2V93.1z"/>
	<path d="M346.5,93.1c0-0.1-0.1-0.3-0.1-0.4c0-0.1,0-0.3-0.1-0.4c-0.2,0.2-0.4,0.5-0.6,0.6c-0.3,0.2-0.6,0.3-0.9,0.3
		c-0.5,0-1-0.1-1.3-0.4c-0.3-0.3-0.4-0.7-0.4-1.2c0-0.5,0.2-0.9,0.6-1.2c0.4-0.3,1-0.4,1.7-0.4h0.9v-0.5c0-0.3-0.1-0.5-0.2-0.6
		s-0.4-0.2-0.7-0.2c-0.3,0-0.5,0.1-0.6,0.2s-0.2,0.3-0.2,0.5h-1.1l0,0c0-0.4,0.2-0.8,0.6-1.1c0.4-0.3,0.9-0.5,1.5-0.5
		c0.6,0,1.1,0.2,1.5,0.5s0.6,0.8,0.6,1.3v2.3c0,0.2,0,0.4,0,0.6c0,0.2,0.1,0.4,0.1,0.6H346.5z M345.1,92.3c0.3,0,0.6-0.1,0.8-0.2
		c0.2-0.1,0.4-0.3,0.5-0.5v-0.8h-0.9c-0.3,0-0.6,0.1-0.8,0.3c-0.2,0.2-0.3,0.4-0.3,0.6c0,0.2,0.1,0.4,0.2,0.5
		C344.6,92.2,344.8,92.3,345.1,92.3z"/>
	<path d="M349.8,87.8l0.1,0.8c0.2-0.3,0.4-0.5,0.7-0.6c0.3-0.2,0.6-0.2,0.9-0.2c0.5,0,1,0.2,1.3,0.5c0.3,0.3,0.5,0.9,0.5,1.6v3.3
		h-1.2v-3.3c0-0.4-0.1-0.7-0.2-0.8c-0.2-0.2-0.4-0.3-0.8-0.3c-0.2,0-0.4,0.1-0.6,0.2c-0.2,0.1-0.3,0.2-0.4,0.4v3.8h-1.2v-5.3H349.8z
		"/>
	<path d="M354,90.6c0-0.8,0.2-1.5,0.5-2c0.4-0.5,0.9-0.8,1.5-0.8c0.3,0,0.5,0.1,0.8,0.2c0.2,0.1,0.4,0.3,0.6,0.5v-2.9h1.2v7.6h-1
		l-0.1-0.7c-0.2,0.2-0.4,0.4-0.6,0.6c-0.2,0.1-0.5,0.2-0.8,0.2c-0.6,0-1.2-0.2-1.5-0.7s-0.5-1.1-0.5-1.9V90.6z M355.2,90.7
		c0,0.5,0.1,0.9,0.3,1.2c0.2,0.3,0.5,0.4,0.9,0.4c0.3,0,0.5-0.1,0.6-0.2c0.2-0.1,0.3-0.3,0.4-0.5v-2.3c-0.1-0.2-0.3-0.3-0.4-0.5
		c-0.2-0.1-0.4-0.2-0.6-0.2c-0.4,0-0.7,0.2-0.9,0.5c-0.2,0.3-0.3,0.8-0.3,1.3V90.7z"/>
	<path d="M359.6,90.6c0-0.8,0.2-1.5,0.6-2s0.9-0.8,1.5-0.8c0.3,0,0.6,0.1,0.8,0.2c0.2,0.1,0.4,0.3,0.6,0.6l0.1-0.7h1v5.3
		c0,0.7-0.2,1.2-0.6,1.6s-1,0.6-1.8,0.6c-0.3,0-0.5,0-0.8-0.1c-0.3-0.1-0.6-0.2-0.8-0.3l0.3-0.9c0.2,0.1,0.4,0.2,0.6,0.2
		c0.2,0.1,0.5,0.1,0.7,0.1c0.4,0,0.7-0.1,0.9-0.3c0.2-0.2,0.3-0.5,0.3-0.8v-0.5c-0.2,0.2-0.4,0.4-0.6,0.5c-0.2,0.1-0.5,0.2-0.8,0.2
		c-0.6,0-1.2-0.2-1.5-0.7s-0.6-1.1-0.6-1.9V90.6z M360.8,90.7c0,0.5,0.1,0.9,0.3,1.2c0.2,0.3,0.5,0.4,0.9,0.4c0.3,0,0.5-0.1,0.6-0.2
		c0.2-0.1,0.3-0.3,0.4-0.5v-2.3c-0.1-0.2-0.3-0.3-0.4-0.5c-0.2-0.1-0.4-0.2-0.6-0.2c-0.4,0-0.7,0.2-0.9,0.5
		c-0.2,0.3-0.3,0.8-0.3,1.3V90.7z"/>
	<path d="M368,88.9l-0.5,0c-0.2,0-0.4,0-0.6,0.1c-0.2,0.1-0.3,0.2-0.4,0.4v3.7h-1.2v-5.3h1.1l0.1,0.8c0.1-0.3,0.3-0.5,0.5-0.6
		c0.2-0.2,0.5-0.2,0.7-0.2c0.1,0,0.1,0,0.2,0c0.1,0,0.1,0,0.2,0L368,88.9z"/>
	<path d="M371,93.2c-0.7,0-1.3-0.2-1.8-0.7c-0.4-0.5-0.7-1.1-0.7-1.9v-0.2c0-0.8,0.2-1.4,0.7-1.9c0.4-0.5,1-0.8,1.7-0.8
		c0.7,0,1.3,0.2,1.6,0.6c0.4,0.4,0.6,1,0.6,1.7v0.7h-3.3l0,0c0,0.4,0.1,0.8,0.4,1c0.2,0.3,0.5,0.4,0.9,0.4c0.3,0,0.6,0,0.8-0.1
		s0.4-0.2,0.7-0.3l0.4,0.8c-0.2,0.2-0.5,0.3-0.8,0.4S371.4,93.2,371,93.2z M370.8,88.7c-0.3,0-0.5,0.1-0.7,0.3
		c-0.2,0.2-0.3,0.5-0.4,0.9l0,0h2.1v-0.1c0-0.3-0.1-0.6-0.3-0.8C371.4,88.8,371.2,88.7,370.8,88.7z"/>
	<path d="M375,87.8l0.1,0.8c0.2-0.3,0.4-0.5,0.7-0.6c0.3-0.2,0.6-0.2,0.9-0.2c0.5,0,1,0.2,1.3,0.5c0.3,0.3,0.5,0.9,0.5,1.6v3.3h-1.2
		v-3.3c0-0.4-0.1-0.7-0.2-0.8c-0.2-0.2-0.4-0.3-0.8-0.3c-0.2,0-0.4,0.1-0.6,0.2c-0.2,0.1-0.3,0.2-0.4,0.4v3.8h-1.2v-5.3H375z"/>
	<path d="M387.4,90.6c0,0.7-0.2,1.3-0.6,1.8s-0.9,0.8-1.7,0.8c-0.2,0-0.5-0.1-0.6-0.2c-0.2-0.1-0.3-0.3-0.4-0.6
		c-0.2,0.3-0.3,0.5-0.6,0.6c-0.2,0.1-0.5,0.2-0.8,0.2c-0.4,0-0.8-0.2-1-0.6c-0.2-0.4-0.3-0.9-0.3-1.5c0.1-0.8,0.3-1.5,0.7-2
		c0.4-0.5,0.8-0.8,1.4-0.8c0.4,0,0.6,0,0.9,0.1c0.2,0.1,0.5,0.2,0.7,0.4l0,0h0l-0.2,2.8c0,0.3,0,0.6,0.1,0.7s0.2,0.2,0.3,0.2
		c0.4,0,0.7-0.2,0.9-0.5c0.2-0.4,0.4-0.8,0.4-1.4c0.1-1.2-0.2-2.1-0.7-2.8s-1.3-1-2.4-1c-1,0-1.8,0.4-2.4,1.1
		c-0.6,0.7-0.9,1.7-1,2.9c-0.1,1.2,0.2,2.1,0.7,2.8c0.5,0.7,1.3,1,2.3,1c0.3,0,0.6,0,0.9-0.1s0.5-0.2,0.8-0.3l0.2,0.6
		c-0.2,0.1-0.5,0.2-0.8,0.3c-0.3,0.1-0.7,0.1-1,0.1c-1.3,0-2.2-0.4-2.9-1.2c-0.7-0.8-1-1.9-0.9-3.3c0.1-1.4,0.5-2.5,1.2-3.3
		s1.8-1.3,3-1.3c1.2,0,2.2,0.4,2.9,1.2S387.4,89.3,387.4,90.6z M382.5,91.1c0,0.4,0,0.8,0.1,1s0.3,0.3,0.5,0.3c0.2,0,0.4,0,0.5-0.1
		c0.2-0.1,0.3-0.2,0.4-0.4c0,0,0-0.1,0-0.1c0,0,0-0.1,0-0.1l0.2-2.5c-0.1,0-0.2-0.1-0.2-0.1c-0.1,0-0.2,0-0.3,0
		c-0.4,0-0.7,0.2-0.9,0.5C382.7,89.9,382.5,90.4,382.5,91.1z"/>
	<path d="M389.7,86.5h-1.2v-1h1.2V86.5z M389.7,93.1h-1.2v-5.3h1.2V93.1z"/>
	<path d="M392.3,86.6v1.3h0.9v0.9h-0.9v2.9c0,0.2,0,0.4,0.1,0.5c0.1,0.1,0.2,0.1,0.4,0.1c0.1,0,0.1,0,0.2,0c0.1,0,0.1,0,0.2,0
		l0.1,0.9c-0.1,0.1-0.2,0.1-0.4,0.1c-0.1,0-0.3,0-0.4,0c-0.4,0-0.8-0.1-1-0.4c-0.2-0.3-0.4-0.7-0.4-1.2v-2.9h-0.8v-0.9h0.8v-1.3
		H392.3z"/>
	<path d="M396.3,93.2c-0.7,0-1.3-0.2-1.8-0.7c-0.4-0.5-0.7-1.1-0.7-1.9v-0.2c0-0.8,0.2-1.4,0.7-1.9c0.4-0.5,1-0.8,1.7-0.8
		c0.7,0,1.3,0.2,1.6,0.6c0.4,0.4,0.6,1,0.6,1.7v0.7H395l0,0c0,0.4,0.1,0.8,0.4,1c0.2,0.3,0.5,0.4,0.9,0.4c0.3,0,0.6,0,0.8-0.1
		s0.4-0.2,0.7-0.3l0.4,0.8c-0.2,0.2-0.5,0.3-0.8,0.4S396.7,93.2,396.3,93.2z M396.1,88.7c-0.3,0-0.5,0.1-0.7,0.3
		c-0.2,0.2-0.3,0.5-0.4,0.9l0,0h2.1v-0.1c0-0.3-0.1-0.6-0.3-0.8C396.7,88.8,396.5,88.7,396.1,88.7z"/>
	<path d="M402.4,93.1c0-0.1-0.1-0.3-0.1-0.4c0-0.1,0-0.3-0.1-0.4c-0.2,0.2-0.4,0.5-0.6,0.6c-0.3,0.2-0.6,0.3-0.9,0.3
		c-0.5,0-1-0.1-1.3-0.4c-0.3-0.3-0.4-0.7-0.4-1.2c0-0.5,0.2-0.9,0.6-1.2c0.4-0.3,1-0.4,1.7-0.4h0.9v-0.5c0-0.3-0.1-0.5-0.2-0.6
		s-0.4-0.2-0.7-0.2c-0.3,0-0.5,0.1-0.6,0.2s-0.2,0.3-0.2,0.5h-1.1l0,0c0-0.4,0.2-0.8,0.6-1.1c0.4-0.3,0.9-0.5,1.5-0.5
		c0.6,0,1.1,0.2,1.5,0.5s0.6,0.8,0.6,1.3v2.3c0,0.2,0,0.4,0,0.6c0,0.2,0.1,0.4,0.1,0.6H402.4z M400.9,92.3c0.3,0,0.6-0.1,0.8-0.2
		c0.2-0.1,0.4-0.3,0.5-0.5v-0.8h-0.9c-0.3,0-0.6,0.1-0.8,0.3c-0.2,0.2-0.3,0.4-0.3,0.6c0,0.2,0.1,0.4,0.2,0.5
		C400.5,92.2,400.7,92.3,400.9,92.3z"/>
	<path d="M405.6,87.8l0.1,0.7c0.2-0.3,0.4-0.4,0.6-0.6s0.6-0.2,0.9-0.2c0.3,0,0.6,0.1,0.9,0.2s0.4,0.4,0.6,0.7
		c0.2-0.3,0.4-0.5,0.6-0.7s0.6-0.2,0.9-0.2c0.5,0,1,0.2,1.3,0.5c0.3,0.4,0.5,0.9,0.5,1.7v3.2h-1.2v-3.2c0-0.4-0.1-0.8-0.2-0.9
		c-0.2-0.2-0.4-0.3-0.7-0.3c-0.3,0-0.5,0.1-0.6,0.2s-0.3,0.3-0.4,0.6c0,0,0,0.1,0,0.1s0,0.1,0,0.1v3.4h-1.2v-3.2
		c0-0.4-0.1-0.7-0.2-0.9c-0.2-0.2-0.4-0.3-0.7-0.3c-0.2,0-0.4,0-0.6,0.1c-0.2,0.1-0.3,0.2-0.4,0.4v3.9h-1.2v-5.3H405.6z"/>
	<path d="M414.4,93.1h-1.2V92h1.2V93.1z"/>
	<path d="M418.7,91.7c0-0.2-0.1-0.3-0.2-0.5s-0.4-0.2-0.9-0.3c-0.6-0.1-1.1-0.3-1.4-0.6c-0.3-0.2-0.5-0.6-0.5-1
		c0-0.4,0.2-0.8,0.6-1.1s0.9-0.5,1.5-0.5c0.6,0,1.2,0.2,1.5,0.5c0.4,0.3,0.6,0.7,0.5,1.2l0,0h-1.1c0-0.2-0.1-0.4-0.2-0.6
		s-0.4-0.2-0.7-0.2c-0.3,0-0.5,0.1-0.7,0.2c-0.1,0.1-0.2,0.3-0.2,0.5s0.1,0.3,0.2,0.4c0.1,0.1,0.4,0.2,0.9,0.3
		c0.7,0.1,1.2,0.3,1.5,0.6c0.3,0.2,0.5,0.6,0.5,1c0,0.5-0.2,0.9-0.6,1.2c-0.4,0.3-0.9,0.4-1.5,0.4c-0.7,0-1.2-0.2-1.6-0.5
		s-0.6-0.8-0.6-1.2l0,0h1.1c0,0.3,0.1,0.5,0.3,0.7s0.5,0.2,0.8,0.2c0.3,0,0.5-0.1,0.7-0.2S418.7,91.9,418.7,91.7z"/>
	<path d="M423,93.2c-0.7,0-1.3-0.2-1.8-0.7c-0.4-0.5-0.7-1.1-0.7-1.9v-0.2c0-0.8,0.2-1.4,0.7-1.9c0.4-0.5,1-0.8,1.7-0.8
		c0.7,0,1.3,0.2,1.6,0.6c0.4,0.4,0.6,1,0.6,1.7v0.7h-3.3l0,0c0,0.4,0.1,0.8,0.4,1c0.2,0.3,0.5,0.4,0.9,0.4c0.3,0,0.6,0,0.8-0.1
		s0.4-0.2,0.7-0.3l0.4,0.8c-0.2,0.2-0.5,0.3-0.8,0.4S423.5,93.2,423,93.2z M422.9,88.7c-0.3,0-0.5,0.1-0.7,0.3
		c-0.2,0.2-0.3,0.5-0.4,0.9l0,0h2.1v-0.1c0-0.3-0.1-0.6-0.3-0.8C423.5,88.8,423.2,88.7,422.9,88.7z"/>
	<path d="M302.8,99.2h1.9v1.1h-1.9v2.1h-1.2v-2.1h-1.9v-1.1h1.9v-2h1.2V99.2z"/>
	<path d="M309.5,100.6h0.9v1h-0.9v1.6h-1.2v-1.6h-3.1l0-0.7l3-4.8h1.2V100.6z M306.4,100.6h1.9v-2.9l0,0l-0.1,0.2L306.4,100.6z"/>
	<path d="M313.9,95.9c0.3,0,0.5,0,0.7,0.1c0.2,0.1,0.4,0.1,0.6,0.2l-0.2,0.9c-0.2-0.1-0.4-0.1-0.5-0.2c-0.2,0-0.4-0.1-0.6-0.1
		c-0.5,0-0.9,0.2-1.1,0.6c-0.3,0.4-0.4,0.9-0.4,1.5v0c0.2-0.2,0.4-0.3,0.7-0.4c0.3-0.1,0.5-0.1,0.9-0.1c0.6,0,1.1,0.2,1.5,0.7
		c0.4,0.4,0.6,1,0.6,1.7c0,0.7-0.2,1.3-0.6,1.8s-1,0.7-1.7,0.7c-0.7,0-1.3-0.3-1.8-0.8c-0.5-0.5-0.7-1.2-0.7-2.1V99
		c0-0.9,0.3-1.7,0.8-2.2C312.5,96.2,313.1,95.9,313.9,95.9z M313.6,99.3c-0.3,0-0.6,0.1-0.8,0.2s-0.4,0.2-0.5,0.4v0.5
		c0,0.6,0.1,1.1,0.4,1.4c0.2,0.3,0.6,0.5,0.9,0.5c0.3,0,0.6-0.1,0.8-0.4s0.3-0.7,0.3-1.1c0-0.4-0.1-0.8-0.3-1S314,99.3,313.6,99.3z"
		/>
	<path d="M323.6,97c-0.8,1-1.4,1.8-1.7,2.6s-0.5,1.7-0.6,2.8l-0.1,0.8h-1.2l0.1-0.8c0.1-1.1,0.4-2,0.8-2.9c0.4-0.9,0.9-1.7,1.6-2.5
		h-3.8v-1h4.9V97z"/>
	<path d="M329,100.4c0,0.9-0.2,1.6-0.6,2.1s-1,0.7-1.7,0.7c-0.7,0-1.3-0.2-1.7-0.7s-0.6-1.2-0.6-2.1v-1.6c0-0.9,0.2-1.6,0.6-2.1
		s1-0.7,1.7-0.7c0.7,0,1.3,0.2,1.7,0.7s0.6,1.2,0.6,2.1V100.4z M327.8,98.6c0-0.6-0.1-1-0.3-1.3c-0.2-0.3-0.5-0.4-0.9-0.4
		s-0.7,0.1-0.9,0.4c-0.2,0.3-0.3,0.7-0.3,1.3v2c0,0.6,0.1,1,0.3,1.3c0.2,0.3,0.5,0.4,0.9,0.4s0.7-0.1,0.8-0.4
		c0.2-0.3,0.3-0.7,0.3-1.3V98.6z"/>
	<path d="M334.6,97c-0.8,1-1.4,1.8-1.7,2.6s-0.5,1.7-0.6,2.8l-0.1,0.8h-1.2l0.1-0.8c0.1-1.1,0.4-2,0.8-2.9c0.4-0.9,0.9-1.7,1.6-2.5
		h-3.8v-1h4.9V97z"/>
	<path d="M342.4,97c-0.8,1-1.4,1.8-1.7,2.6s-0.5,1.7-0.6,2.8l-0.1,0.8h-1.2l0.1-0.8c0.1-1.1,0.4-2,0.8-2.9c0.4-0.9,0.9-1.7,1.6-2.5
		h-3.8v-1h4.9V97z"/>
	<path d="M343.2,99.9l0.4-3.9h3.8v1h-2.8l-0.2,1.8c0.1-0.1,0.3-0.2,0.5-0.3c0.2-0.1,0.4-0.1,0.6-0.1c0.7,0,1.2,0.2,1.6,0.6
		s0.6,1,0.6,1.8c0,0.7-0.2,1.3-0.6,1.7s-1,0.7-1.7,0.7c-0.6,0-1.2-0.2-1.6-0.5c-0.4-0.3-0.6-0.8-0.6-1.5l0,0l1.1,0
		c0,0.3,0.1,0.6,0.3,0.8c0.2,0.2,0.5,0.3,0.8,0.3c0.4,0,0.6-0.1,0.8-0.4c0.2-0.3,0.3-0.6,0.3-1c0-0.4-0.1-0.8-0.3-1
		c-0.2-0.3-0.5-0.4-0.8-0.4c-0.3,0-0.6,0.1-0.7,0.2c-0.2,0.1-0.3,0.3-0.3,0.5L343.2,99.9z"/>
	<path d="M348.7,99.9l0.4-3.9h3.8v1h-2.8l-0.2,1.8c0.1-0.1,0.3-0.2,0.5-0.3c0.2-0.1,0.4-0.1,0.6-0.1c0.7,0,1.2,0.2,1.6,0.6
		s0.6,1,0.6,1.8c0,0.7-0.2,1.3-0.6,1.7s-1,0.7-1.7,0.7c-0.6,0-1.2-0.2-1.6-0.5c-0.4-0.3-0.6-0.8-0.6-1.5l0,0l1.1,0
		c0,0.3,0.1,0.6,0.3,0.8c0.2,0.2,0.5,0.3,0.8,0.3c0.4,0,0.6-0.1,0.8-0.4c0.2-0.3,0.3-0.6,0.3-1c0-0.4-0.1-0.8-0.3-1
		c-0.2-0.3-0.5-0.4-0.8-0.4c-0.3,0-0.6,0.1-0.7,0.2c-0.2,0.1-0.3,0.3-0.3,0.5L348.7,99.9z"/>
	<path d="M360.8,97.9c0,0.4-0.1,0.7-0.3,1s-0.5,0.5-0.8,0.6c0.4,0.1,0.7,0.4,0.9,0.7c0.2,0.3,0.3,0.6,0.3,1c0,0.7-0.2,1.2-0.7,1.5
		c-0.4,0.3-1,0.5-1.7,0.5c-0.7,0-1.3-0.2-1.7-0.5c-0.4-0.4-0.7-0.9-0.7-1.5c0-0.4,0.1-0.7,0.3-1c0.2-0.3,0.5-0.5,0.9-0.7
		c-0.3-0.1-0.6-0.4-0.8-0.6c-0.2-0.3-0.3-0.6-0.3-1c0-0.6,0.2-1.1,0.6-1.5c0.4-0.3,0.9-0.5,1.6-0.5c0.6,0,1.2,0.2,1.6,0.5
		C360.6,96.8,360.8,97.3,360.8,97.9z M359.8,101.1c0-0.3-0.1-0.6-0.3-0.8c-0.2-0.2-0.5-0.3-0.9-0.3c-0.4,0-0.6,0.1-0.9,0.3
		c-0.2,0.2-0.3,0.5-0.3,0.8c0,0.4,0.1,0.6,0.3,0.8c0.2,0.2,0.5,0.3,0.9,0.3c0.3,0,0.6-0.1,0.8-0.3S359.8,101.5,359.8,101.1z
		 M359.6,97.9c0-0.3-0.1-0.6-0.3-0.8c-0.2-0.2-0.4-0.3-0.7-0.3c-0.3,0-0.5,0.1-0.7,0.3c-0.2,0.2-0.3,0.5-0.3,0.8
		c0,0.3,0.1,0.6,0.3,0.8c0.2,0.2,0.4,0.3,0.7,0.3c0.3,0,0.5-0.1,0.7-0.3C359.5,98.5,359.6,98.3,359.6,97.9z"/>
	<path d="M363.3,99h0.8c0.4,0,0.7-0.1,0.8-0.3c0.2-0.2,0.3-0.5,0.3-0.8c0-0.3-0.1-0.6-0.3-0.8c-0.2-0.2-0.5-0.3-0.8-0.3
		c-0.3,0-0.6,0.1-0.8,0.3c-0.2,0.2-0.3,0.4-0.3,0.7h-1.1l0,0c0-0.5,0.2-1,0.6-1.4c0.4-0.4,1-0.6,1.6-0.6c0.7,0,1.2,0.2,1.7,0.5
		s0.6,0.9,0.6,1.5c0,0.3-0.1,0.6-0.3,0.9s-0.4,0.5-0.8,0.7c0.4,0.1,0.7,0.4,0.9,0.7c0.2,0.3,0.3,0.6,0.3,1c0,0.7-0.2,1.2-0.7,1.5
		c-0.4,0.4-1,0.6-1.7,0.6c-0.7,0-1.2-0.2-1.7-0.5c-0.4-0.4-0.7-0.8-0.6-1.5l0,0h1.1c0,0.3,0.1,0.6,0.3,0.8s0.5,0.3,0.8,0.3
		c0.4,0,0.7-0.1,0.9-0.3s0.3-0.5,0.3-0.8c0-0.4-0.1-0.7-0.3-0.9c-0.2-0.2-0.5-0.3-0.9-0.3h-0.8V99z"/>
	<path d="M370.2,103.1H369v-6h-1.4v-0.9l2.6-0.3V103.1z"/>
	<path d="M301.5,123.1h-1.2V116h1.2V123.1z"/>
	<path d="M304.3,116.6v1.3h0.9v0.9h-0.9v2.9c0,0.2,0,0.4,0.1,0.5c0.1,0.1,0.2,0.1,0.4,0.1c0.1,0,0.1,0,0.2,0c0.1,0,0.1,0,0.2,0
		l0.1,0.9c-0.1,0.1-0.2,0.1-0.4,0.1c-0.1,0-0.3,0-0.4,0c-0.4,0-0.8-0.1-1-0.4c-0.2-0.3-0.4-0.7-0.4-1.2v-2.9h-0.8v-0.9h0.8v-1.3
		H304.3z"/>
	<path d="M308.2,123.2c-0.7,0-1.3-0.2-1.8-0.7c-0.4-0.5-0.7-1.1-0.7-1.9v-0.2c0-0.8,0.2-1.4,0.7-1.9c0.4-0.5,1-0.8,1.7-0.8
		c0.7,0,1.3,0.2,1.6,0.6c0.4,0.4,0.6,1,0.6,1.7v0.7H307l0,0c0,0.4,0.1,0.8,0.4,1c0.2,0.3,0.5,0.4,0.9,0.4c0.3,0,0.6,0,0.8-0.1
		s0.4-0.2,0.7-0.3l0.4,0.8c-0.2,0.2-0.5,0.3-0.8,0.4S308.6,123.2,308.2,123.2z M308.1,118.7c-0.3,0-0.5,0.1-0.7,0.3
		c-0.2,0.2-0.3,0.5-0.4,0.9l0,0h2.1v-0.1c0-0.3-0.1-0.6-0.3-0.8C308.7,118.8,308.4,118.7,308.1,118.7z"/>
	<path d="M314.3,123.1c0-0.1-0.1-0.3-0.1-0.4c0-0.1,0-0.3-0.1-0.4c-0.2,0.2-0.4,0.5-0.6,0.6c-0.3,0.2-0.6,0.3-0.9,0.3
		c-0.5,0-1-0.1-1.3-0.4c-0.3-0.3-0.4-0.7-0.4-1.2c0-0.5,0.2-0.9,0.6-1.2c0.4-0.3,1-0.4,1.7-0.4h0.9v-0.5c0-0.3-0.1-0.5-0.2-0.6
		s-0.4-0.2-0.7-0.2c-0.3,0-0.5,0.1-0.6,0.2s-0.2,0.3-0.2,0.5h-1.1l0,0c0-0.4,0.2-0.8,0.6-1.1c0.4-0.3,0.9-0.5,1.5-0.5
		c0.6,0,1.1,0.2,1.5,0.5s0.6,0.8,0.6,1.3v2.3c0,0.2,0,0.4,0,0.6c0,0.2,0.1,0.4,0.1,0.6H314.3z M312.8,122.3c0.3,0,0.6-0.1,0.8-0.2
		c0.2-0.1,0.4-0.3,0.5-0.5v-0.8h-0.9c-0.3,0-0.6,0.1-0.8,0.3c-0.2,0.2-0.3,0.4-0.3,0.6c0,0.2,0.1,0.4,0.2,0.5
		C312.4,122.2,312.6,122.3,312.8,122.3z"/>
	<path d="M317.5,117.8l0.1,0.7c0.2-0.3,0.4-0.4,0.6-0.6s0.6-0.2,0.9-0.2c0.3,0,0.6,0.1,0.9,0.2s0.4,0.4,0.6,0.7
		c0.2-0.3,0.4-0.5,0.6-0.7s0.6-0.2,0.9-0.2c0.5,0,1,0.2,1.3,0.5c0.3,0.4,0.5,0.9,0.5,1.7v3.2h-1.2v-3.2c0-0.4-0.1-0.8-0.2-0.9
		c-0.2-0.2-0.4-0.3-0.7-0.3c-0.3,0-0.5,0.1-0.6,0.2s-0.3,0.3-0.4,0.6c0,0,0,0.1,0,0.1s0,0.1,0,0.1v3.4h-1.2v-3.2
		c0-0.4-0.1-0.7-0.2-0.9c-0.2-0.2-0.4-0.3-0.7-0.3c-0.2,0-0.4,0-0.6,0.1c-0.2,0.1-0.3,0.2-0.4,0.4v3.9h-1.2v-5.3H317.5z"/>
	<path d="M269,127h-2.1v6.2h-1.2V127h-2.1v-1h5.5V127z"/>
	<path d="M271.1,133.2c-0.7,0-1.3-0.2-1.8-0.7c-0.4-0.5-0.7-1.1-0.7-1.9v-0.2c0-0.8,0.2-1.4,0.7-1.9c0.4-0.5,1-0.8,1.7-0.8
		c0.7,0,1.3,0.2,1.6,0.6c0.4,0.4,0.6,1,0.6,1.7v0.7h-3.3l0,0c0,0.4,0.1,0.8,0.4,1c0.2,0.3,0.5,0.4,0.9,0.4c0.3,0,0.6,0,0.8-0.1
		s0.4-0.2,0.7-0.3l0.4,0.8c-0.2,0.2-0.5,0.3-0.8,0.4S271.5,133.2,271.1,133.2z M270.9,128.7c-0.3,0-0.5,0.1-0.7,0.3
		c-0.2,0.2-0.3,0.5-0.4,0.9l0,0h2.1v-0.1c0-0.3-0.1-0.6-0.3-0.8C271.5,128.8,271.3,128.7,270.9,128.7z"/>
	<path d="M273.8,130.6c0-0.8,0.2-1.5,0.6-2s0.9-0.8,1.5-0.8c0.3,0,0.6,0.1,0.8,0.2c0.2,0.1,0.4,0.3,0.6,0.6l0.1-0.7h1v5.3
		c0,0.7-0.2,1.2-0.6,1.6s-1,0.6-1.8,0.6c-0.3,0-0.5,0-0.8-0.1c-0.3-0.1-0.6-0.2-0.8-0.3l0.3-0.9c0.2,0.1,0.4,0.2,0.6,0.2
		c0.2,0.1,0.5,0.1,0.7,0.1c0.4,0,0.7-0.1,0.9-0.3c0.2-0.2,0.3-0.5,0.3-0.8v-0.5c-0.2,0.2-0.4,0.4-0.6,0.5c-0.2,0.1-0.5,0.2-0.8,0.2
		c-0.6,0-1.2-0.2-1.5-0.7s-0.6-1.1-0.6-1.9V130.6z M275,130.7c0,0.5,0.1,0.9,0.3,1.2c0.2,0.3,0.5,0.4,0.9,0.4c0.3,0,0.5-0.1,0.6-0.2
		c0.2-0.1,0.3-0.3,0.4-0.5v-2.3c-0.1-0.2-0.3-0.3-0.4-0.5c-0.2-0.1-0.4-0.2-0.6-0.2c-0.4,0-0.7,0.2-0.9,0.5
		c-0.2,0.3-0.3,0.8-0.3,1.3V130.7z"/>
	<path d="M280.7,127.8l0.1,0.8c0.2-0.3,0.4-0.5,0.7-0.6c0.3-0.2,0.6-0.2,0.9-0.2c0.5,0,1,0.2,1.3,0.5c0.3,0.3,0.5,0.9,0.5,1.6v3.3
		h-1.2v-3.3c0-0.4-0.1-0.7-0.2-0.8c-0.2-0.2-0.4-0.3-0.8-0.3c-0.2,0-0.4,0.1-0.6,0.2c-0.2,0.1-0.3,0.2-0.4,0.4v3.8h-1.2v-5.3H280.7z
		"/>
	<path d="M287.4,133.2c-0.7,0-1.3-0.2-1.8-0.7c-0.4-0.5-0.7-1.1-0.7-1.9v-0.2c0-0.8,0.2-1.4,0.7-1.9c0.4-0.5,1-0.8,1.7-0.8
		c0.7,0,1.3,0.2,1.6,0.6c0.4,0.4,0.6,1,0.6,1.7v0.7h-3.3l0,0c0,0.4,0.1,0.8,0.4,1c0.2,0.3,0.5,0.4,0.9,0.4c0.3,0,0.6,0,0.8-0.1
		s0.4-0.2,0.7-0.3l0.4,0.8c-0.2,0.2-0.5,0.3-0.8,0.4S287.9,133.2,287.4,133.2z M287.3,128.7c-0.3,0-0.5,0.1-0.7,0.3
		c-0.2,0.2-0.3,0.5-0.4,0.9l0,0h2.1v-0.1c0-0.3-0.1-0.6-0.3-0.8C287.9,128.8,287.6,128.7,287.3,128.7z M287.6,125.8h1.3l0,0
		l-1.3,1.3h-0.9L287.6,125.8z"/>
	<path d="M293.1,128.9l-0.5,0c-0.2,0-0.4,0-0.6,0.1c-0.2,0.1-0.3,0.2-0.4,0.4v3.7h-1.2v-5.3h1.1l0.1,0.8c0.1-0.3,0.3-0.5,0.5-0.6
		c0.2-0.2,0.5-0.2,0.7-0.2c0.1,0,0.1,0,0.2,0c0.1,0,0.1,0,0.2,0L293.1,128.9z"/>
	<path d="M293.5,130.6c0-0.8,0.2-1.5,0.6-2s0.9-0.8,1.5-0.8c0.3,0,0.6,0.1,0.8,0.2c0.2,0.1,0.4,0.3,0.6,0.6l0.1-0.7h1v5.3
		c0,0.7-0.2,1.2-0.6,1.6s-1,0.6-1.8,0.6c-0.3,0-0.5,0-0.8-0.1c-0.3-0.1-0.6-0.2-0.8-0.3l0.3-0.9c0.2,0.1,0.4,0.2,0.6,0.2
		c0.2,0.1,0.5,0.1,0.7,0.1c0.4,0,0.7-0.1,0.9-0.3c0.2-0.2,0.3-0.5,0.3-0.8v-0.5c-0.2,0.2-0.4,0.4-0.6,0.5c-0.2,0.1-0.5,0.2-0.8,0.2
		c-0.6,0-1.2-0.2-1.5-0.7s-0.6-1.1-0.6-1.9V130.6z M294.7,130.7c0,0.5,0.1,0.9,0.3,1.2c0.2,0.3,0.5,0.4,0.9,0.4
		c0.3,0,0.5-0.1,0.6-0.2c0.2-0.1,0.3-0.3,0.4-0.5v-2.3c-0.1-0.2-0.3-0.3-0.4-0.5c-0.2-0.1-0.4-0.2-0.6-0.2c-0.4,0-0.7,0.2-0.9,0.5
		c-0.2,0.3-0.3,0.8-0.3,1.3V130.7z"/>
	<path d="M302.5,133.1c0-0.1-0.1-0.3-0.1-0.4c0-0.1,0-0.3-0.1-0.4c-0.2,0.2-0.4,0.5-0.6,0.6c-0.3,0.2-0.6,0.3-0.9,0.3
		c-0.5,0-1-0.1-1.3-0.4c-0.3-0.3-0.4-0.7-0.4-1.2c0-0.5,0.2-0.9,0.6-1.2c0.4-0.3,1-0.4,1.7-0.4h0.9v-0.5c0-0.3-0.1-0.5-0.2-0.6
		s-0.4-0.2-0.7-0.2c-0.3,0-0.5,0.1-0.6,0.2s-0.2,0.3-0.2,0.5h-1.1l0,0c0-0.4,0.2-0.8,0.6-1.1c0.4-0.3,0.9-0.5,1.5-0.5
		c0.6,0,1.1,0.2,1.5,0.5s0.6,0.8,0.6,1.3v2.3c0,0.2,0,0.4,0,0.6c0,0.2,0.1,0.4,0.1,0.6H302.5z M301,132.3c0.3,0,0.6-0.1,0.8-0.2
		c0.2-0.1,0.4-0.3,0.5-0.5v-0.8h-0.9c-0.3,0-0.6,0.1-0.8,0.3c-0.2,0.2-0.3,0.4-0.3,0.6c0,0.2,0.1,0.4,0.2,0.5
		C300.6,132.2,300.8,132.3,301,132.3z"/>
	<path d="M306.1,126.6v1.3h0.9v0.9h-0.9v2.9c0,0.2,0,0.4,0.1,0.5c0.1,0.1,0.2,0.1,0.4,0.1c0.1,0,0.1,0,0.2,0c0.1,0,0.1,0,0.2,0
		l0.1,0.9c-0.1,0.1-0.2,0.1-0.4,0.1c-0.1,0-0.3,0-0.4,0c-0.4,0-0.8-0.1-1-0.4c-0.2-0.3-0.4-0.7-0.4-1.2v-2.9h-0.8v-0.9h0.8v-1.3
		H306.1z"/>
	<path d="M311.1,133.1c0-0.1-0.1-0.3-0.1-0.4c0-0.1,0-0.3-0.1-0.4c-0.2,0.2-0.4,0.5-0.6,0.6c-0.3,0.2-0.6,0.3-0.9,0.3
		c-0.5,0-1-0.1-1.3-0.4c-0.3-0.3-0.4-0.7-0.4-1.2c0-0.5,0.2-0.9,0.6-1.2c0.4-0.3,1-0.4,1.7-0.4h0.9v-0.5c0-0.3-0.1-0.5-0.2-0.6
		s-0.4-0.2-0.7-0.2c-0.3,0-0.5,0.1-0.6,0.2s-0.2,0.3-0.2,0.5h-1.1l0,0c0-0.4,0.2-0.8,0.6-1.1c0.4-0.3,0.9-0.5,1.5-0.5
		c0.6,0,1.1,0.2,1.5,0.5s0.6,0.8,0.6,1.3v2.3c0,0.2,0,0.4,0,0.6c0,0.2,0.1,0.4,0.1,0.6H311.1z M309.6,132.3c0.3,0,0.6-0.1,0.8-0.2
		c0.2-0.1,0.4-0.3,0.5-0.5v-0.8H310c-0.3,0-0.6,0.1-0.8,0.3c-0.2,0.2-0.3,0.4-0.3,0.6c0,0.2,0.1,0.4,0.2,0.5
		C309.2,132.2,309.4,132.3,309.6,132.3z"/>
	<path d="M314.3,127.8l0.1,0.8c0.2-0.3,0.4-0.5,0.7-0.6c0.3-0.2,0.6-0.2,0.9-0.2c0.5,0,1,0.2,1.3,0.5c0.3,0.3,0.5,0.9,0.5,1.6v3.3
		h-1.2v-3.3c0-0.4-0.1-0.7-0.2-0.8c-0.2-0.2-0.4-0.3-0.8-0.3c-0.2,0-0.4,0.1-0.6,0.2c-0.2,0.1-0.3,0.2-0.4,0.4v3.8h-1.2v-5.3H314.3z
		"/>
	<path d="M325.6,133.1h-4.7v-0.8l2.3-2.5c0.4-0.4,0.6-0.8,0.8-1c0.1-0.3,0.2-0.5,0.2-0.8c0-0.3-0.1-0.6-0.3-0.8s-0.4-0.3-0.8-0.3
		c-0.4,0-0.7,0.1-0.9,0.4s-0.3,0.6-0.3,1h-1.1l0,0c0-0.6,0.2-1.2,0.6-1.6c0.4-0.4,1-0.6,1.8-0.6c0.7,0,1.2,0.2,1.6,0.6
		s0.6,0.9,0.6,1.5c0,0.4-0.1,0.8-0.3,1.2c-0.2,0.4-0.6,0.8-1.1,1.4l-1.6,1.7l0,0h3.2V133.1z"/>
	<path d="M331,127.9c0,0.4-0.1,0.7-0.3,1s-0.5,0.5-0.8,0.6c0.4,0.1,0.7,0.4,0.9,0.7c0.2,0.3,0.3,0.6,0.3,1c0,0.7-0.2,1.2-0.7,1.5
		c-0.4,0.3-1,0.5-1.7,0.5c-0.7,0-1.3-0.2-1.7-0.5c-0.4-0.4-0.7-0.9-0.7-1.5c0-0.4,0.1-0.7,0.3-1c0.2-0.3,0.5-0.5,0.9-0.7
		c-0.3-0.1-0.6-0.4-0.8-0.6c-0.2-0.3-0.3-0.6-0.3-1c0-0.6,0.2-1.1,0.6-1.5c0.4-0.3,0.9-0.5,1.6-0.5c0.6,0,1.2,0.2,1.6,0.5
		C330.7,126.8,331,127.3,331,127.9z M329.9,131.1c0-0.3-0.1-0.6-0.3-0.8c-0.2-0.2-0.5-0.3-0.9-0.3c-0.4,0-0.6,0.1-0.9,0.3
		c-0.2,0.2-0.3,0.5-0.3,0.8c0,0.4,0.1,0.6,0.3,0.8c0.2,0.2,0.5,0.3,0.9,0.3c0.3,0,0.6-0.1,0.8-0.3S329.9,131.5,329.9,131.1z
		 M329.8,127.9c0-0.3-0.1-0.6-0.3-0.8c-0.2-0.2-0.4-0.3-0.7-0.3c-0.3,0-0.5,0.1-0.7,0.3c-0.2,0.2-0.3,0.5-0.3,0.8
		c0,0.3,0.1,0.6,0.3,0.8c0.2,0.2,0.4,0.3,0.7,0.3c0.3,0,0.5-0.1,0.7-0.3C329.7,128.5,329.8,128.3,329.8,127.9z"/>
	<path d="M266.9,143.1h-1.2v-6h-1.4v-0.9l2.6-0.3V143.1z"/>
	<path d="M271.4,143.1h-1.2v-6h-1.4v-0.9l2.6-0.3V143.1z"/>
	<path d="M274.7,139h0.8c0.4,0,0.7-0.1,0.8-0.3c0.2-0.2,0.3-0.5,0.3-0.8c0-0.3-0.1-0.6-0.3-0.8c-0.2-0.2-0.5-0.3-0.8-0.3
		c-0.3,0-0.6,0.1-0.8,0.3c-0.2,0.2-0.3,0.4-0.3,0.7h-1.1l0,0c0-0.5,0.2-1,0.6-1.4c0.4-0.4,1-0.6,1.6-0.6c0.7,0,1.2,0.2,1.7,0.5
		s0.6,0.9,0.6,1.5c0,0.3-0.1,0.6-0.3,0.9s-0.4,0.5-0.8,0.7c0.4,0.1,0.7,0.4,0.9,0.7c0.2,0.3,0.3,0.6,0.3,1c0,0.7-0.2,1.2-0.7,1.5
		c-0.4,0.4-1,0.6-1.7,0.6c-0.7,0-1.2-0.2-1.7-0.5c-0.4-0.4-0.7-0.8-0.6-1.5l0,0h1.1c0,0.3,0.1,0.6,0.3,0.8s0.5,0.3,0.8,0.3
		c0.4,0,0.7-0.1,0.9-0.3s0.3-0.5,0.3-0.8c0-0.4-0.1-0.7-0.3-0.9c-0.2-0.2-0.5-0.3-0.9-0.3h-0.8V139z"/>
	<path d="M285.8,143.1h-4.7v-0.8l2.3-2.5c0.4-0.4,0.6-0.8,0.8-1c0.1-0.3,0.2-0.5,0.2-0.8c0-0.3-0.1-0.6-0.3-0.8s-0.4-0.3-0.8-0.3
		c-0.4,0-0.7,0.1-0.9,0.4s-0.3,0.6-0.3,1H281l0,0c0-0.6,0.2-1.2,0.6-1.6c0.4-0.4,1-0.6,1.8-0.6c0.7,0,1.2,0.2,1.6,0.6
		s0.6,0.9,0.6,1.5c0,0.4-0.1,0.8-0.3,1.2c-0.2,0.4-0.6,0.8-1.1,1.4l-1.6,1.7l0,0h3.2V143.1z"/>
	<path d="M288.6,142.3c0.4,0,0.8-0.2,1-0.5s0.4-0.8,0.4-1.4v-0.3c-0.2,0.2-0.4,0.4-0.6,0.5c-0.2,0.1-0.5,0.2-0.8,0.2
		c-0.7,0-1.2-0.2-1.6-0.6c-0.4-0.4-0.6-1-0.6-1.8c0-0.7,0.2-1.3,0.7-1.8c0.4-0.5,1-0.7,1.6-0.7c0.7,0,1.3,0.2,1.8,0.7
		c0.4,0.5,0.7,1.2,0.7,2.1v1.7c0,0.9-0.2,1.6-0.7,2.1c-0.5,0.5-1.1,0.7-1.9,0.7c-0.2,0-0.5,0-0.8-0.1c-0.3,0-0.5-0.1-0.7-0.2
		l0.2-0.9c0.2,0.1,0.4,0.2,0.6,0.2S288.3,142.3,288.6,142.3z M288.8,139.8c0.3,0,0.5-0.1,0.8-0.2s0.4-0.3,0.5-0.5v-0.6
		c0-0.6-0.1-1-0.3-1.3c-0.2-0.3-0.5-0.4-0.9-0.4c-0.3,0-0.6,0.1-0.8,0.4c-0.2,0.3-0.3,0.6-0.3,1.1c0,0.4,0.1,0.8,0.3,1.1
		C288.2,139.7,288.4,139.8,288.8,139.8z"/>
	<path d="M298.5,141.3c0-0.3-0.1-0.5-0.3-0.7c-0.2-0.2-0.6-0.4-1.2-0.5c-0.8-0.2-1.4-0.5-1.8-0.8c-0.4-0.3-0.6-0.8-0.6-1.4
		c0-0.6,0.2-1,0.7-1.4c0.5-0.4,1.1-0.6,1.8-0.6c0.8,0,1.4,0.2,1.9,0.6c0.5,0.4,0.7,0.9,0.7,1.5l0,0h-1.1c0-0.4-0.1-0.7-0.4-0.9
		c-0.2-0.2-0.6-0.3-1.1-0.3c-0.4,0-0.8,0.1-1,0.3c-0.2,0.2-0.3,0.4-0.3,0.7c0,0.3,0.1,0.5,0.4,0.7c0.3,0.2,0.7,0.3,1.3,0.5
		c0.8,0.2,1.3,0.5,1.7,0.8s0.6,0.8,0.6,1.4c0,0.6-0.2,1.1-0.7,1.4c-0.5,0.3-1.1,0.5-1.9,0.5c-0.7,0-1.4-0.2-2-0.6
		c-0.6-0.4-0.8-0.9-0.8-1.6l0,0h1.1c0,0.4,0.1,0.8,0.4,1c0.3,0.2,0.7,0.3,1.2,0.3c0.4,0,0.8-0.1,1-0.3S298.5,141.6,298.5,141.3z"/>
	<path d="M302.3,136.6v1.3h0.9v0.9h-0.9v2.9c0,0.2,0,0.4,0.1,0.5c0.1,0.1,0.2,0.1,0.4,0.1c0.1,0,0.1,0,0.2,0c0.1,0,0.1,0,0.2,0
		l0.1,0.9c-0.1,0.1-0.2,0.1-0.4,0.1c-0.1,0-0.3,0-0.4,0c-0.4,0-0.8-0.1-1-0.4c-0.2-0.3-0.4-0.7-0.4-1.2v-2.9h-0.8v-0.9h0.8v-1.3
		H302.3z"/>
	<path d="M303.7,140.4c0-0.8,0.2-1.4,0.6-1.9c0.4-0.5,1-0.8,1.8-0.8c0.8,0,1.4,0.3,1.8,0.8c0.4,0.5,0.6,1.1,0.6,1.9v0.1
		c0,0.8-0.2,1.4-0.6,1.9c-0.4,0.5-1,0.7-1.8,0.7c-0.8,0-1.3-0.3-1.8-0.8c-0.4-0.5-0.6-1.1-0.6-1.9V140.4z M304.9,140.5
		c0,0.5,0.1,0.9,0.3,1.3c0.2,0.3,0.5,0.5,0.9,0.5c0.4,0,0.7-0.2,0.9-0.5c0.2-0.3,0.3-0.7,0.3-1.3v-0.1c0-0.5-0.1-0.9-0.3-1.2
		c-0.2-0.3-0.5-0.5-0.9-0.5c-0.4,0-0.7,0.2-0.9,0.5c-0.2,0.3-0.3,0.7-0.3,1.2V140.5z"/>
	<path d="M311.7,142.3c0.3,0,0.5-0.1,0.7-0.3s0.3-0.4,0.3-0.6h1.1l0,0c0,0.5-0.2,0.9-0.6,1.3c-0.4,0.4-0.9,0.5-1.5,0.5
		c-0.8,0-1.4-0.3-1.8-0.8c-0.4-0.5-0.6-1.1-0.6-1.9v-0.2c0-0.8,0.2-1.4,0.6-1.9c0.4-0.5,1-0.8,1.8-0.8c0.6,0,1.1,0.2,1.5,0.6
		c0.4,0.4,0.6,0.8,0.6,1.4l0,0h-1.1c0-0.3-0.1-0.5-0.3-0.7c-0.2-0.2-0.4-0.3-0.7-0.3c-0.4,0-0.8,0.2-0.9,0.5s-0.3,0.7-0.3,1.2v0.2
		c0,0.5,0.1,0.9,0.3,1.2S311.2,142.3,311.7,142.3z"/>
	<path d="M316.4,140.8h-0.5v2.3h-1.2v-7.6h1.2v4.4h0.5l1.3-2h1.4l-1.7,2.4l2,2.9H318L316.4,140.8z"/>
	<path d="M321.1,138.5c0.2-0.2,0.4-0.4,0.6-0.6c0.3-0.1,0.5-0.2,0.8-0.2c0.6,0,1,0.2,1.3,0.5c0.3,0.4,0.5,0.9,0.5,1.6v3.2h-1.2v-3.2
		c0-0.4-0.1-0.7-0.2-0.9s-0.4-0.3-0.7-0.3c-0.2,0-0.4,0-0.6,0.1c-0.2,0.1-0.3,0.2-0.5,0.4v3.9h-1.2v-7.6h1.2V138.5z"/>
	<path d="M325.3,140.4c0-0.8,0.2-1.4,0.6-1.9c0.4-0.5,1-0.8,1.8-0.8c0.8,0,1.4,0.3,1.8,0.8c0.4,0.5,0.6,1.1,0.6,1.9v0.1
		c0,0.8-0.2,1.4-0.6,1.9c-0.4,0.5-1,0.7-1.8,0.7c-0.8,0-1.3-0.3-1.8-0.8c-0.4-0.5-0.6-1.1-0.6-1.9V140.4z M326.4,140.5
		c0,0.5,0.1,0.9,0.3,1.3c0.2,0.3,0.5,0.5,0.9,0.5c0.4,0,0.7-0.2,0.9-0.5c0.2-0.3,0.3-0.7,0.3-1.3v-0.1c0-0.5-0.1-0.9-0.3-1.2
		c-0.2-0.3-0.5-0.5-0.9-0.5c-0.4,0-0.7,0.2-0.9,0.5c-0.2,0.3-0.3,0.7-0.3,1.2V140.5z"/>
	<path d="M332.3,143.1h-1.2v-7.6h1.2V143.1z"/>
	<path d="M334.5,137.8l0.1,0.7c0.2-0.3,0.4-0.4,0.6-0.6s0.6-0.2,0.9-0.2c0.3,0,0.6,0.1,0.9,0.2s0.4,0.4,0.6,0.7
		c0.2-0.3,0.4-0.5,0.6-0.7s0.6-0.2,0.9-0.2c0.5,0,1,0.2,1.3,0.5c0.3,0.4,0.5,0.9,0.5,1.7v3.2h-1.2v-3.2c0-0.4-0.1-0.8-0.2-0.9
		c-0.2-0.2-0.4-0.3-0.7-0.3c-0.3,0-0.5,0.1-0.6,0.2s-0.3,0.3-0.4,0.6c0,0,0,0.1,0,0.1s0,0.1,0,0.1v3.4h-1.2v-3.2
		c0-0.4-0.1-0.7-0.2-0.9c-0.2-0.2-0.4-0.3-0.7-0.3c-0.2,0-0.4,0-0.6,0.1c-0.2,0.1-0.3,0.2-0.4,0.4v3.9h-1.2v-5.3H334.5z"/>
	<path d="M343.3,143l-0.8,1.5h-0.8l0.3-1.6v-1h1.2V143z"/>
	<path d="M350.5,141.3c0-0.3-0.1-0.5-0.3-0.7c-0.2-0.2-0.6-0.4-1.2-0.5c-0.8-0.2-1.4-0.5-1.8-0.8c-0.4-0.3-0.6-0.8-0.6-1.4
		c0-0.6,0.2-1,0.7-1.4c0.5-0.4,1.1-0.6,1.8-0.6c0.8,0,1.4,0.2,1.9,0.6c0.5,0.4,0.7,0.9,0.7,1.5l0,0h-1.1c0-0.4-0.1-0.7-0.4-0.9
		c-0.2-0.2-0.6-0.3-1.1-0.3c-0.4,0-0.8,0.1-1,0.3c-0.2,0.2-0.3,0.4-0.3,0.7c0,0.3,0.1,0.5,0.4,0.7c0.3,0.2,0.7,0.3,1.3,0.5
		c0.8,0.2,1.3,0.5,1.7,0.8s0.6,0.8,0.6,1.4c0,0.6-0.2,1.1-0.7,1.4c-0.5,0.3-1.1,0.5-1.9,0.5c-0.7,0-1.4-0.2-2-0.6
		c-0.6-0.4-0.8-0.9-0.8-1.6l0,0h1.1c0,0.4,0.1,0.8,0.4,1c0.3,0.2,0.7,0.3,1.2,0.3c0.4,0,0.8-0.1,1-0.3S350.5,141.6,350.5,141.3z"/>
	<path d="M357.4,141.6L357.4,141.6l0.9-3.8h1.1l-1.4,5.3h-1l-1.1-3.6l0,0l0,0l-1.1,3.6h-1l-1.4-5.3h1.1l0.8,3.7l0,0l1.1-3.7h0.9
		L357.4,141.6z"/>
	<path d="M362.2,143.2c-0.7,0-1.3-0.2-1.8-0.7c-0.4-0.5-0.7-1.1-0.7-1.9v-0.2c0-0.8,0.2-1.4,0.7-1.9c0.4-0.5,1-0.8,1.7-0.8
		c0.7,0,1.3,0.2,1.6,0.6c0.4,0.4,0.6,1,0.6,1.7v0.7H361l0,0c0,0.4,0.1,0.8,0.4,1c0.2,0.3,0.5,0.4,0.9,0.4c0.3,0,0.6,0,0.8-0.1
		s0.4-0.2,0.7-0.3l0.4,0.8c-0.2,0.2-0.5,0.3-0.8,0.4S362.6,143.2,362.2,143.2z M362.1,138.7c-0.3,0-0.5,0.1-0.7,0.3
		c-0.2,0.2-0.3,0.5-0.4,0.9l0,0h2.1v-0.1c0-0.3-0.1-0.6-0.3-0.8C362.7,138.8,362.4,138.7,362.1,138.7z"/>
	<path d="M365,140.6c0-0.8,0.2-1.5,0.5-2c0.4-0.5,0.9-0.8,1.5-0.8c0.3,0,0.5,0.1,0.8,0.2c0.2,0.1,0.4,0.3,0.6,0.5v-2.9h1.2v7.6h-1
		l-0.1-0.7c-0.2,0.2-0.4,0.4-0.6,0.6c-0.2,0.1-0.5,0.2-0.8,0.2c-0.6,0-1.2-0.2-1.5-0.7s-0.5-1.1-0.5-1.9V140.6z M366.2,140.7
		c0,0.5,0.1,0.9,0.3,1.2c0.2,0.3,0.5,0.4,0.9,0.4c0.3,0,0.5-0.1,0.6-0.2c0.2-0.1,0.3-0.3,0.4-0.5v-2.3c-0.1-0.2-0.3-0.3-0.4-0.5
		c-0.2-0.1-0.4-0.2-0.6-0.2c-0.4,0-0.7,0.2-0.9,0.5c-0.2,0.3-0.3,0.8-0.3,1.3V140.7z"/>
	<path d="M373,143.2c-0.7,0-1.3-0.2-1.8-0.7c-0.4-0.5-0.7-1.1-0.7-1.9v-0.2c0-0.8,0.2-1.4,0.7-1.9c0.4-0.5,1-0.8,1.7-0.8
		c0.7,0,1.3,0.2,1.6,0.6c0.4,0.4,0.6,1,0.6,1.7v0.7h-3.3l0,0c0,0.4,0.1,0.8,0.4,1c0.2,0.3,0.5,0.4,0.9,0.4c0.3,0,0.6,0,0.8-0.1
		s0.4-0.2,0.7-0.3l0.4,0.8c-0.2,0.2-0.5,0.3-0.8,0.4S373.4,143.2,373,143.2z M372.9,138.7c-0.3,0-0.5,0.1-0.7,0.3
		c-0.2,0.2-0.3,0.5-0.4,0.9l0,0h2.1v-0.1c0-0.3-0.1-0.6-0.3-0.8C373.5,138.8,373.2,138.7,372.9,138.7z"/>
	<path d="M377.1,137.8l0.1,0.8c0.2-0.3,0.4-0.5,0.7-0.6c0.3-0.2,0.6-0.2,0.9-0.2c0.5,0,1,0.2,1.3,0.5c0.3,0.3,0.5,0.9,0.5,1.6v3.3
		h-1.2v-3.3c0-0.4-0.1-0.7-0.2-0.8c-0.2-0.2-0.4-0.3-0.8-0.3c-0.2,0-0.4,0.1-0.6,0.2c-0.2,0.1-0.3,0.2-0.4,0.4v3.8H376v-5.3H377.1z"
		/>
</g>
</svg>
