<?xml version="1.0" encoding="utf-8"?>
<!-- Generator: Adobe Illustrator 19.0.0, SVG Export Plug-In . SVG Version: 6.00 Build 0)  -->
<!DOCTYPE svg PUBLIC "-//W3C//DTD SVG 1.1//EN" "http://www.w3.org/Graphics/SVG/1.1/DTD/svg11.dtd">
<svg version="1.1" id="Layer_1" xmlns="http://www.w3.org/2000/svg" xmlns:xlink="http://www.w3.org/1999/xlink" x="0px" y="0px"
	 viewBox="-284 125.7 710 551.3" style="enable-background:new -284 125.7 710 551.3;" xml:space="preserve">
<style type="text/css">
	.st0{fill:#FFFFFF;}
</style>
<g>
	<path class="st0" d="M370.4,465.2v-0.4v-13.9v-32.7v-13.9h-13.9v0h-13.9V278.9h13.9V265h-41.8v13.9h13.9v125.3h-27.8v1.4v12.5v32.6
		V464v1.1l34.8,8.6L370.4,465.2z M314.7,418.1h13.9h13.9h13.9v36.1h0l-20.9,5.3l-20.9-5.3V418.1z"/>
	<path class="st0" d="M330.4,593.5h-15.7v-55.7h13.9v-13.9H259v13.9h13.9v55.7h-15.7l-3.5,13.9l-8.6,34.8l8.6,34.8h8.1h6.4h51.2h6.4
		h8.1l8.6-34.8l-8.6-34.8L330.4,593.5z M322.9,663.1h-58.3l-5.3-20.9l8.8-34.8h4.7h13.9v-13.9v-55.7h13.9v55.7v13.9h13.9h4.7
		l8.6,34.8L322.9,663.1z"/>
	<path class="st0" d="M-158.7,439h13.9v-13.9v-83.5V336v-8.4H-284v0v8.4v5.6v83.5V439h13.9H-158.7z M-270,341.5h111.4l0,83.5H-270
		V341.5z"/>
	<polygon class="st0" points="-270,466.8 -158.7,466.8 -158.7,473.8 -144.7,473.8 -144.7,466.8 -144.7,462.6 -144.7,452.9 
		-284,452.9 -284,462.6 -284,466.8 -284,473.8 -270,473.8 	"/>
	<polygon class="st0" points="-261.7,376.6 -234.7,383.3 -261.7,390 -261.7,404.5 -219.9,394 -219.9,372.6 -261.7,362.1 	"/>
	<rect x="-207.4" y="397.2" class="st0" width="41.8" height="13.9"/>
	<path class="st0" d="M-75.1,473.8h5.6h8.4c0,0,0-27.8,0-27.8V432v-13.9v-13.9v-13.9v-13.9v-13.9v-13.9v-13.9v-13.9v-13.9v-13.9
		v-13.9V265V251v-13.9v-13.9v-13.9v-13.9v-13.9v-13.9v-13.9v-27.8h-8.4h-5.6h-41.8h-13.9v13.9v320.2v13.9h13.9H-75.1z M-116.9,459.9
		V139.7h41.8v13.9h-13.9v13.9h13.9v13.9H-103v13.9h27.8v13.9h-13.9v13.9h13.9v13.9H-103V251h27.8V265h-13.9v13.9h13.9v13.9H-103
		v13.9h27.8v13.9h-13.9v13.9h13.9v13.9H-103v13.9h27.8v13.9h-13.9v13.9h13.9v13.9H-103v13.9h27.8V432v13.9v13.9L-116.9,459.9
		L-116.9,459.9z"/>
	<rect x="-103" y="432" class="st0" width="13.9" height="13.9"/>
	<path class="st0" d="M-33.4,581.4l-7-1.8l-20.9,5.2l-13.9-3.5v-1.7h-13.9v13.9H-103h-13.9v13.9v27.8v5.6v8.4h29.4l7,27.8h2.6h11.7
		h23.9H-32h4l8.5-34v-63.5h-13.9V581.4z M-89.1,608.8v26.5H-103v-27.8h13.9V608.8z M-33.4,641.5l-5.4,21.7h-30.9v-0.1h0l-5.4-21.7
		v-45.7l13.9,3.5l20.9-5.2l7,1.8V641.5z"/>
	<path class="st0" d="M231.1,564.3v-3.9l-13.9-3.5v-60.8h-5.6h-8.4h-13.9h-11.1h-2.8v60.8l-13.9,3.5v14.3v23.5v14.3l13.9,3.5v61h2.8
		h11.1h13.9h8.4h5.6v-60.8l13.9-3.5v-0.4v-18.8h7v-13.9h-7V564.3z M189.4,510h13.9v43.4l-7-1.7l-7,1.7V510z M203.3,663.1h-13.9
		v-43.4l7,1.7l7-1.7V663.1z M217.2,601.9l-20.9,5.3l-20.9-5.3v-30.5l20.9-5.3l20.9,5.3V601.9z"/>
	<path class="st0" d="M-214.4,496.1h-27.8h-7.8l-34,8.5v4v10.3v135.3v7.5v6.8l34,8.5h7.8h27.8h7.8l34-8.5v-6.8v-7.5V518.9v-10.3v-4
		l-34-8.5H-214.4z M-186.5,657.7l-21.7,5.4h-6.1h-27.8h-6.1l-21.7-5.4V515.4l21.7-5.4h6.1h27.8h6.1l21.7,5.4V657.7z"/>
	<rect x="-249.2" y="523.9" class="st0" width="41.8" height="13.9"/>
	<rect x="-235.2" y="635.3" class="st0" width="13.9" height="13.9"/>
	<path class="st0" d="M271.2,451l5.4-9.5l8.9-15.5l1-1.7l0.3-0.4l-18.5-18v-3.8l18.5-18l-1.7-3.1l-8.4-14.5l-7-12.1l-0.3-0.4
		l-24.8,7.1l-3.3-1.7l-6.3-25.1h-3.5h-10.9H215h-13.9h-0.4l-6.3,25.1l-3.3,1.9l-24.8-7.1l-1.7,3.1l-1.8,3.1l-3.6,6.3l-3.9,6.8
		l-0.3,0.4l-6,10.3l18.5,18v3.8l-18.5,18l1.7,3.1l0.3,0.6l3.2,5.6l4.9,8.4l1.3,2.1l2.8,4.7l2.9,5.2l0.3,0.4l24.8-7.1l3.3,1.9
		l6.3,25.1h3.5H215h5.8h13.9h0.4l6.3-25.1l3.3-1.9l24.8,7.1L271.2,451z M262.9,437.6l-1.4-0.4l-18-5.2h-0.3l-5.8,3.3l-2.4,1.4
		l-5.8,3.3v0.3l-4.5,18.1l-0.4,1.4h-12.8l-0.4-1.4l-4.5-18.1v-0.3l-5.8-3.3l-2.4-1.4l-5.8-3.3h-0.3l-18,5.2l-1.4,0.4l-6.4-11.1
		l1.1-1l13.5-12.9l0.1-0.1v-6.8v-2.8v-6.7l-0.1-0.1L167.7,383l-1.1-1l6.4-11.1l1.4,0.4l18,5.2h0.3l5.8-3.3l2.4-1.4l5.8-3.3v-0.3
		l4.5-18.1l0.4-1.4h12.8l0.4,1.4l4.6,18.4l5.8,3.3l2.4,1.4l5.8,3.3h0.3l18-5.2l1.4-0.4l6.4,11.1l-1.1,1L254.9,396l-0.1,0.1v6.7v2.8
		v6.7l0.1,0.1l13.4,12.9l1,1.1L262.9,437.6z"/>
	<polygon class="st0" points="204,396.1 204,412.3 217.9,420.2 231.8,412.3 231.8,396.1 217.9,388.2 	"/>
	<polygon class="st0" points="-137.8,589.3 -73.9,525.4 -84.9,553.8 -73.9,564.8 -54.3,505.8 -64.1,495.9 -123.2,515.7 
		-112.2,526.7 -83.6,515.5 -151.7,583.6 -151.7,585.6 -151.7,663.1 -158.7,663.1 -158.7,677 -130.8,677 -130.8,663.1 -137.8,663.1 	
		"/>
	<path class="st0" d="M76.6,418.1H78v-20.9h20.9v-13.9H78v-7h27.8v-13.9H78v-13.9h23.7h12.7h5.4V412v8.9v19.5v5.6v13.9h-3.5l-7-27.8
		h-3.5H95H22.3v-13.9H8.4v27.8h1.4h12.5h76.2l7,27.8h6h8.4h8.4h5.6v-27.8v-5.6v-22.3v-7.8v-75.7h-8.5h-4h-10.3H78v-8.4v-18.1v-1.4
		h-1.4v0H71h-95.5h-10.3h-4h-8.5v75.7v7.8v22.3v5.6v27.8h5.6h8.4h8.4h6l7-27.8h76.2H76.6z M-8.6,404.2h-10.9h-3.5l-7,27.8h-3.5
		v-13.9v-5.6V393v-8.9v-63.5h5.4h12.7h79.4v83.5h0H-8.6z"/>
	<rect x="-19.5" y="355.5" class="st0" width="69.6" height="13.9"/>
	<rect x="-19.5" y="334.6" class="st0" width="62.6" height="13.9"/>
	<rect x="-19.5" y="376.3" class="st0" width="55.7" height="13.9"/>
	<path class="st0" d="M133.7,551.7h-7v-13.9H85v13.9H57.1v-13.9H15.4v13.9h-7H4.2h-9.7V677h7h7h125.3h7h7V551.7h-7H133.7z
		 M133.7,663.1H8.4v-97.5h20.9v-13.9h13.9v13.9H85h13.9v-13.9h13.9v13.9h20.9V663.1z"/>
	<rect x="15.4" y="586.5" class="st0" width="41.8" height="13.9"/>
	<polygon class="st0" points="112.8,572.6 98.9,572.6 98.9,586.5 85,586.5 85,600.5 98.9,600.5 98.9,614.4 112.8,614.4 112.8,600.5 
		126.7,600.5 126.7,586.5 112.8,586.5 	"/>
	<path class="st0" d="M414.9,551.7h-2.8v-13.9h-41.8v13.9h-5.6h-8.4V677h2.8h11.1h41.8h11.1h2.8V551.7H414.9z M412.1,663.1h-41.8
		v-97.5h13.9v-13.9h13.9v13.9h13.9V663.1z"/>
	<polygon class="st0" points="377.3,607.8 405.2,614.8 405.2,600.5 377.3,593.5 	"/>
	<polygon class="st0" points="377.3,628.7 405.2,635.7 405.2,621.4 377.3,614.4 	"/>
	<polygon class="st0" points="377.3,649.6 405.2,656.6 405.2,642.2 377.3,635.3 	"/>
</g>
</svg>
