<?xml version="1.0" encoding="utf-8"?>
<!-- Generator: Adobe Illustrator 19.0.0, SVG Export Plug-In . SVG Version: 6.00 Build 0)  -->
<!DOCTYPE svg PUBLIC "-//W3C//DTD SVG 1.1//EN" "http://www.w3.org/Graphics/SVG/1.1/DTD/svg11.dtd">
<svg version="1.1" id="Lager_1" xmlns="http://www.w3.org/2000/svg" xmlns:xlink="http://www.w3.org/1999/xlink" x="0px" y="0px"
	 viewBox="-679.5 400.3 255.5 290" style="enable-background:new -679.5 400.3 255.5 290;" xml:space="preserve">
<g>
	<polygon points="-634.5,440.3 -649.5,440.3 -649.5,410.3 -634.5,410.3 -634.5,400.3 -674.5,400.3 -674.5,410.3 -659.5,410.3 
		-659.5,440.3 -674.5,440.3 -674.5,450.3 -634.5,450.3 	"/>
	<path d="M-666.7,620.3h24.4l2.5,10h10.3l-10-40v-10h-30v10l-10,40h10.3L-666.7,620.3z M-659.2,590.3h9.4l5,20h-19.4L-659.2,590.3z"
		/>
	<polygon points="-634.5,560.3 -664.5,560.3 -664.5,550.3 -639.5,550.3 -639.5,540.3 -664.5,540.3 -664.5,530.3 -634.5,530.3 
		-634.5,520.3 -674.5,520.3 -674.5,570.3 -634.5,570.3 	"/>
	<polygon points="-659.5,500.3 -664.5,500.3 -664.5,510.3 -644.5,510.3 -644.5,500.3 -649.5,500.3 -649.5,470.3 -634.5,470.3 
		-634.5,460.3 -674.5,460.3 -674.5,470.3 -659.5,470.3 	"/>
	<polygon points="-654.4,665.3 -654.6,665.3 -660.8,640.3 -679.5,640.3 -679.5,690.3 -669.5,690.3 -669.5,650.3 -668.7,650.3 
		-662.4,675.3 -646.6,675.3 -640.3,650.3 -639.5,650.3 -639.5,690.3 -629.5,690.3 -629.5,640.3 -648.2,640.3 	"/>
</g>
</svg>
