<?xml version="1.0" encoding="utf-8"?>
<!-- Generator: Adobe Illustrator 19.0.0, SVG Export Plug-In . SVG Version: 6.00 Build 0)  -->
<!DOCTYPE svg PUBLIC "-//W3C//DTD SVG 1.1//EN" "http://www.w3.org/Graphics/SVG/1.1/DTD/svg11.dtd">
<svg version="1.1" id="Layer_1" xmlns="http://www.w3.org/2000/svg" xmlns:xlink="http://www.w3.org/1999/xlink" x="0px" y="0px"
	 viewBox="0 0 800 800" style="enable-background:new 0 0 800 800;" xml:space="preserve">
<style type="text/css">
	.st0{fill:#FFFFFF;}
</style>
<g id="XMLID_160_">
	<path id="XMLID_5_" d="M400,798.5c-53.8,0-106-10.5-155.1-31.3c-47.5-20.1-90.1-48.8-126.7-85.4c-36.6-36.6-65.3-79.2-85.4-126.7
		C12,506,1.5,453.8,1.5,400S12,294,32.8,244.9c20.1-47.5,48.8-90.1,85.4-126.7c36.6-36.6,79.2-65.3,126.7-85.4
		C294,12,346.2,1.5,400,1.5S506,12,555.1,32.8c47.5,20.1,90.1,48.8,126.7,85.4c36.6,36.6,65.3,79.2,85.4,126.7
		C788,294,798.5,346.2,798.5,400S788,506,767.2,555.1c-20.1,47.5-48.8,90.1-85.4,126.7s-79.2,65.3-126.7,85.4
		C506,788,453.8,798.5,400,798.5z"/>
	<path id="XMLID_2_" class="st0" d="M400,3c53.6,0,105.6,10.5,154.5,31.2c47.3,20,89.7,48.6,126.2,85.1
		c36.5,36.5,65.1,78.9,85.1,126.2C786.5,294.4,797,346.4,797,400s-10.5,105.6-31.2,154.5c-20,47.3-48.6,89.7-85.1,126.2
		c-36.5,36.5-78.9,65.1-126.2,85.1C505.6,786.5,453.6,797,400,797s-105.6-10.5-154.5-31.2c-47.3-20-89.7-48.6-126.2-85.1
		c-36.5-36.5-65.1-78.9-85.1-126.2C13.5,505.6,3,453.6,3,400s10.5-105.6,31.2-154.5c20-47.3,48.6-89.7,85.1-126.2
		c36.5-36.5,78.9-65.1,126.2-85.1C294.4,13.5,346.4,3,400,3 M400,0C179.1,0,0,179.1,0,400s179.1,400,400,400s400-179.1,400-400
		S620.9,0,400,0L400,0z"/>
</g>
</svg>
