<?xml version="1.0" encoding="utf-8"?>
<!-- Generator: Adobe Illustrator 19.0.0, SVG Export Plug-In . SVG Version: 6.00 Build 0)  -->
<!DOCTYPE svg PUBLIC "-//W3C//DTD SVG 1.1//EN" "http://www.w3.org/Graphics/SVG/1.1/DTD/svg11.dtd">
<svg version="1.1" id="Lager_1" xmlns="http://www.w3.org/2000/svg" xmlns:xlink="http://www.w3.org/1999/xlink" x="0px" y="0px"
	 viewBox="-689 348 541 586" style="enable-background:new -689 348 541 586;" xml:space="preserve">
<style type="text/css">
	.st0{fill:#FFFFFF;}
</style>
<path d="M-399,934h-226V348h226V934z"/>
<g id="XMLID_99_">
	<g id="XMLID_147_">
		<polygon class="st0" points="-482,483.5 -504.5,483.5 -504.5,438.5 -482,438.5 -482,423.5 -542,423.5 -542,438.5 -519.5,438.5 
			-519.5,483.5 -542,483.5 -542,498.5 -482,498.5 		"/>
	</g>
	<g id="XMLID_142_">
		<path class="st0" d="M-530.3,753.5h36.6l3.8,15h15.5l-15-60v-15h-45v15l-15,60h15.5L-530.3,753.5z M-519,708.5h14.1l7.5,30h-29.1
			L-519,708.5z"/>
	</g>
	<g id="XMLID_141_">
		<polygon class="st0" points="-482,663.5 -527,663.5 -527,648.5 -489.5,648.5 -489.5,633.5 -527,633.5 -527,618.5 -482,618.5 
			-482,603.5 -542,603.5 -542,678.5 -482,678.5 		"/>
	</g>
	<g id="XMLID_140_">
		<polygon class="st0" points="-519.5,573.5 -527,573.5 -527,588.5 -497,588.5 -497,573.5 -504.5,573.5 -504.5,528.5 -482,528.5 
			-482,513.5 -542,513.5 -542,528.5 -519.5,528.5 		"/>
	</g>
	<g id="XMLID_100_">
		<polygon class="st0" points="-511.9,821 -512.1,821 -521.5,783.5 -549.5,783.5 -549.5,858.5 -534.5,858.5 -534.5,798.5 
			-533.2,798.5 -523.9,836 -500.1,836 -490.8,798.5 -489.5,798.5 -489.5,858.5 -474.5,858.5 -474.5,783.5 -502.5,783.5 		"/>
	</g>
</g>
<path class="st0" d="M-148,934h-226V348h226V934z"/>
<g id="XMLID_1_">
	<g id="XMLID_6_">
		<polygon points="-231,483.5 -253.5,483.5 -253.5,438.5 -231,438.5 -231,423.5 -291,423.5 -291,438.5 -268.5,438.5 -268.5,483.5 
			-291,483.5 -291,498.5 -231,498.5 		"/>
	</g>
	<g id="XMLID_5_">
		<path d="M-279.3,753.5h36.6l3.8,15h15.5l-15-60v-15h-45v15l-15,60h15.5L-279.3,753.5z M-268,708.5h14.1l7.5,30h-29.1L-268,708.5z"
			/>
	</g>
	<g id="XMLID_4_">
		<polygon points="-231,663.5 -276,663.5 -276,648.5 -238.5,648.5 -238.5,633.5 -276,633.5 -276,618.5 -231,618.5 -231,603.5 
			-291,603.5 -291,678.5 -231,678.5 		"/>
	</g>
	<g id="XMLID_3_">
		<polygon points="-268.5,573.5 -276,573.5 -276,588.5 -246,588.5 -246,573.5 -253.5,573.5 -253.5,528.5 -231,528.5 -231,513.5 
			-291,513.5 -291,528.5 -268.5,528.5 		"/>
	</g>
	<g id="XMLID_2_">
		<polygon points="-260.9,821 -261.1,821 -270.5,783.5 -298.5,783.5 -298.5,858.5 -283.5,858.5 -283.5,798.5 -282.2,798.5 
			-272.9,836 -249.1,836 -239.8,798.5 -238.5,798.5 -238.5,858.5 -223.5,858.5 -223.5,783.5 -251.5,783.5 		"/>
	</g>
</g>
</svg>
