<?xml version="1.0" encoding="utf-8"?>
<!-- Generator: Adobe Illustrator 19.0.0, SVG Export Plug-In . SVG Version: 6.00 Build 0)  -->
<!DOCTYPE svg PUBLIC "-//W3C//DTD SVG 1.1//EN" "http://www.w3.org/Graphics/SVG/1.1/DTD/svg11.dtd">
<svg version="1.1" id="Lager_1" xmlns="http://www.w3.org/2000/svg" xmlns:xlink="http://www.w3.org/1999/xlink" x="0px" y="0px"
	 viewBox="-831 496 255.5 290" style="enable-background:new -831 496 255.5 290;" xml:space="preserve">
<g>
	<polygon points="-800.7,523 -810.8,523 -810.8,502.7 -800.7,502.7 -800.7,496 -827.6,496 -827.6,502.7 -817.5,502.7 -817.5,523 
		-827.6,523 -827.6,529.7 -800.7,529.7 	"/>
	<path d="M-822.4,644.3h16.4l1.7,6.7h6.9l-6.7-27v-6.7h-20.2v6.7l-6.7,27h6.9L-822.4,644.3z M-817.3,624.1h6.3l3.4,13.5h-13.1
		L-817.3,624.1z"/>
	<polygon points="-800.7,603.9 -820.9,603.9 -820.9,597.1 -804,597.1 -804,590.4 -820.9,590.4 -820.9,583.6 -800.7,583.6 
		-800.7,576.9 -827.6,576.9 -827.6,610.6 -800.7,610.6 	"/>
	<polygon points="-817.5,563.4 -820.9,563.4 -820.9,570.2 -807.4,570.2 -807.4,563.4 -810.8,563.4 -810.8,543.2 -800.7,543.2 
		-800.7,536.4 -827.6,536.4 -827.6,543.2 -817.5,543.2 	"/>
	<polygon points="-814.1,674.6 -814.2,674.6 -818.4,657.8 -831,657.8 -831,691.5 -824.3,691.5 -824.3,664.5 -823.7,664.5 
		-819.5,681.4 -808.8,681.4 -804.6,664.5 -804,664.5 -804,691.5 -797.3,691.5 -797.3,657.8 -809.9,657.8 	"/>
</g>
</svg>
