<?xml version="1.0" encoding="utf-8"?>
<!-- Generator: Adobe Illustrator 17.0.0, SVG Export Plug-In . SVG Version: 6.00 Build 0)  -->
<!DOCTYPE svg PUBLIC "-//W3C//DTD SVG 1.1//EN" "http://www.w3.org/Graphics/SVG/1.1/DTD/svg11.dtd">
<svg version="1.1" id="Layer_1" xmlns="http://www.w3.org/2000/svg" xmlns:xlink="http://www.w3.org/1999/xlink" x="0px" y="0px"
	 width="710px" height="405.175px" viewBox="0 598.175 710 405.175" enable-background="new 0 598.175 710 405.175"
	 xml:space="preserve">
<g>
	<g>
		<rect x="389.866" y="756.601" fill="#FFFFFF" width="145.515" height="29.103"/>
	</g>
	<g>
		<rect x="389.866" y="713.09" fill="#FFFFFF" width="130.82" height="29.103"/>
	</g>
	<g>
		<rect x="389.866" y="800.111" fill="#FFFFFF" width="116.412" height="29.103"/>
	</g>
	<g>
		<path fill="#FFFFFF" d="M692.135,713.09h-8.356h-21.611h-68.58v-17.577v-37.747v-2.882h-2.882H579.18H379.493h-21.611h-8.356
			H331.66v158.194v16.425v46.68v11.526v58.206h11.526h17.577h17.577h12.39l14.407-58.206h42.646v58.206h2.882h26.222h159.058
			l14.407,58.206h12.39h17.577h17.577h11.526v-58.206v-11.526v-46.68v-16.425V713.09H692.135z M412.63,858.318h-22.764h-7.204
			l-14.407,58.206h-7.204v-29.103v-11.526v-40.629v-18.442V683.987h11.238h26.51h165.686v174.618L412.63,858.318L412.63,858.318z
			 M680.609,874.742v18.442v40.629v11.526v29.391h-7.204l-14.407-58.206h-7.204H629.03H477.175v-29.103h87.309h26.222h2.881v-43.51
			h43.511v-29.103h-43.511V800.4h58.206v-29.103h-58.206v-29.103h49.562h26.51h11.238v132.549L680.609,874.742L680.609,874.742z"/>
	</g>
</g>
<g id="XMLID_1319_">
	<g>
		<path fill="#FFFFFF" d="M50.426,918.829h66.562l6.916,27.374h28.239l-27.374-109.209V809.62H42.934v27.374L15.56,946.203h28.239
			L50.426,918.829z M70.885,836.994H96.53l13.543,54.748H57.342L70.885,836.994z"/>
	</g>
</g>
<g>
	<path fill="#38FFA1" d="M38.9,936.694c-0.864,0-2.017,0-2.881-0.288l0.288-1.441c0.864,0,1.729,0.288,2.881,0.288L38.9,936.694z
		 M42.07,936.694v-1.441c0.864,0,2.017,0,2.881-0.288l0.288,1.441C43.799,936.694,42.934,936.694,42.07,936.694z M33.137,936.118
		c-0.864-0.288-2.017-0.288-2.881-0.576l0.288-1.441c0.864,0.288,1.729,0.576,2.881,0.576L33.137,936.118z M47.833,936.118
		l-0.288-1.441c0.864-0.288,1.729-0.288,2.881-0.576l0.288,1.441C49.562,935.83,48.697,935.83,47.833,936.118z M27.663,934.677
		c-0.864-0.288-1.729-0.576-2.593-1.153l0.576-1.441c0.864,0.288,1.729,0.576,2.593,0.864L27.663,934.677z M53.308,934.677
		l-0.576-1.441c0.864-0.288,1.729-0.576,2.593-0.864l0.576,1.441C55.325,934.101,54.172,934.389,53.308,934.677z M22.188,932.372
		c-0.864-0.576-1.729-0.864-2.593-1.441l0.864-1.153c0.864,0.576,1.729,0.864,2.305,1.441L22.188,932.372z M58.783,932.372
		l-0.576-1.153c0.864-0.288,1.729-0.864,2.305-1.441l0.864,1.153C60.511,931.507,59.647,931.796,58.783,932.372z M17.289,929.49
		c-0.864-0.576-1.441-1.153-2.305-1.729l0.864-1.153c0.864,0.576,1.441,1.153,2.305,1.729L17.289,929.49z M63.681,929.202
		l-0.864-1.153c0.864-0.576,1.441-1.153,2.305-1.729l0.864,1.153C65.122,928.05,64.546,928.914,63.681,929.202z M12.679,925.744
		c-0.576-0.576-1.441-1.441-2.017-2.017l1.153-0.864c0.576,0.576,1.153,1.441,2.017,2.017L12.679,925.744z M68.292,925.744
		l-0.864-1.153c0.576-0.576,1.441-1.441,2.017-2.017l1.153,0.864C69.444,924.304,68.868,924.88,68.292,925.744z M8.933,921.422
		c-0.576-0.864-1.153-1.441-1.729-2.305l1.153-0.864c0.576,0.864,1.153,1.441,1.729,2.305L8.933,921.422z M72.037,921.134
		l-1.153-0.864c0.576-0.864,1.153-1.441,1.729-2.305l1.153,0.864C73.19,919.693,72.614,920.558,72.037,921.134z M5.763,916.524
		c-0.576-0.864-0.864-1.729-1.441-2.593l1.441-0.576c0.288,0.864,0.864,1.729,1.153,2.593L5.763,916.524z M75.207,916.524
		l-1.153-0.576c0.576-0.864,0.864-1.729,1.153-2.593l1.441,0.576C76.072,914.795,75.784,915.659,75.207,916.524z M3.17,911.337
		c-0.288-0.864-0.576-1.729-0.864-2.881l1.441-0.288c0.288,0.864,0.576,1.729,0.864,2.593L3.17,911.337z M77.8,911.049l-1.441-0.576
		c0.288-0.864,0.576-1.729,0.864-2.593l1.441,0.288C78.377,909.32,78.089,910.184,77.8,911.049z M1.441,905.574
		c-0.288-0.864-0.288-2.017-0.576-2.881l1.441-0.288c0,0.864,0.288,1.729,0.576,2.881L1.441,905.574z M79.529,905.574l-1.441-0.288
		c0.288-0.864,0.288-1.729,0.576-2.881l1.441,0.288C79.818,903.557,79.529,904.71,79.529,905.574z M0.576,899.811
		c0-0.864,0-2.017,0-2.881h1.441c0,0.864,0,2.017,0,2.881H0.576z M80.394,899.811h-1.441c0-0.864,0-1.729,0-2.881l1.441-0.288v0.288
		C80.394,897.794,80.394,898.947,80.394,899.811z M2.017,894.048H0.576c0-0.864,0.288-2.017,0.288-2.882l1.441,0.288
		C2.305,892.319,2.017,893.184,2.017,894.048z M78.665,894.048c0-0.864-0.288-1.729-0.288-2.882l1.441-0.288
		c0,0.864,0.288,2.017,0.288,2.882L78.665,894.048z M2.882,888.573l-1.441-0.288c0.288-0.864,0.576-2.017,0.864-2.882l1.441,0.288
		C3.17,886.844,3.17,887.709,2.882,888.573z M78.089,888.285c-0.288-0.864-0.576-1.729-0.864-2.593l1.441-0.288
		c0.288,0.864,0.576,1.729,0.864,2.881H78.089z M4.611,883.098l-1.441-0.576c0.288-0.864,0.864-1.729,1.153-2.593l1.441,0.576
		C5.187,881.37,4.899,882.234,4.611,883.098z M76.36,883.098c-0.288-0.864-0.576-1.729-1.153-2.593l1.441-0.576
		c0.288,0.864,0.864,1.729,1.153,2.593L76.36,883.098z M6.916,878.2l-1.153-0.576c0.576-0.864,0.864-1.729,1.441-2.593l1.153,0.864
		C7.78,876.471,7.204,877.335,6.916,878.2z M74.055,877.912c-0.576-0.864-0.864-1.729-1.441-2.305l1.153-0.864
		c0.576,0.864,1.153,1.729,1.441,2.593L74.055,877.912z M10.085,873.589l-1.153-0.864c0.576-0.864,1.153-1.441,1.729-2.305
		l1.153,0.864C11.238,871.86,10.374,872.725,10.085,873.589z M70.885,873.301c-0.576-0.864-1.153-1.441-1.729-2.017l1.153-0.864
		c0.576,0.576,1.153,1.441,1.729,2.305L70.885,873.301z M13.543,869.267l-0.864-1.153c0.576-0.576,1.441-1.441,2.305-2.017
		l0.864,1.153C14.984,868.115,14.408,868.691,13.543,869.267z M67.139,868.979c-0.576-0.576-1.441-1.153-2.017-1.729l0.864-1.153
		c0.864,0.576,1.441,1.153,2.305,2.017L67.139,868.979z M17.865,865.521l-0.864-1.153c0.864-0.576,1.729-1.153,2.305-1.729
		l0.864,1.153C19.594,864.657,18.73,865.233,17.865,865.521z M62.817,865.521c-0.864-0.576-1.441-1.153-2.305-1.441l0.864-1.153
		c0.864,0.576,1.729,1.153,2.305,1.729L62.817,865.521z M22.764,862.64l-0.576-1.153c0.864-0.576,1.729-0.864,2.593-1.153
		l0.576,1.441C24.493,861.775,23.628,862.352,22.764,862.64z M57.918,862.64c-0.864-0.288-1.729-0.864-2.593-1.153l0.576-1.441
		c0.864,0.288,1.729,0.864,2.593,1.153L57.918,862.64z M27.951,860.623l-0.576-1.441c0.864-0.288,1.729-0.576,2.881-0.864
		l0.288,1.441C29.68,860.046,28.815,860.334,27.951,860.623z M52.732,860.334c-0.864-0.288-1.729-0.576-2.593-0.864l0.288-1.441
		c0.864,0.288,2.017,0.576,2.881,0.864L52.732,860.334z M33.426,859.182l-0.288-1.441c0.864-0.288,2.017-0.288,2.881-0.288
		l0.288,1.441C35.154,858.894,34.29,858.894,33.426,859.182z M47.257,858.894c-0.864-0.288-1.729-0.288-2.881-0.288l0.288-1.441
		c0.864,0,2.017,0.288,2.881,0.288L47.257,858.894z M38.9,858.318v-1.441c0.864,0,2.017,0,2.881,0v1.441
		C40.917,858.318,39.765,858.318,38.9,858.318z"/>
</g>
<g>
	<path fill="#38FFA1" d="M388.426,936.694c-0.864,0-2.017,0-2.882-0.288l0.288-1.441c0.864,0,1.729,0.288,2.882,0.288
		L388.426,936.694z M391.307,936.694v-1.441c0.864,0,2.017,0,2.881-0.288l0.288,1.441
		C393.324,936.694,392.46,936.694,391.307,936.694z M382.663,936.118c-0.864-0.288-2.017-0.288-2.882-0.576l0.288-1.441
		c0.864,0.288,1.729,0.576,2.882,0.576L382.663,936.118z M397.07,936.118l-0.288-1.441c0.864-0.288,1.729-0.288,2.882-0.576
		l0.288,1.441C399.087,935.83,398.223,936.118,397.07,936.118z M376.9,934.677c-0.864-0.288-1.729-0.576-2.593-1.153l0.576-1.441
		c0.864,0.288,1.729,0.576,2.593,0.864L376.9,934.677z M402.833,934.677l-0.576-1.441c0.864-0.288,1.729-0.576,2.593-0.864
		l0.576,1.441C404.562,934.101,403.697,934.389,402.833,934.677z M371.713,932.372c-0.864-0.576-1.729-0.864-2.593-1.441
		l0.864-1.153c0.864,0.576,1.729,0.864,2.593,1.441L371.713,932.372z M408.02,932.372l-0.576-1.153
		c0.864-0.288,1.729-0.864,2.305-1.441l0.864,1.153C409.749,931.507,408.884,932.084,408.02,932.372z M366.814,929.49
		c-0.864-0.576-1.441-1.153-2.305-1.729l0.864-1.153c0.576,0.576,1.441,1.153,2.305,1.729L366.814,929.49z M413.206,929.49
		l-0.864-1.153c0.864-0.576,1.441-1.153,2.305-1.729l0.864,1.153C414.647,928.338,413.783,928.914,413.206,929.49z M362.204,925.744
		c-0.576-0.576-1.441-1.441-2.017-2.017l1.153-0.864c0.576,0.576,1.153,1.441,2.017,2.017L362.204,925.744z M417.529,925.744
		l-0.864-1.153c0.576-0.576,1.441-1.441,2.017-2.017l1.153,0.864C418.969,924.304,418.393,924.88,417.529,925.744z M358.458,921.422
		c-0.576-0.864-1.153-1.441-1.729-2.305l1.153-0.864c0.576,0.864,1.153,1.441,1.729,2.305L358.458,921.422z M421.563,921.422
		l-1.153-0.864c0.576-0.864,1.153-1.441,1.729-2.305l1.153,0.864C422.715,919.693,422.139,920.558,421.563,921.422z M355,916.524
		c-0.576-0.864-0.864-1.729-1.441-2.593l1.441-0.576c0.288,0.864,0.864,1.729,1.153,2.593L355,916.524z M424.732,916.524
		l-1.153-0.576c0.576-0.864,0.864-1.729,1.153-2.593l1.441,0.576C425.597,914.795,425.02,915.659,424.732,916.524z M352.695,911.337
		c-0.288-0.864-0.576-1.729-0.864-2.881l1.441-0.288c0.288,0.864,0.576,1.729,0.864,2.593L352.695,911.337z M427.038,911.049
		l-1.441-0.576c0.288-0.864,0.576-1.729,0.864-2.593l1.441,0.288C427.902,909.32,427.614,910.184,427.038,911.049z M350.966,905.574
		c-0.288-0.864-0.288-2.017-0.576-2.881l1.441-0.288c0,0.864,0.288,1.729,0.576,2.881L350.966,905.574z M428.767,905.574
		l-1.441-0.288c0.288-0.864,0.288-1.729,0.576-2.881l1.441,0.288C429.343,903.845,429.055,904.71,428.767,905.574z M350.102,899.811
		c0-0.864,0-2.017,0-2.881h1.441c0,0.864,0,2.017,0,2.881H350.102z M429.631,899.811h-1.441c0-0.864,0-1.729,0-2.881h0.864h0.576
		C429.631,897.794,429.631,898.947,429.631,899.811z M351.542,894.336h-1.441c0-0.864,0.288-2.017,0.288-2.881l1.441,0.288
		C351.542,892.319,351.542,893.184,351.542,894.336z M428.19,894.048c0-0.864-0.288-2.017-0.288-2.882l1.441-0.288
		c0,0.864,0.288,2.017,0.288,2.882L428.19,894.048z M352.407,888.573l-1.441-0.288c0.288-0.864,0.576-2.017,0.864-2.882l1.441,0.288
		C352.695,886.844,352.407,887.709,352.407,888.573z M427.326,888.285c-0.288-0.864-0.576-1.729-0.576-2.593l1.441-0.288
		c0.288,0.864,0.576,1.729,0.864,2.881H427.326z M353.848,883.386l-1.441-0.576c0.288-0.864,0.864-1.729,1.153-2.593l1.441,0.576
		C354.712,881.658,354.136,882.522,353.848,883.386z M425.885,883.098c-0.288-0.864-0.576-1.729-1.153-2.593l1.441-0.576
		c0.288,0.864,0.864,1.729,1.153,2.593L425.885,883.098z M356.153,878.2L355,877.623c0.576-0.864,0.864-1.729,1.441-2.593
		l1.153,0.864C357.305,876.471,356.729,877.335,356.153,878.2z M423.292,877.912c-0.576-0.864-0.864-1.729-1.441-2.305l1.153-0.864
		c0.576,0.864,1.153,1.729,1.441,2.593L423.292,877.912z M359.322,873.589l-1.153-0.864c0.576-0.864,1.153-1.441,1.729-2.305
		l1.153,0.864C360.475,872.149,359.899,872.725,359.322,873.589z M420.122,873.301c-0.576-0.864-1.153-1.441-1.729-2.017
		l1.153-0.864c0.576,0.576,1.153,1.441,1.729,2.305L420.122,873.301z M363.068,869.267l-0.864-1.153
		c0.576-0.576,1.441-1.441,2.305-2.017l0.864,1.153C364.509,868.115,363.645,868.691,363.068,869.267z M416.376,869.267
		c-0.576-0.576-1.441-1.153-2.017-1.729l0.864-1.153c0.864,0.576,1.441,1.153,2.305,2.017L416.376,869.267z M367.391,865.809
		l-0.864-1.153c0.864-0.576,1.729-1.153,2.305-1.729l0.864,1.153C368.831,864.657,368.255,865.233,367.391,865.809z
		 M412.054,865.521c-0.864-0.576-1.441-1.153-2.305-1.441l0.864-1.153c0.864,0.576,1.729,1.153,2.305,1.729L412.054,865.521z
		 M372.289,862.64l-0.576-1.153c0.864-0.576,1.729-0.864,2.593-1.153l0.576,1.441C373.73,862.063,372.865,862.352,372.289,862.64z
		 M407.443,862.64c-0.864-0.288-1.729-0.864-2.593-1.153l0.576-1.441c0.864,0.288,1.729,0.864,2.593,1.153L407.443,862.64z
		 M377.188,860.623l-0.576-1.441c0.864-0.288,1.729-0.576,2.882-0.864l0.288,1.441C379.205,860.046,378.34,860.334,377.188,860.623z
		 M402.257,860.334c-0.864-0.288-1.729-0.576-2.593-0.864l0.288-1.441c0.864,0.288,2.017,0.576,2.882,0.864L402.257,860.334z
		 M382.663,859.182l-0.288-1.441c0.864-0.288,2.017-0.288,2.882-0.288l0.288,1.441C384.68,858.894,383.527,858.894,382.663,859.182z
		 M396.782,859.182c-0.864-0.288-1.729-0.288-2.882-0.288l0.288-1.441c0.864,0,2.017,0.288,2.881,0.288L396.782,859.182z
		 M388.426,858.606v-1.441c0.864,0,2.017,0,2.882,0v1.441C390.154,858.318,389.29,858.318,388.426,858.606z"/>
</g>
<g>
	<path fill="#38FFA1" d="M346.068,897.506h-2.882v-1.441h2.882V897.506z M340.305,897.506h-2.882v-1.441h2.882V897.506z
		 M334.542,897.506h-2.882v-1.441h2.882V897.506z M328.779,897.506h-2.881v-1.441h2.881V897.506z M323.016,897.506h-2.882v-1.441
		h2.882V897.506z M317.253,897.506h-2.881v-1.441h2.881V897.506z M311.49,897.506h-2.882v-1.441h2.882V897.506z M305.727,897.506
		h-2.882v-1.441h2.882V897.506z M299.964,897.506h-2.882v-1.441h2.882V897.506z M294.201,897.506h-2.882v-1.441h2.882V897.506z
		 M288.438,897.506h-2.882v-1.441h2.882V897.506z M282.675,897.506h-2.882v-1.441h2.882V897.506z M276.912,897.506h-2.881v-1.441
		h2.881V897.506z M271.149,897.506h-2.882v-1.441h2.882V897.506z M265.386,897.506h-2.881v-1.441h2.881V897.506z M259.623,897.506
		h-2.882v-1.441h2.882V897.506z M253.86,897.506h-2.881v-1.441h2.881V897.506z M248.097,897.506h-2.881v-1.441h2.881V897.506z
		 M242.334,897.506h-2.881v-1.441h2.881V897.506z M236.571,897.506h-2.882v-1.441h2.882V897.506z M230.808,897.506h-2.882v-1.441
		h2.882V897.506z M225.045,897.506h-2.882v-1.441h2.882V897.506z M219.282,897.506H216.4v-1.441h2.882V897.506z M213.519,897.506
		h-2.881v-1.441h2.881V897.506z M207.756,897.506h-2.881v-1.441h2.881V897.506z M201.993,897.506h-2.881v-1.441h2.881V897.506z
		 M196.23,897.506h-2.881v-1.441h2.881V897.506z M190.467,897.506h-2.882v-1.441h2.882V897.506z M184.704,897.506h-2.882v-1.441
		h2.882V897.506z M178.941,897.506h-2.882v-1.441h2.882V897.506z M173.178,897.506h-2.882v-1.441h2.882V897.506z M167.415,897.506
		h-2.881v-1.441h2.881V897.506z M161.652,897.506h-2.881v-1.441h2.881V897.506z M155.889,897.506h-2.881v-1.441h2.881V897.506z
		 M150.126,897.506h-2.881v-1.441h2.881V897.506z M144.363,897.506h-2.882v-1.441h2.882V897.506z M138.6,897.506h-2.882v-1.441
		h2.882V897.506z M132.837,897.506h-2.882v-1.441h2.882V897.506z M127.074,897.506h-2.881v-1.441h2.881V897.506z M121.311,897.506
		h-2.881v-1.441h2.881V897.506z M115.548,897.506h-2.881v-1.441h2.881V897.506z M109.785,897.506h-2.881v-1.441h2.881V897.506z
		 M104.022,897.506h-2.881v-1.441h2.881V897.506z M98.259,897.506h-2.881v-1.441h2.881V897.506z M92.496,897.506h-2.881v-1.441
		h2.881V897.506z M86.733,897.506h-2.881v-1.441h2.881V897.506z"/>
</g>
</svg>
