<?xml version="1.0" encoding="utf-8"?>
<!-- Generator: Adobe Illustrator 17.0.0, SVG Export Plug-In . SVG Version: 6.00 Build 0)  -->
<!DOCTYPE svg PUBLIC "-//W3C//DTD SVG 1.1//EN" "http://www.w3.org/Graphics/SVG/1.1/DTD/svg11.dtd">
<svg version="1.1" id="Lager_1" xmlns="http://www.w3.org/2000/svg" xmlns:xlink="http://www.w3.org/1999/xlink" x="0px" y="0px"
	 width="710px" height="768.587px" viewBox="0 234.763 710 768.587" enable-background="new 0 234.763 710 768.587"
	 xml:space="preserve">
<g id="XMLID_99_">
	<g id="XMLID_147_">
		<polygon fill="#FFFFFF" points="601.072,411.935 571.543,411.935 571.543,352.878 601.072,352.878 601.072,333.192 
			522.329,333.192 522.329,352.878 551.858,352.878 551.858,411.935 522.329,411.935 522.329,431.621 601.072,431.621 		"/>
	</g>
	<g id="XMLID_142_">
		<path fill="#FFFFFF" d="M537.684,766.279h48.033l4.987,19.686h20.342l-19.686-78.743v-19.686h-59.057v19.686l-19.686,78.743
			h20.342L537.684,766.279z M552.514,707.222h18.505l9.843,39.372h-38.19L552.514,707.222z"/>
	</g>
	<g id="XMLID_141_">
		<polygon fill="#FFFFFF" points="601.072,648.165 542.015,648.165 542.015,628.479 591.229,628.479 591.229,608.793 
			542.015,608.793 542.015,589.107 601.072,589.107 601.072,569.421 522.329,569.421 522.329,667.85 601.072,667.85 		"/>
	</g>
	<g id="XMLID_140_">
		<polygon fill="#FFFFFF" points="551.858,530.05 542.015,530.05 542.015,549.736 581.386,549.736 581.386,530.05 571.543,530.05 
			571.543,470.993 601.072,470.993 601.072,451.307 522.329,451.307 522.329,470.993 551.858,470.993 		"/>
	</g>
	<g id="XMLID_100_">
		<polygon fill="#FFFFFF" points="561.832,854.865 561.569,854.865 549.233,805.651 512.486,805.651 512.486,904.08 532.172,904.08 
			532.172,825.336 533.878,825.336 546.083,874.551 577.318,874.551 589.523,825.336 591.229,825.336 591.229,904.08 
			610.915,904.08 610.915,805.651 574.168,805.651 		"/>
	</g>
</g>
<g id="XMLID_1149_">
	<path fill="#38FFA1" d="M710,1003.165H413.401V234.107H710V1003.165z M414.714,1001.852h293.974V235.42H414.714V1001.852z"/>
</g>
<g id="XMLID_1143_">
	<g>
		<rect x="414.057" y="969.043" fill="#38FFA1" width="1.312" height="1.312"/>
	</g>
	<g>
		<path fill="#38FFA1" d="M705.407,970.355h-2.625v-1.312h2.625V970.355z M700.157,970.355h-2.625v-1.312h2.625V970.355z
			 M694.908,970.355h-2.625v-1.312h2.625V970.355z M689.527,970.355h-2.625v-1.312h2.625V970.355z M684.277,970.355h-2.625v-1.312
			h2.625V970.355z M679.028,970.355h-2.625v-1.312h2.625V970.355z M673.778,970.355h-2.625v-1.312h2.625V970.355z M668.529,970.355
			h-2.625v-1.312h2.625V970.355z M663.148,970.355h-2.625v-1.312h2.625V970.355z M657.898,970.355h-2.625v-1.312h2.625V970.355z
			 M652.649,970.355h-2.625v-1.312h2.625V970.355z M647.399,970.355h-2.625v-1.312h2.625V970.355z M642.15,970.355h-2.625v-1.312
			h2.625V970.355z M636.9,970.355h-2.625v-1.312h2.625V970.355z M631.519,970.355h-2.625v-1.312h2.625V970.355z M626.27,970.355
			h-2.625v-1.312h2.625V970.355z M621.02,970.355h-2.625v-1.312h2.625V970.355z M615.771,970.355h-2.625v-1.312h2.625V970.355z
			 M610.521,970.355h-2.625v-1.312h2.625V970.355z M605.141,970.355h-2.625v-1.312h2.625V970.355z M599.891,970.355h-2.625v-1.312
			h2.625V970.355z M594.641,970.355h-2.625v-1.312h2.625V970.355z M589.392,970.355h-2.625v-1.312h2.625V970.355z M584.142,970.355
			h-2.625v-1.312h2.625V970.355z M578.893,970.355h-2.625v-1.312h2.625V970.355z M573.512,970.355h-2.625v-1.312h2.625V970.355z
			 M568.262,970.355h-2.625v-1.312h2.625V970.355z M563.013,970.355h-2.625v-1.312h2.625V970.355z M557.763,970.355h-2.625v-1.312
			h2.625V970.355z M552.514,970.355h-2.625v-1.312h2.625V970.355z M547.264,970.355h-2.625v-1.312h2.625V970.355z M541.884,970.355
			h-2.625v-1.312h2.625V970.355z M536.634,970.355h-2.625v-1.312h2.625V970.355z M531.384,970.355h-2.625v-1.312h2.625V970.355z
			 M526.135,970.355h-2.625v-1.312h2.625V970.355z M520.885,970.355h-2.625v-1.312h2.625V970.355z M515.505,970.355h-2.625v-1.312
			h2.625V970.355z M510.255,970.355h-2.625v-1.312h2.625V970.355z M505.006,970.355h-2.625v-1.312h2.625V970.355z M499.756,970.355
			h-2.625v-1.312h2.625V970.355z M494.506,970.355h-2.625v-1.312h2.625V970.355z M489.257,970.355h-2.625v-1.312h2.625V970.355z
			 M483.876,970.355h-2.625v-1.312h2.625V970.355z M478.627,970.355h-2.625v-1.312h2.625V970.355z M473.377,970.355h-2.625v-1.312
			h2.625V970.355z M468.128,970.355h-2.625v-1.312h2.625V970.355z M462.878,970.355h-2.625v-1.312h2.625V970.355z M457.497,970.355
			h-2.625v-1.312h2.625V970.355z M452.248,970.355h-2.625v-1.312h2.625V970.355z M446.998,970.355h-2.625v-1.312h2.625V970.355z
			 M441.749,970.355h-2.625v-1.312h2.625V970.355z M436.499,970.355h-2.625v-1.312h2.625V970.355z M431.25,970.355h-2.625v-1.312
			h2.625V970.355z M425.869,970.355h-2.625v-1.312h2.625V970.355z M420.619,970.355h-2.625v-1.312h2.625V970.355z"/>
	</g>
	<g>
		<rect x="708.031" y="969.043" fill="#38FFA1" width="1.312" height="1.312"/>
	</g>
</g>
<g id="XMLID_1137_">
	<g>
		<rect x="414.057" y="936.233" fill="#38FFA1" width="1.312" height="1.312"/>
	</g>
	<g>
		<path fill="#38FFA1" d="M705.407,937.545h-2.625v-1.312h2.625V937.545z M700.157,937.545h-2.625v-1.312h2.625V937.545z
			 M694.908,937.545h-2.625v-1.312h2.625V937.545z M689.527,937.545h-2.625v-1.312h2.625V937.545z M684.277,937.545h-2.625v-1.312
			h2.625V937.545z M679.028,937.545h-2.625v-1.312h2.625V937.545z M673.778,937.545h-2.625v-1.312h2.625V937.545z M668.529,937.545
			h-2.625v-1.312h2.625V937.545z M663.148,937.545h-2.625v-1.312h2.625V937.545z M657.898,937.545h-2.625v-1.312h2.625V937.545z
			 M652.649,937.545h-2.625v-1.312h2.625V937.545z M647.399,937.545h-2.625v-1.312h2.625V937.545z M642.15,937.545h-2.625v-1.312
			h2.625V937.545z M636.9,937.545h-2.625v-1.312h2.625V937.545z M631.519,937.545h-2.625v-1.312h2.625V937.545z M626.27,937.545
			h-2.625v-1.312h2.625V937.545z M621.02,937.545h-2.625v-1.312h2.625V937.545z M615.771,937.545h-2.625v-1.312h2.625V937.545z
			 M610.521,937.545h-2.625v-1.312h2.625V937.545z M605.141,937.545h-2.625v-1.312h2.625V937.545z M599.891,937.545h-2.625v-1.312
			h2.625V937.545z M594.641,937.545h-2.625v-1.312h2.625V937.545z M589.392,937.545h-2.625v-1.312h2.625V937.545z M584.142,937.545
			h-2.625v-1.312h2.625V937.545z M578.893,937.545h-2.625v-1.312h2.625V937.545z M573.512,937.545h-2.625v-1.312h2.625V937.545z
			 M568.262,937.545h-2.625v-1.312h2.625V937.545z M563.013,937.545h-2.625v-1.312h2.625V937.545z M557.763,937.545h-2.625v-1.312
			h2.625V937.545z M552.514,937.545h-2.625v-1.312h2.625V937.545z M547.264,937.545h-2.625v-1.312h2.625V937.545z M541.884,937.545
			h-2.625v-1.312h2.625V937.545z M536.634,937.545h-2.625v-1.312h2.625V937.545z M531.384,937.545h-2.625v-1.312h2.625V937.545z
			 M526.135,937.545h-2.625v-1.312h2.625V937.545z M520.885,937.545h-2.625v-1.312h2.625V937.545z M515.505,937.545h-2.625v-1.312
			h2.625V937.545z M510.255,937.545h-2.625v-1.312h2.625V937.545z M505.006,937.545h-2.625v-1.312h2.625V937.545z M499.756,937.545
			h-2.625v-1.312h2.625V937.545z M494.506,937.545h-2.625v-1.312h2.625V937.545z M489.257,937.545h-2.625v-1.312h2.625V937.545z
			 M483.876,937.545h-2.625v-1.312h2.625V937.545z M478.627,937.545h-2.625v-1.312h2.625V937.545z M473.377,937.545h-2.625v-1.312
			h2.625V937.545z M468.128,937.545h-2.625v-1.312h2.625V937.545z M462.878,937.545h-2.625v-1.312h2.625V937.545z M457.497,937.545
			h-2.625v-1.312h2.625V937.545z M452.248,937.545h-2.625v-1.312h2.625V937.545z M446.998,937.545h-2.625v-1.312h2.625V937.545z
			 M441.749,937.545h-2.625v-1.312h2.625V937.545z M436.499,937.545h-2.625v-1.312h2.625V937.545z M431.25,937.545h-2.625v-1.312
			h2.625V937.545z M425.869,937.545h-2.625v-1.312h2.625V937.545z M420.619,937.545h-2.625v-1.312h2.625V937.545z"/>
	</g>
	<g>
		<rect x="708.031" y="936.233" fill="#38FFA1" width="1.312" height="1.312"/>
	</g>
</g>
<g id="XMLID_1136_">
	<rect x="414.057" y="903.686" fill="#38FFA1" width="295.286" height="0.787"/>
</g>
<g id="XMLID_1135_">
	<rect x="414.057" y="332.536" fill="#38FFA1" width="295.286" height="1.312"/>
</g>
<g id="XMLID_1132_">
	<g id="XMLID_1134_">
		<path fill="#38FFA1" d="M677.19,1002.508h-1.312v-2.625h1.312V1002.508z M677.19,997.259h-1.312v-2.625h1.312V997.259z
			 M677.19,992.009h-1.312v-2.625h1.312V992.009z M677.19,986.76h-1.312v-2.625h1.312V986.76z M677.19,981.51h-1.312v-2.625h1.312
			V981.51z M677.19,976.261h-1.312v-2.625h1.312V976.261z M677.19,971.011h-1.312v-2.625h1.312V971.011z M677.19,965.762h-1.312
			v-2.625h1.312V965.762z M677.19,960.512h-1.312v-2.625h1.312V960.512z M677.19,955.263h-1.312v-2.625h1.312V955.263z
			 M677.19,950.013h-1.312v-2.625h1.312V950.013z M677.19,944.763h-1.312v-2.625h1.312V944.763z M677.19,939.514h-1.312v-2.625
			h1.312V939.514z M677.19,934.264h-1.312v-2.625h1.312V934.264z M677.19,929.015h-1.312v-2.625h1.312V929.015z M677.19,923.765
			h-1.312v-2.625h1.312V923.765z M677.19,918.516h-1.312v-2.625h1.312V918.516z M677.19,913.266h-1.312v-2.625h1.312V913.266z
			 M677.19,908.017h-1.312v-2.625h1.312V908.017z M677.19,902.767h-1.312v-2.625h1.312V902.767z M677.19,897.518h-1.312v-2.625
			h1.312V897.518z M677.19,892.268h-1.312v-2.625h1.312V892.268z M677.19,887.018h-1.312v-2.625h1.312V887.018z M677.19,881.769
			h-1.312v-2.625h1.312V881.769z M677.19,876.519h-1.312v-2.625h1.312V876.519z M677.19,871.27h-1.312v-2.625h1.312V871.27z
			 M677.19,866.02h-1.312v-2.625h1.312V866.02z M677.19,860.771h-1.312v-2.625h1.312V860.771z M677.19,855.521h-1.312v-2.625h1.312
			V855.521z M677.19,850.272h-1.312v-2.625h1.312V850.272z M677.19,845.022h-1.312v-2.625h1.312V845.022z M677.19,839.773h-1.312
			v-2.625h1.312V839.773z M677.19,834.523h-1.312v-2.625h1.312V834.523z M677.19,829.274h-1.312v-2.625h1.312V829.274z
			 M677.19,824.024h-1.312v-2.625h1.312V824.024z M677.19,818.775h-1.312v-2.625h1.312V818.775z M677.19,813.525h-1.312V810.9h1.312
			V813.525z M677.19,808.275h-1.312v-2.625h1.312V808.275z M677.19,803.026h-1.312v-2.625h1.312V803.026z M677.19,797.776h-1.312
			v-2.625h1.312V797.776z M677.19,792.527h-1.312v-2.625h1.312V792.527z M677.19,787.277h-1.312v-2.625h1.312V787.277z
			 M677.19,782.028h-1.312v-2.625h1.312V782.028z M677.19,776.778h-1.312v-2.625h1.312V776.778z M677.19,771.529h-1.312v-2.625
			h1.312V771.529z M677.19,766.279h-1.312v-2.625h1.312V766.279z M677.19,761.03h-1.312v-2.625h1.312V761.03z M677.19,755.78h-1.312
			v-2.625h1.312V755.78z M677.19,750.531h-1.312v-2.625h1.312V750.531z M677.19,745.281h-1.312v-2.625h1.312V745.281z
			 M677.19,740.031h-1.312v-2.625h1.312V740.031z M677.19,734.782h-1.312v-2.625h1.312V734.782z M677.19,729.532h-1.312v-2.625
			h1.312V729.532z M677.19,724.283h-1.312v-2.625h1.312V724.283z M677.19,719.033h-1.312v-2.625h1.312V719.033z M677.19,713.784
			h-1.312v-2.625h1.312V713.784z M677.19,708.534h-1.312v-2.625h1.312V708.534z M677.19,703.285h-1.312v-2.625h1.312V703.285z
			 M677.19,698.035h-1.312v-2.625h1.312V698.035z M677.19,692.786h-1.312v-2.625h1.312V692.786z M677.19,687.536h-1.312v-2.625
			h1.312V687.536z M677.19,682.287h-1.312v-2.625h1.312V682.287z M677.19,677.037h-1.312v-2.625h1.312V677.037z M677.19,671.787
			h-1.312v-2.625h1.312V671.787z M677.19,666.538h-1.312v-2.625h1.312V666.538z M677.19,661.288h-1.312v-2.625h1.312V661.288z
			 M677.19,656.039h-1.312v-2.625h1.312V656.039z M677.19,650.789h-1.312v-2.625h1.312V650.789z M677.19,645.54h-1.312v-2.625h1.312
			V645.54z M677.19,640.29h-1.312v-2.625h1.312V640.29z M677.19,635.041h-1.312v-2.625h1.312V635.041z M677.19,629.791h-1.312
			v-2.625h1.312V629.791z M677.19,624.542h-1.312v-2.625h1.312V624.542z M677.19,619.292h-1.312v-2.625h1.312V619.292z
			 M677.19,614.043h-1.312v-2.625h1.312V614.043z M677.19,608.793h-1.312v-2.625h1.312V608.793z M677.19,603.543h-1.312v-2.625
			h1.312V603.543z M677.19,598.294h-1.312v-2.625h1.312V598.294z M677.19,593.044h-1.312v-2.625h1.312V593.044z M677.19,587.795
			h-1.312v-2.625h1.312V587.795z M677.19,582.545h-1.312v-2.625h1.312V582.545z M677.19,577.296h-1.312v-2.625h1.312V577.296z
			 M677.19,572.046h-1.312v-2.625h1.312V572.046z M677.19,566.797h-1.312v-2.625h1.312V566.797z M677.19,561.547h-1.312v-2.625
			h1.312V561.547z M677.19,556.298h-1.312v-2.625h1.312V556.298z M677.19,551.048h-1.312v-2.625h1.312V551.048z M677.19,545.799
			h-1.312v-2.625h1.312V545.799z M677.19,540.549h-1.312v-2.625h1.312V540.549z M677.19,535.299h-1.312v-2.625h1.312V535.299z
			 M677.19,530.05h-1.312v-2.625h1.312V530.05z M677.19,524.8h-1.312v-2.625h1.312V524.8z M677.19,519.551h-1.312v-2.625h1.312
			V519.551z M677.19,514.301h-1.312v-2.625h1.312V514.301z M677.19,509.052h-1.312v-2.625h1.312V509.052z M677.19,503.802h-1.312
			v-2.625h1.312V503.802z M677.19,498.553h-1.312v-2.625h1.312V498.553z M677.19,493.303h-1.312v-2.625h1.312V493.303z
			 M677.19,488.054h-1.312v-2.625h1.312V488.054z M677.19,482.804h-1.312v-2.625h1.312V482.804z M677.19,477.555h-1.312v-2.625
			h1.312V477.555z M677.19,472.305h-1.312v-2.625h1.312V472.305z M677.19,467.055h-1.312v-2.625h1.312V467.055z M677.19,461.806
			h-1.312v-2.625h1.312V461.806z M677.19,456.556h-1.312v-2.625h1.312V456.556z M677.19,451.307h-1.312v-2.625h1.312V451.307z
			 M677.19,446.057h-1.312v-2.625h1.312V446.057z M677.19,440.808h-1.312v-2.625h1.312V440.808z M677.19,435.558h-1.312v-2.625
			h1.312V435.558z M677.19,430.309h-1.312v-2.625h1.312V430.309z M677.19,425.059h-1.312v-2.625h1.312V425.059z M677.19,419.81
			h-1.312v-2.625h1.312V419.81z M677.19,414.56h-1.312v-2.625h1.312V414.56z M677.19,409.311h-1.312v-2.625h1.312V409.311z
			 M677.19,404.061h-1.312v-2.625h1.312V404.061z M677.19,398.811h-1.312v-2.625h1.312V398.811z M677.19,393.562h-1.312v-2.625
			h1.312V393.562z M677.19,388.312h-1.312v-2.625h1.312V388.312z M677.19,383.063h-1.312v-2.625h1.312V383.063z M677.19,377.813
			h-1.312v-2.625h1.312V377.813z M677.19,372.564h-1.312v-2.625h1.312V372.564z M677.19,367.314h-1.312v-2.625h1.312V367.314z
			 M677.19,362.065h-1.312v-2.625h1.312V362.065z M677.19,356.815h-1.312v-2.625h1.312V356.815z M677.19,351.566h-1.312v-2.625
			h1.312V351.566z M677.19,346.316h-1.312v-2.625h1.312V346.316z M677.19,341.067h-1.312v-2.625h1.312V341.067z M677.19,335.817
			h-1.312v-2.625h1.312V335.817z M677.19,330.568h-1.312v-2.625h1.312V330.568z M677.19,325.318h-1.312v-2.625h1.312V325.318z
			 M677.19,320.068h-1.312v-2.625h1.312V320.068z M677.19,314.819h-1.312v-2.625h1.312V314.819z M677.19,309.569h-1.312v-2.625
			h1.312V309.569z M677.19,304.32h-1.312v-2.625h1.312V304.32z M677.19,299.07h-1.312v-2.625h1.312V299.07z M677.19,293.821h-1.312
			v-2.625h1.312V293.821z M677.19,288.571h-1.312v-2.625h1.312V288.571z M677.19,283.322h-1.312v-2.625h1.312V283.322z
			 M677.19,278.072h-1.312v-2.625h1.312V278.072z M677.19,272.823h-1.312v-2.625h1.312V272.823z M677.19,267.573h-1.312v-2.625
			h1.312V267.573z M677.19,262.323h-1.312v-2.625h1.312V262.323z M677.19,257.074h-1.312v-2.625h1.312V257.074z M677.19,251.824
			h-1.312V249.2h1.312V251.824z M677.19,246.575h-1.312v-2.625h1.312V246.575z M677.19,241.325h-1.312v-2.625h1.312V241.325z
			 M677.19,236.076h-1.312v-1.312h1.312V236.076z"/>
	</g>
	<g id="XMLID_1133_">
		<path fill="#38FFA1" d="M644.381,1002.508h-1.312v-2.625h1.312V1002.508z M644.381,997.259h-1.312v-2.625h1.312V997.259z
			 M644.381,992.009h-1.312v-2.625h1.312V992.009z M644.381,986.76h-1.312v-2.625h1.312V986.76z M644.381,981.51h-1.312v-2.625
			h1.312V981.51z M644.381,976.261h-1.312v-2.625h1.312V976.261z M644.381,971.011h-1.312v-2.625h1.312V971.011z M644.381,965.762
			h-1.312v-2.625h1.312V965.762z M644.381,960.512h-1.312v-2.625h1.312V960.512z M644.381,955.263h-1.312v-2.625h1.312V955.263z
			 M644.381,950.013h-1.312v-2.625h1.312V950.013z M644.381,944.763h-1.312v-2.625h1.312V944.763z M644.381,939.514h-1.312v-2.625
			h1.312V939.514z M644.381,934.264h-1.312v-2.625h1.312V934.264z M644.381,929.015h-1.312v-2.625h1.312V929.015z M644.381,923.765
			h-1.312v-2.625h1.312V923.765z M644.381,918.516h-1.312v-2.625h1.312V918.516z M644.381,913.266h-1.312v-2.625h1.312V913.266z
			 M644.381,908.017h-1.312v-2.625h1.312V908.017z M644.381,902.767h-1.312v-2.625h1.312V902.767z M644.381,897.518h-1.312v-2.625
			h1.312V897.518z M644.381,892.268h-1.312v-2.625h1.312V892.268z M644.381,887.018h-1.312v-2.625h1.312V887.018z M644.381,881.769
			h-1.312v-2.625h1.312V881.769z M644.381,876.519h-1.312v-2.625h1.312V876.519z M644.381,871.27h-1.312v-2.625h1.312V871.27z
			 M644.381,866.02h-1.312v-2.625h1.312V866.02z M644.381,860.771h-1.312v-2.625h1.312V860.771z M644.381,855.521h-1.312v-2.625
			h1.312V855.521z M644.381,850.272h-1.312v-2.625h1.312V850.272z M644.381,845.022h-1.312v-2.625h1.312V845.022z M644.381,839.773
			h-1.312v-2.625h1.312V839.773z M644.381,834.523h-1.312v-2.625h1.312V834.523z M644.381,829.274h-1.312v-2.625h1.312V829.274z
			 M644.381,824.024h-1.312v-2.625h1.312V824.024z M644.381,818.775h-1.312v-2.625h1.312V818.775z M644.381,813.525h-1.312V810.9
			h1.312V813.525z M644.381,808.275h-1.312v-2.625h1.312V808.275z M644.381,803.026h-1.312v-2.625h1.312V803.026z M644.381,797.776
			h-1.312v-2.625h1.312V797.776z M644.381,792.527h-1.312v-2.625h1.312V792.527z M644.381,787.277h-1.312v-2.625h1.312V787.277z
			 M644.381,782.028h-1.312v-2.625h1.312V782.028z M644.381,776.778h-1.312v-2.625h1.312V776.778z M644.381,771.529h-1.312v-2.625
			h1.312V771.529z M644.381,766.279h-1.312v-2.625h1.312V766.279z M644.381,761.03h-1.312v-2.625h1.312V761.03z M644.381,755.78
			h-1.312v-2.625h1.312V755.78z M644.381,750.531h-1.312v-2.625h1.312V750.531z M644.381,745.281h-1.312v-2.625h1.312V745.281z
			 M644.381,740.031h-1.312v-2.625h1.312V740.031z M644.381,734.782h-1.312v-2.625h1.312V734.782z M644.381,729.532h-1.312v-2.625
			h1.312V729.532z M644.381,724.283h-1.312v-2.625h1.312V724.283z M644.381,719.033h-1.312v-2.625h1.312V719.033z M644.381,713.784
			h-1.312v-2.625h1.312V713.784z M644.381,708.534h-1.312v-2.625h1.312V708.534z M644.381,703.285h-1.312v-2.625h1.312V703.285z
			 M644.381,698.035h-1.312v-2.625h1.312V698.035z M644.381,692.786h-1.312v-2.625h1.312V692.786z M644.381,687.536h-1.312v-2.625
			h1.312V687.536z M644.381,682.287h-1.312v-2.625h1.312V682.287z M644.381,677.037h-1.312v-2.625h1.312V677.037z M644.381,671.787
			h-1.312v-2.625h1.312V671.787z M644.381,666.538h-1.312v-2.625h1.312V666.538z M644.381,661.288h-1.312v-2.625h1.312V661.288z
			 M644.381,656.039h-1.312v-2.625h1.312V656.039z M644.381,650.789h-1.312v-2.625h1.312V650.789z M644.381,645.54h-1.312v-2.625
			h1.312V645.54z M644.381,640.29h-1.312v-2.625h1.312V640.29z M644.381,635.041h-1.312v-2.625h1.312V635.041z M644.381,629.791
			h-1.312v-2.625h1.312V629.791z M644.381,624.542h-1.312v-2.625h1.312V624.542z M644.381,619.292h-1.312v-2.625h1.312V619.292z
			 M644.381,614.043h-1.312v-2.625h1.312V614.043z M644.381,608.793h-1.312v-2.625h1.312V608.793z M644.381,603.543h-1.312v-2.625
			h1.312V603.543z M644.381,598.294h-1.312v-2.625h1.312V598.294z M644.381,593.044h-1.312v-2.625h1.312V593.044z M644.381,587.795
			h-1.312v-2.625h1.312V587.795z M644.381,582.545h-1.312v-2.625h1.312V582.545z M644.381,577.296h-1.312v-2.625h1.312V577.296z
			 M644.381,572.046h-1.312v-2.625h1.312V572.046z M644.381,566.797h-1.312v-2.625h1.312V566.797z M644.381,561.547h-1.312v-2.625
			h1.312V561.547z M644.381,556.298h-1.312v-2.625h1.312V556.298z M644.381,551.048h-1.312v-2.625h1.312V551.048z M644.381,545.799
			h-1.312v-2.625h1.312V545.799z M644.381,540.549h-1.312v-2.625h1.312V540.549z M644.381,535.299h-1.312v-2.625h1.312V535.299z
			 M644.381,530.05h-1.312v-2.625h1.312V530.05z M644.381,524.8h-1.312v-2.625h1.312V524.8z M644.381,519.551h-1.312v-2.625h1.312
			V519.551z M644.381,514.301h-1.312v-2.625h1.312V514.301z M644.381,509.052h-1.312v-2.625h1.312V509.052z M644.381,503.802h-1.312
			v-2.625h1.312V503.802z M644.381,498.553h-1.312v-2.625h1.312V498.553z M644.381,493.303h-1.312v-2.625h1.312V493.303z
			 M644.381,488.054h-1.312v-2.625h1.312V488.054z M644.381,482.804h-1.312v-2.625h1.312V482.804z M644.381,477.555h-1.312v-2.625
			h1.312V477.555z M644.381,472.305h-1.312v-2.625h1.312V472.305z M644.381,467.055h-1.312v-2.625h1.312V467.055z M644.381,461.806
			h-1.312v-2.625h1.312V461.806z M644.381,456.556h-1.312v-2.625h1.312V456.556z M644.381,451.307h-1.312v-2.625h1.312V451.307z
			 M644.381,446.057h-1.312v-2.625h1.312V446.057z M644.381,440.808h-1.312v-2.625h1.312V440.808z M644.381,435.558h-1.312v-2.625
			h1.312V435.558z M644.381,430.309h-1.312v-2.625h1.312V430.309z M644.381,425.059h-1.312v-2.625h1.312V425.059z M644.381,419.81
			h-1.312v-2.625h1.312V419.81z M644.381,414.56h-1.312v-2.625h1.312V414.56z M644.381,409.311h-1.312v-2.625h1.312V409.311z
			 M644.381,404.061h-1.312v-2.625h1.312V404.061z M644.381,398.811h-1.312v-2.625h1.312V398.811z M644.381,393.562h-1.312v-2.625
			h1.312V393.562z M644.381,388.312h-1.312v-2.625h1.312V388.312z M644.381,383.063h-1.312v-2.625h1.312V383.063z M644.381,377.813
			h-1.312v-2.625h1.312V377.813z M644.381,372.564h-1.312v-2.625h1.312V372.564z M644.381,367.314h-1.312v-2.625h1.312V367.314z
			 M644.381,362.065h-1.312v-2.625h1.312V362.065z M644.381,356.815h-1.312v-2.625h1.312V356.815z M644.381,351.566h-1.312v-2.625
			h1.312V351.566z M644.381,346.316h-1.312v-2.625h1.312V346.316z M644.381,341.067h-1.312v-2.625h1.312V341.067z M644.381,335.817
			h-1.312v-2.625h1.312V335.817z M644.381,330.568h-1.312v-2.625h1.312V330.568z M644.381,325.318h-1.312v-2.625h1.312V325.318z
			 M644.381,320.068h-1.312v-2.625h1.312V320.068z M644.381,314.819h-1.312v-2.625h1.312V314.819z M644.381,309.569h-1.312v-2.625
			h1.312V309.569z M644.381,304.32h-1.312v-2.625h1.312V304.32z M644.381,299.07h-1.312v-2.625h1.312V299.07z M644.381,293.821
			h-1.312v-2.625h1.312V293.821z M644.381,288.571h-1.312v-2.625h1.312V288.571z M644.381,283.322h-1.312v-2.625h1.312V283.322z
			 M644.381,278.072h-1.312v-2.625h1.312V278.072z M644.381,272.823h-1.312v-2.625h1.312V272.823z M644.381,267.573h-1.312v-2.625
			h1.312V267.573z M644.381,262.323h-1.312v-2.625h1.312V262.323z M644.381,257.074h-1.312v-2.625h1.312V257.074z M644.381,251.824
			h-1.312V249.2h1.312V251.824z M644.381,246.575h-1.312v-2.625h1.312V246.575z M644.381,241.325h-1.312v-2.625h1.312V241.325z
			 M644.381,236.076h-1.312v-1.312h1.312V236.076z"/>
	</g>
</g>
<g id="XMLID_1131_">
	<path fill="#38FFA1" d="M480.333,1002.508h-1.312v-2.625h1.312V1002.508z M480.333,997.259h-1.312v-2.625h1.312V997.259z
		 M480.333,992.009h-1.312v-2.625h1.312V992.009z M480.333,986.76h-1.312v-2.625h1.312V986.76z M480.333,981.51h-1.312v-2.625h1.312
		V981.51z M480.333,976.261h-1.312v-2.625h1.312V976.261z M480.333,971.011h-1.312v-2.625h1.312V971.011z M480.333,965.762h-1.312
		v-2.625h1.312V965.762z M480.333,960.512h-1.312v-2.625h1.312V960.512z M480.333,955.263h-1.312v-2.625h1.312V955.263z
		 M480.333,950.013h-1.312v-2.625h1.312V950.013z M480.333,944.763h-1.312v-2.625h1.312V944.763z M480.333,939.514h-1.312v-2.625
		h1.312V939.514z M480.333,934.264h-1.312v-2.625h1.312V934.264z M480.333,929.015h-1.312v-2.625h1.312V929.015z M480.333,923.765
		h-1.312v-2.625h1.312V923.765z M480.333,918.516h-1.312v-2.625h1.312V918.516z M480.333,913.266h-1.312v-2.625h1.312V913.266z
		 M480.333,908.017h-1.312v-2.625h1.312V908.017z M480.333,902.767h-1.312v-2.625h1.312V902.767z M480.333,897.518h-1.312v-2.625
		h1.312V897.518z M480.333,892.268h-1.312v-2.625h1.312V892.268z M480.333,887.018h-1.312v-2.625h1.312V887.018z M480.333,881.769
		h-1.312v-2.625h1.312V881.769z M480.333,876.519h-1.312v-2.625h1.312V876.519z M480.333,871.27h-1.312v-2.625h1.312V871.27z
		 M480.333,866.02h-1.312v-2.625h1.312V866.02z M480.333,860.771h-1.312v-2.625h1.312V860.771z M480.333,855.521h-1.312v-2.625
		h1.312V855.521z M480.333,850.272h-1.312v-2.625h1.312V850.272z M480.333,845.022h-1.312v-2.625h1.312V845.022z M480.333,839.773
		h-1.312v-2.625h1.312V839.773z M480.333,834.523h-1.312v-2.625h1.312V834.523z M480.333,829.274h-1.312v-2.625h1.312V829.274z
		 M480.333,824.024h-1.312v-2.625h1.312V824.024z M480.333,818.775h-1.312v-2.625h1.312V818.775z M480.333,813.525h-1.312V810.9
		h1.312V813.525z M480.333,808.275h-1.312v-2.625h1.312V808.275z M480.333,803.026h-1.312v-2.625h1.312V803.026z M480.333,797.776
		h-1.312v-2.625h1.312V797.776z M480.333,792.527h-1.312v-2.625h1.312V792.527z M480.333,787.277h-1.312v-2.625h1.312V787.277z
		 M480.333,782.028h-1.312v-2.625h1.312V782.028z M480.333,776.778h-1.312v-2.625h1.312V776.778z M480.333,771.529h-1.312v-2.625
		h1.312V771.529z M480.333,766.279h-1.312v-2.625h1.312V766.279z M480.333,761.03h-1.312v-2.625h1.312V761.03z M480.333,755.78
		h-1.312v-2.625h1.312V755.78z M480.333,750.531h-1.312v-2.625h1.312V750.531z M480.333,745.281h-1.312v-2.625h1.312V745.281z
		 M480.333,740.031h-1.312v-2.625h1.312V740.031z M480.333,734.782h-1.312v-2.625h1.312V734.782z M480.333,729.532h-1.312v-2.625
		h1.312V729.532z M480.333,724.283h-1.312v-2.625h1.312V724.283z M480.333,719.033h-1.312v-2.625h1.312V719.033z M480.333,713.784
		h-1.312v-2.625h1.312V713.784z M480.333,708.534h-1.312v-2.625h1.312V708.534z M480.333,703.285h-1.312v-2.625h1.312V703.285z
		 M480.333,698.035h-1.312v-2.625h1.312V698.035z M480.333,692.786h-1.312v-2.625h1.312V692.786z M480.333,687.536h-1.312v-2.625
		h1.312V687.536z M480.333,682.287h-1.312v-2.625h1.312V682.287z M480.333,677.037h-1.312v-2.625h1.312V677.037z M480.333,671.787
		h-1.312v-2.625h1.312V671.787z M480.333,666.538h-1.312v-2.625h1.312V666.538z M480.333,661.288h-1.312v-2.625h1.312V661.288z
		 M480.333,656.039h-1.312v-2.625h1.312V656.039z M480.333,650.789h-1.312v-2.625h1.312V650.789z M480.333,645.54h-1.312v-2.625
		h1.312V645.54z M480.333,640.29h-1.312v-2.625h1.312V640.29z M480.333,635.041h-1.312v-2.625h1.312V635.041z M480.333,629.791
		h-1.312v-2.625h1.312V629.791z M480.333,624.542h-1.312v-2.625h1.312V624.542z M480.333,619.292h-1.312v-2.625h1.312V619.292z
		 M480.333,614.043h-1.312v-2.625h1.312V614.043z M480.333,608.793h-1.312v-2.625h1.312V608.793z M480.333,603.543h-1.312v-2.625
		h1.312V603.543z M480.333,598.294h-1.312v-2.625h1.312V598.294z M480.333,593.044h-1.312v-2.625h1.312V593.044z M480.333,587.795
		h-1.312v-2.625h1.312V587.795z M480.333,582.545h-1.312v-2.625h1.312V582.545z M480.333,577.296h-1.312v-2.625h1.312V577.296z
		 M480.333,572.046h-1.312v-2.625h1.312V572.046z M480.333,566.797h-1.312v-2.625h1.312V566.797z M480.333,561.547h-1.312v-2.625
		h1.312V561.547z M480.333,556.298h-1.312v-2.625h1.312V556.298z M480.333,551.048h-1.312v-2.625h1.312V551.048z M480.333,545.799
		h-1.312v-2.625h1.312V545.799z M480.333,540.549h-1.312v-2.625h1.312V540.549z M480.333,535.299h-1.312v-2.625h1.312V535.299z
		 M480.333,530.05h-1.312v-2.625h1.312V530.05z M480.333,524.8h-1.312v-2.625h1.312V524.8z M480.333,519.551h-1.312v-2.625h1.312
		V519.551z M480.333,514.301h-1.312v-2.625h1.312V514.301z M480.333,509.052h-1.312v-2.625h1.312V509.052z M480.333,503.802h-1.312
		v-2.625h1.312V503.802z M480.333,498.553h-1.312v-2.625h1.312V498.553z M480.333,493.303h-1.312v-2.625h1.312V493.303z
		 M480.333,488.054h-1.312v-2.625h1.312V488.054z M480.333,482.804h-1.312v-2.625h1.312V482.804z M480.333,477.555h-1.312v-2.625
		h1.312V477.555z M480.333,472.305h-1.312v-2.625h1.312V472.305z M480.333,467.055h-1.312v-2.625h1.312V467.055z M480.333,461.806
		h-1.312v-2.625h1.312V461.806z M480.333,456.556h-1.312v-2.625h1.312V456.556z M480.333,451.307h-1.312v-2.625h1.312V451.307z
		 M480.333,446.057h-1.312v-2.625h1.312V446.057z M480.333,440.808h-1.312v-2.625h1.312V440.808z M480.333,435.558h-1.312v-2.625
		h1.312V435.558z M480.333,430.309h-1.312v-2.625h1.312V430.309z M480.333,425.059h-1.312v-2.625h1.312V425.059z M480.333,419.81
		h-1.312v-2.625h1.312V419.81z M480.333,414.56h-1.312v-2.625h1.312V414.56z M480.333,409.311h-1.312v-2.625h1.312V409.311z
		 M480.333,404.061h-1.312v-2.625h1.312V404.061z M480.333,398.811h-1.312v-2.625h1.312V398.811z M480.333,393.562h-1.312v-2.625
		h1.312V393.562z M480.333,388.312h-1.312v-2.625h1.312V388.312z M480.333,383.063h-1.312v-2.625h1.312V383.063z M480.333,377.813
		h-1.312v-2.625h1.312V377.813z M480.333,372.564h-1.312v-2.625h1.312V372.564z M480.333,367.314h-1.312v-2.625h1.312V367.314z
		 M480.333,362.065h-1.312v-2.625h1.312V362.065z M480.333,356.815h-1.312v-2.625h1.312V356.815z M480.333,351.566h-1.312v-2.625
		h1.312V351.566z M480.333,346.316h-1.312v-2.625h1.312V346.316z M480.333,341.067h-1.312v-2.625h1.312V341.067z M480.333,335.817
		h-1.312v-2.625h1.312V335.817z M480.333,330.568h-1.312v-2.625h1.312V330.568z M480.333,325.318h-1.312v-2.625h1.312V325.318z
		 M480.333,320.068h-1.312v-2.625h1.312V320.068z M480.333,314.819h-1.312v-2.625h1.312V314.819z M480.333,309.569h-1.312v-2.625
		h1.312V309.569z M480.333,304.32h-1.312v-2.625h1.312V304.32z M480.333,299.07h-1.312v-2.625h1.312V299.07z M480.333,293.821
		h-1.312v-2.625h1.312V293.821z M480.333,288.571h-1.312v-2.625h1.312V288.571z M480.333,283.322h-1.312v-2.625h1.312V283.322z
		 M480.333,278.072h-1.312v-2.625h1.312V278.072z M480.333,272.823h-1.312v-2.625h1.312V272.823z M480.333,267.573h-1.312v-2.625
		h1.312V267.573z M480.333,262.323h-1.312v-2.625h1.312V262.323z M480.333,257.074h-1.312v-2.625h1.312V257.074z M480.333,251.824
		h-1.312V249.2h1.312V251.824z M480.333,246.575h-1.312v-2.625h1.312V246.575z M480.333,241.325h-1.312v-2.625h1.312V241.325z
		 M480.333,236.076h-1.312v-1.312h1.312V236.076z"/>
</g>
<g id="XMLID_1130_">
	<path fill="#38FFA1" d="M447.523,1002.508h-1.312v-2.625h1.312V1002.508z M447.523,997.259h-1.312v-2.625h1.312V997.259z
		 M447.523,992.009h-1.312v-2.625h1.312V992.009z M447.523,986.76h-1.312v-2.625h1.312V986.76z M447.523,981.51h-1.312v-2.625h1.312
		V981.51z M447.523,976.261h-1.312v-2.625h1.312V976.261z M447.523,971.011h-1.312v-2.625h1.312V971.011z M447.523,965.762h-1.312
		v-2.625h1.312V965.762z M447.523,960.512h-1.312v-2.625h1.312V960.512z M447.523,955.263h-1.312v-2.625h1.312V955.263z
		 M447.523,950.013h-1.312v-2.625h1.312V950.013z M447.523,944.763h-1.312v-2.625h1.312V944.763z M447.523,939.514h-1.312v-2.625
		h1.312V939.514z M447.523,934.264h-1.312v-2.625h1.312V934.264z M447.523,929.015h-1.312v-2.625h1.312V929.015z M447.523,923.765
		h-1.312v-2.625h1.312V923.765z M447.523,918.516h-1.312v-2.625h1.312V918.516z M447.523,913.266h-1.312v-2.625h1.312V913.266z
		 M447.523,908.017h-1.312v-2.625h1.312V908.017z M447.523,902.767h-1.312v-2.625h1.312V902.767z M447.523,897.518h-1.312v-2.625
		h1.312V897.518z M447.523,892.268h-1.312v-2.625h1.312V892.268z M447.523,887.018h-1.312v-2.625h1.312V887.018z M447.523,881.769
		h-1.312v-2.625h1.312V881.769z M447.523,876.519h-1.312v-2.625h1.312V876.519z M447.523,871.27h-1.312v-2.625h1.312V871.27z
		 M447.523,866.02h-1.312v-2.625h1.312V866.02z M447.523,860.771h-1.312v-2.625h1.312V860.771z M447.523,855.521h-1.312v-2.625
		h1.312V855.521z M447.523,850.272h-1.312v-2.625h1.312V850.272z M447.523,845.022h-1.312v-2.625h1.312V845.022z M447.523,839.773
		h-1.312v-2.625h1.312V839.773z M447.523,834.523h-1.312v-2.625h1.312V834.523z M447.523,829.274h-1.312v-2.625h1.312V829.274z
		 M447.523,824.024h-1.312v-2.625h1.312V824.024z M447.523,818.775h-1.312v-2.625h1.312V818.775z M447.523,813.525h-1.312V810.9
		h1.312V813.525z M447.523,808.275h-1.312v-2.625h1.312V808.275z M447.523,803.026h-1.312v-2.625h1.312V803.026z M447.523,797.776
		h-1.312v-2.625h1.312V797.776z M447.523,792.527h-1.312v-2.625h1.312V792.527z M447.523,787.277h-1.312v-2.625h1.312V787.277z
		 M447.523,782.028h-1.312v-2.625h1.312V782.028z M447.523,776.778h-1.312v-2.625h1.312V776.778z M447.523,771.529h-1.312v-2.625
		h1.312V771.529z M447.523,766.279h-1.312v-2.625h1.312V766.279z M447.523,761.03h-1.312v-2.625h1.312V761.03z M447.523,755.78
		h-1.312v-2.625h1.312V755.78z M447.523,750.531h-1.312v-2.625h1.312V750.531z M447.523,745.281h-1.312v-2.625h1.312V745.281z
		 M447.523,740.031h-1.312v-2.625h1.312V740.031z M447.523,734.782h-1.312v-2.625h1.312V734.782z M447.523,729.532h-1.312v-2.625
		h1.312V729.532z M447.523,724.283h-1.312v-2.625h1.312V724.283z M447.523,719.033h-1.312v-2.625h1.312V719.033z M447.523,713.784
		h-1.312v-2.625h1.312V713.784z M447.523,708.534h-1.312v-2.625h1.312V708.534z M447.523,703.285h-1.312v-2.625h1.312V703.285z
		 M447.523,698.035h-1.312v-2.625h1.312V698.035z M447.523,692.786h-1.312v-2.625h1.312V692.786z M447.523,687.536h-1.312v-2.625
		h1.312V687.536z M447.523,682.287h-1.312v-2.625h1.312V682.287z M447.523,677.037h-1.312v-2.625h1.312V677.037z M447.523,671.787
		h-1.312v-2.625h1.312V671.787z M447.523,666.538h-1.312v-2.625h1.312V666.538z M447.523,661.288h-1.312v-2.625h1.312V661.288z
		 M447.523,656.039h-1.312v-2.625h1.312V656.039z M447.523,650.789h-1.312v-2.625h1.312V650.789z M447.523,645.54h-1.312v-2.625
		h1.312V645.54z M447.523,640.29h-1.312v-2.625h1.312V640.29z M447.523,635.041h-1.312v-2.625h1.312V635.041z M447.523,629.791
		h-1.312v-2.625h1.312V629.791z M447.523,624.542h-1.312v-2.625h1.312V624.542z M447.523,619.292h-1.312v-2.625h1.312V619.292z
		 M447.523,614.043h-1.312v-2.625h1.312V614.043z M447.523,608.793h-1.312v-2.625h1.312V608.793z M447.523,603.543h-1.312v-2.625
		h1.312V603.543z M447.523,598.294h-1.312v-2.625h1.312V598.294z M447.523,593.044h-1.312v-2.625h1.312V593.044z M447.523,587.795
		h-1.312v-2.625h1.312V587.795z M447.523,582.545h-1.312v-2.625h1.312V582.545z M447.523,577.296h-1.312v-2.625h1.312V577.296z
		 M447.523,572.046h-1.312v-2.625h1.312V572.046z M447.523,566.797h-1.312v-2.625h1.312V566.797z M447.523,561.547h-1.312v-2.625
		h1.312V561.547z M447.523,556.298h-1.312v-2.625h1.312V556.298z M447.523,551.048h-1.312v-2.625h1.312V551.048z M447.523,545.799
		h-1.312v-2.625h1.312V545.799z M447.523,540.549h-1.312v-2.625h1.312V540.549z M447.523,535.299h-1.312v-2.625h1.312V535.299z
		 M447.523,530.05h-1.312v-2.625h1.312V530.05z M447.523,524.8h-1.312v-2.625h1.312V524.8z M447.523,519.551h-1.312v-2.625h1.312
		V519.551z M447.523,514.301h-1.312v-2.625h1.312V514.301z M447.523,509.052h-1.312v-2.625h1.312V509.052z M447.523,503.802h-1.312
		v-2.625h1.312V503.802z M447.523,498.553h-1.312v-2.625h1.312V498.553z M447.523,493.303h-1.312v-2.625h1.312V493.303z
		 M447.523,488.054h-1.312v-2.625h1.312V488.054z M447.523,482.804h-1.312v-2.625h1.312V482.804z M447.523,477.555h-1.312v-2.625
		h1.312V477.555z M447.523,472.305h-1.312v-2.625h1.312V472.305z M447.523,467.055h-1.312v-2.625h1.312V467.055z M447.523,461.806
		h-1.312v-2.625h1.312V461.806z M447.523,456.556h-1.312v-2.625h1.312V456.556z M447.523,451.307h-1.312v-2.625h1.312V451.307z
		 M447.523,446.057h-1.312v-2.625h1.312V446.057z M447.523,440.808h-1.312v-2.625h1.312V440.808z M447.523,435.558h-1.312v-2.625
		h1.312V435.558z M447.523,430.309h-1.312v-2.625h1.312V430.309z M447.523,425.059h-1.312v-2.625h1.312V425.059z M447.523,419.81
		h-1.312v-2.625h1.312V419.81z M447.523,414.56h-1.312v-2.625h1.312V414.56z M447.523,409.311h-1.312v-2.625h1.312V409.311z
		 M447.523,404.061h-1.312v-2.625h1.312V404.061z M447.523,398.811h-1.312v-2.625h1.312V398.811z M447.523,393.562h-1.312v-2.625
		h1.312V393.562z M447.523,388.312h-1.312v-2.625h1.312V388.312z M447.523,383.063h-1.312v-2.625h1.312V383.063z M447.523,377.813
		h-1.312v-2.625h1.312V377.813z M447.523,372.564h-1.312v-2.625h1.312V372.564z M447.523,367.314h-1.312v-2.625h1.312V367.314z
		 M447.523,362.065h-1.312v-2.625h1.312V362.065z M447.523,356.815h-1.312v-2.625h1.312V356.815z M447.523,351.566h-1.312v-2.625
		h1.312V351.566z M447.523,346.316h-1.312v-2.625h1.312V346.316z M447.523,341.067h-1.312v-2.625h1.312V341.067z M447.523,335.817
		h-1.312v-2.625h1.312V335.817z M447.523,330.568h-1.312v-2.625h1.312V330.568z M447.523,325.318h-1.312v-2.625h1.312V325.318z
		 M447.523,320.068h-1.312v-2.625h1.312V320.068z M447.523,314.819h-1.312v-2.625h1.312V314.819z M447.523,309.569h-1.312v-2.625
		h1.312V309.569z M447.523,304.32h-1.312v-2.625h1.312V304.32z M447.523,299.07h-1.312v-2.625h1.312V299.07z M447.523,293.821
		h-1.312v-2.625h1.312V293.821z M447.523,288.571h-1.312v-2.625h1.312V288.571z M447.523,283.322h-1.312v-2.625h1.312V283.322z
		 M447.523,278.072h-1.312v-2.625h1.312V278.072z M447.523,272.823h-1.312v-2.625h1.312V272.823z M447.523,267.573h-1.312v-2.625
		h1.312V267.573z M447.523,262.323h-1.312v-2.625h1.312V262.323z M447.523,257.074h-1.312v-2.625h1.312V257.074z M447.523,251.824
		h-1.312V249.2h1.312V251.824z M447.523,246.575h-1.312v-2.625h1.312V246.575z M447.523,241.325h-1.312v-2.625h1.312V241.325z
		 M447.523,236.076h-1.312v-1.312h1.312V236.076z"/>
</g>
<g id="XMLID_1128_">
	<g id="XMLID_1129_">
		<rect x="511.83" y="234.763" fill="#38FFA1" width="1.312" height="767.745"/>
	</g>
</g>
<g id="XMLID_1126_">
	<g id="XMLID_1127_">
		<rect x="610.259" y="234.763" fill="#38FFA1" width="1.312" height="767.745"/>
	</g>
</g>
<g id="XMLID_1120_">
	<g>
		<rect x="414.057" y="299.726" fill="#38FFA1" width="1.312" height="1.312"/>
	</g>
	<g>
		<path fill="#38FFA1" d="M705.407,301.039h-2.625v-1.312h2.625V301.039z M700.157,301.039h-2.625v-1.312h2.625V301.039z
			 M694.908,301.039h-2.625v-1.312h2.625V301.039z M689.527,301.039h-2.625v-1.312h2.625V301.039z M684.277,301.039h-2.625v-1.312
			h2.625V301.039z M679.028,301.039h-2.625v-1.312h2.625V301.039z M673.778,301.039h-2.625v-1.312h2.625V301.039z M668.529,301.039
			h-2.625v-1.312h2.625V301.039z M663.148,301.039h-2.625v-1.312h2.625V301.039z M657.898,301.039h-2.625v-1.312h2.625V301.039z
			 M652.649,301.039h-2.625v-1.312h2.625V301.039z M647.399,301.039h-2.625v-1.312h2.625V301.039z M642.15,301.039h-2.625v-1.312
			h2.625V301.039z M636.9,301.039h-2.625v-1.312h2.625V301.039z M631.519,301.039h-2.625v-1.312h2.625V301.039z M626.27,301.039
			h-2.625v-1.312h2.625V301.039z M621.02,301.039h-2.625v-1.312h2.625V301.039z M615.771,301.039h-2.625v-1.312h2.625V301.039z
			 M610.521,301.039h-2.625v-1.312h2.625V301.039z M605.141,301.039h-2.625v-1.312h2.625V301.039z M599.891,301.039h-2.625v-1.312
			h2.625V301.039z M594.641,301.039h-2.625v-1.312h2.625V301.039z M589.392,301.039h-2.625v-1.312h2.625V301.039z M584.142,301.039
			h-2.625v-1.312h2.625V301.039z M578.893,301.039h-2.625v-1.312h2.625V301.039z M573.512,301.039h-2.625v-1.312h2.625V301.039z
			 M568.262,301.039h-2.625v-1.312h2.625V301.039z M563.013,301.039h-2.625v-1.312h2.625V301.039z M557.763,301.039h-2.625v-1.312
			h2.625V301.039z M552.514,301.039h-2.625v-1.312h2.625V301.039z M547.264,301.039h-2.625v-1.312h2.625V301.039z M541.884,301.039
			h-2.625v-1.312h2.625V301.039z M536.634,301.039h-2.625v-1.312h2.625V301.039z M531.384,301.039h-2.625v-1.312h2.625V301.039z
			 M526.135,301.039h-2.625v-1.312h2.625V301.039z M520.885,301.039h-2.625v-1.312h2.625V301.039z M515.505,301.039h-2.625v-1.312
			h2.625V301.039z M510.255,301.039h-2.625v-1.312h2.625V301.039z M505.006,301.039h-2.625v-1.312h2.625V301.039z M499.756,301.039
			h-2.625v-1.312h2.625V301.039z M494.506,301.039h-2.625v-1.312h2.625V301.039z M489.257,301.039h-2.625v-1.312h2.625V301.039z
			 M483.876,301.039h-2.625v-1.312h2.625V301.039z M478.627,301.039h-2.625v-1.312h2.625V301.039z M473.377,301.039h-2.625v-1.312
			h2.625V301.039z M468.128,301.039h-2.625v-1.312h2.625V301.039z M462.878,301.039h-2.625v-1.312h2.625V301.039z M457.497,301.039
			h-2.625v-1.312h2.625V301.039z M452.248,301.039h-2.625v-1.312h2.625V301.039z M446.998,301.039h-2.625v-1.312h2.625V301.039z
			 M441.749,301.039h-2.625v-1.312h2.625V301.039z M436.499,301.039h-2.625v-1.312h2.625V301.039z M431.25,301.039h-2.625v-1.312
			h2.625V301.039z M425.869,301.039h-2.625v-1.312h2.625V301.039z M420.619,301.039h-2.625v-1.312h2.625V301.039z"/>
	</g>
	<g>
		<rect x="708.031" y="299.726" fill="#38FFA1" width="1.312" height="1.312"/>
	</g>
</g>
<g id="XMLID_1114_">
	<g>
		<rect x="414.057" y="266.917" fill="#38FFA1" width="1.312" height="1.312"/>
	</g>
	<g>
		<path fill="#38FFA1" d="M705.407,268.229h-2.625v-1.312h2.625V268.229z M700.157,268.229h-2.625v-1.312h2.625V268.229z
			 M694.908,268.229h-2.625v-1.312h2.625V268.229z M689.527,268.229h-2.625v-1.312h2.625V268.229z M684.277,268.229h-2.625v-1.312
			h2.625V268.229z M679.028,268.229h-2.625v-1.312h2.625V268.229z M673.778,268.229h-2.625v-1.312h2.625V268.229z M668.529,268.229
			h-2.625v-1.312h2.625V268.229z M663.148,268.229h-2.625v-1.312h2.625V268.229z M657.898,268.229h-2.625v-1.312h2.625V268.229z
			 M652.649,268.229h-2.625v-1.312h2.625V268.229z M647.399,268.229h-2.625v-1.312h2.625V268.229z M642.15,268.229h-2.625v-1.312
			h2.625V268.229z M636.9,268.229h-2.625v-1.312h2.625V268.229z M631.519,268.229h-2.625v-1.312h2.625V268.229z M626.27,268.229
			h-2.625v-1.312h2.625V268.229z M621.02,268.229h-2.625v-1.312h2.625V268.229z M615.771,268.229h-2.625v-1.312h2.625V268.229z
			 M610.521,268.229h-2.625v-1.312h2.625V268.229z M605.141,268.229h-2.625v-1.312h2.625V268.229z M599.891,268.229h-2.625v-1.312
			h2.625V268.229z M594.641,268.229h-2.625v-1.312h2.625V268.229z M589.392,268.229h-2.625v-1.312h2.625V268.229z M584.142,268.229
			h-2.625v-1.312h2.625V268.229z M578.893,268.229h-2.625v-1.312h2.625V268.229z M573.512,268.229h-2.625v-1.312h2.625V268.229z
			 M568.262,268.229h-2.625v-1.312h2.625V268.229z M563.013,268.229h-2.625v-1.312h2.625V268.229z M557.763,268.229h-2.625v-1.312
			h2.625V268.229z M552.514,268.229h-2.625v-1.312h2.625V268.229z M547.264,268.229h-2.625v-1.312h2.625V268.229z M541.884,268.229
			h-2.625v-1.312h2.625V268.229z M536.634,268.229h-2.625v-1.312h2.625V268.229z M531.384,268.229h-2.625v-1.312h2.625V268.229z
			 M526.135,268.229h-2.625v-1.312h2.625V268.229z M520.885,268.229h-2.625v-1.312h2.625V268.229z M515.505,268.229h-2.625v-1.312
			h2.625V268.229z M510.255,268.229h-2.625v-1.312h2.625V268.229z M505.006,268.229h-2.625v-1.312h2.625V268.229z M499.756,268.229
			h-2.625v-1.312h2.625V268.229z M494.506,268.229h-2.625v-1.312h2.625V268.229z M489.257,268.229h-2.625v-1.312h2.625V268.229z
			 M483.876,268.229h-2.625v-1.312h2.625V268.229z M478.627,268.229h-2.625v-1.312h2.625V268.229z M473.377,268.229h-2.625v-1.312
			h2.625V268.229z M468.128,268.229h-2.625v-1.312h2.625V268.229z M462.878,268.229h-2.625v-1.312h2.625V268.229z M457.497,268.229
			h-2.625v-1.312h2.625V268.229z M452.248,268.229h-2.625v-1.312h2.625V268.229z M446.998,268.229h-2.625v-1.312h2.625V268.229z
			 M441.749,268.229h-2.625v-1.312h2.625V268.229z M436.499,268.229h-2.625v-1.312h2.625V268.229z M431.25,268.229h-2.625v-1.312
			h2.625V268.229z M425.869,268.229h-2.625v-1.312h2.625V268.229z M420.619,268.229h-2.625v-1.312h2.625V268.229z"/>
	</g>
	<g>
		<rect x="708.031" y="266.917" fill="#38FFA1" width="1.312" height="1.312"/>
	</g>
</g>
<g id="XMLID_1101_">
	<g id="XMLID_1108_">
		
			<rect x="462.569" y="883.685" transform="matrix(0.7071 0.7071 -0.7071 0.7071 809.7651 -48.3323)" fill="#38FFA1" width="1.312" height="139.243"/>
	</g>
	<g id="XMLID_1102_">
		
			<rect x="393.663" y="952.737" transform="matrix(0.7071 0.7071 -0.7071 0.7071 809.8436 -48.3493)" fill="#38FFA1" width="139.243" height="1.312"/>
	</g>
</g>
<g id="XMLID_1088_">
	<g id="XMLID_1095_">
		
			<rect x="659.426" y="883.684" transform="matrix(0.7071 0.7071 -0.7071 0.7071 867.4221 -187.5323)" fill="#38FFA1" width="1.312" height="139.243"/>
	</g>
	<g id="XMLID_1089_">
		
			<rect x="590.523" y="952.734" transform="matrix(0.7071 0.7071 -0.7071 0.7071 867.5004 -187.5509)" fill="#38FFA1" width="139.243" height="1.312"/>
	</g>
</g>
<g id="XMLID_1075_">
	<g id="XMLID_1082_">
		
			<rect x="462.563" y="214.37" transform="matrix(0.7071 0.7071 -0.7071 0.7071 336.4855 -244.3661)" fill="#38FFA1" width="1.312" height="139.243"/>
	</g>
	<g id="XMLID_1076_">
		
			<rect x="393.657" y="283.407" transform="matrix(0.7071 0.7071 -0.7071 0.7071 336.554 -244.3875)" fill="#38FFA1" width="139.243" height="1.312"/>
	</g>
</g>
<g id="XMLID_150_">
	<g id="XMLID_1031_">
		
			<rect x="659.42" y="214.368" transform="matrix(0.7071 0.7071 -0.7071 0.7071 394.1424 -383.5659)" fill="#38FFA1" width="1.312" height="139.243"/>
	</g>
	<g id="XMLID_151_">
		
			<rect x="590.516" y="283.404" transform="matrix(0.7071 0.7071 -0.7071 0.7071 394.2109 -383.5883)" fill="#38FFA1" width="139.243" height="1.312"/>
	</g>
</g>
</svg>
