<?xml version="1.0" encoding="utf-8"?>
<!-- Generator: Adobe Illustrator 19.0.0, SVG Export Plug-In . SVG Version: 6.00 Build 0)  -->
<!DOCTYPE svg PUBLIC "-//W3C//DTD SVG 1.1//EN" "http://www.w3.org/Graphics/SVG/1.1/DTD/svg11.dtd">
<svg version="1.1" id="Layer_1" xmlns="http://www.w3.org/2000/svg" xmlns:xlink="http://www.w3.org/1999/xlink" x="0px" y="0px"
	 viewBox="170 68.8 710 405.2" style="enable-background:new 170 68.8 710 405.2;" xml:space="preserve">
<style type="text/css">
	.st0{fill:#444444;}
	.st1{fill:#38FFA1;}
</style>
<g>
	<g>
		<rect x="559" y="226.5" class="st0" width="145.5" height="29.1"/>
	</g>
	<g>
		<rect x="559" y="183" class="st0" width="130.8" height="29.1"/>
	</g>
	<g>
		<rect x="559" y="270" class="st0" width="116.4" height="29.1"/>
	</g>
	<g>
		<path class="st0" d="M861.3,183h-8.4h-21.6h-68.6v-17.6v-37.7v-2.9h-2.9h-11.5H548.6H527h-8.4h-17.9V283v16.4v46.7v11.5v58.2h11.5
			h17.6h17.6h12.4l14.4-58.2h42.6v58.2h2.9H646h159.1l14.4,58.2h12.4h17.6H867h11.5v-58.2v-11.5v-46.7v-16.4V183H861.3z
			 M581.8,328.2H559h-7.2l-14.4,58.2h-7.2v-29.1v-11.5v-40.6v-18.4V153.9h11.2h26.5h165.7v174.6L581.8,328.2L581.8,328.2z
			 M849.7,344.6v18.4v40.6v11.5v29.4h-7.2l-14.4-58.2h-7.2h-22.8H646.3v-29.1h87.3h26.2h2.9v-43.5h43.5v-29.1h-43.5v-14.4h58.2
			v-29.1h-58.2v-29.1h49.6h26.5H850v132.5L849.7,344.6L849.7,344.6z"/>
	</g>
</g>
<g id="XMLID_1319_">
	<g>
		<path class="st0" d="M219.6,388.7h66.6l6.9,27.4h28.2l-27.4-109.2v-27.4h-81.8v27.4l-27.4,109.2h28.2L219.6,388.7z M240,306.9
			h25.6l13.5,54.7h-52.7L240,306.9z"/>
	</g>
</g>
<g>
	<path class="st1" d="M208,406.6c-0.9,0-2,0-2.9-0.3l0.3-1.4c0.9,0,1.7,0.3,2.9,0.3L208,406.6z M211.2,406.6v-1.4c0.9,0,2,0,2.9-0.3
		l0.3,1.4C212.9,406.6,212.1,406.6,211.2,406.6z M202.3,406c-0.9-0.3-2-0.3-2.9-0.6l0.3-1.4c0.9,0.3,1.7,0.6,2.9,0.6L202.3,406z
		 M217,406l-0.3-1.4c0.9-0.3,1.7-0.3,2.9-0.6l0.3,1.4C218.7,405.7,217.8,405.7,217,406z M196.8,404.6c-0.9-0.3-1.7-0.6-2.6-1.2
		l0.6-1.4c0.9,0.3,1.7,0.6,2.6,0.9L196.8,404.6z M222.4,404.6l-0.6-1.4c0.9-0.3,1.7-0.6,2.6-0.9l0.6,1.4
		C224.5,404,223.3,404.3,222.4,404.6z M191.3,402.3c-0.9-0.6-1.7-0.9-2.6-1.4l0.9-1.2c0.9,0.6,1.7,0.9,2.3,1.4L191.3,402.3z
		 M227.9,402.3l-0.6-1.2c0.9-0.3,1.7-0.9,2.3-1.4l0.9,1.2C229.6,401.4,228.8,401.7,227.9,402.3z M186.4,399.4
		c-0.9-0.6-1.4-1.2-2.3-1.7l0.9-1.2c0.9,0.6,1.4,1.2,2.3,1.7L186.4,399.4z M232.8,399.1l-0.9-1.2c0.9-0.6,1.4-1.2,2.3-1.7l0.9,1.2
		C234.3,397.9,233.7,398.8,232.8,399.1z M181.8,395.6c-0.6-0.6-1.4-1.4-2-2l1.2-0.9c0.6,0.6,1.2,1.4,2,2L181.8,395.6z M237.4,395.6
		l-0.9-1.2c0.6-0.6,1.4-1.4,2-2l1.2,0.9C238.6,394.2,238,394.8,237.4,395.6z M178.1,391.3c-0.6-0.9-1.2-1.4-1.7-2.3l1.2-0.9
		c0.6,0.9,1.2,1.4,1.7,2.3L178.1,391.3z M241.2,391l-1.2-0.9c0.6-0.9,1.2-1.4,1.7-2.3l1.2,0.9C242.3,389.6,241.8,390.4,241.2,391z
		 M174.9,386.4c-0.6-0.9-0.9-1.7-1.4-2.6l1.4-0.6c0.3,0.9,0.9,1.7,1.2,2.6L174.9,386.4z M244.3,386.4l-1.2-0.6
		c0.6-0.9,0.9-1.7,1.2-2.6l1.4,0.6C245.2,384.7,244.9,385.5,244.3,386.4z M172.3,381.2c-0.3-0.9-0.6-1.7-0.9-2.9l1.4-0.3
		c0.3,0.9,0.6,1.7,0.9,2.6L172.3,381.2z M246.9,380.9l-1.4-0.6c0.3-0.9,0.6-1.7,0.9-2.6l1.4,0.3
		C247.5,379.2,247.2,380.1,246.9,380.9z M170.6,375.5c-0.3-0.9-0.3-2-0.6-2.9l1.4-0.3c0,0.9,0.3,1.7,0.6,2.9L170.6,375.5z
		 M248.7,375.5l-1.4-0.3c0.3-0.9,0.3-1.7,0.6-2.9l1.4,0.3C249,373.4,248.7,374.6,248.7,375.5z M169.7,369.7c0-0.9,0-2,0-2.9h1.4
		c0,0.9,0,2,0,2.9H169.7z M249.5,369.7h-1.4c0-0.9,0-1.7,0-2.9l1.4-0.3v0.3C249.5,367.7,249.5,368.8,249.5,369.7z M171.2,363.9h-1.4
		c0-0.9,0.3-2,0.3-2.9l1.4,0.3C171.4,362.2,171.2,363.1,171.2,363.9z M247.8,363.9c0-0.9-0.3-1.7-0.3-2.9l1.4-0.3
		c0,0.9,0.3,2,0.3,2.9L247.8,363.9z M172,358.5l-1.4-0.3c0.3-0.9,0.6-2,0.9-2.9l1.4,0.3C172.3,356.7,172.3,357.6,172,358.5z
		 M247.2,358.2c-0.3-0.9-0.6-1.7-0.9-2.6l1.4-0.3c0.3,0.9,0.6,1.7,0.9,2.9L247.2,358.2L247.2,358.2z M173.7,353l-1.4-0.6
		c0.3-0.9,0.9-1.7,1.2-2.6l1.4,0.6C174.3,351.2,174,352.1,173.7,353z M245.5,353c-0.3-0.9-0.6-1.7-1.2-2.6l1.4-0.6
		c0.3,0.9,0.9,1.7,1.2,2.6L245.5,353z M176.1,348.1l-1.2-0.6c0.6-0.9,0.9-1.7,1.4-2.6l1.2,0.9C176.9,346.4,176.3,347.2,176.1,348.1z
		 M243.2,347.8c-0.6-0.9-0.9-1.7-1.4-2.3l1.2-0.9c0.6,0.9,1.2,1.7,1.4,2.6L243.2,347.8z M179.2,343.5l-1.2-0.9
		c0.6-0.9,1.2-1.4,1.7-2.3l1.2,0.9C180.4,341.7,179.5,342.6,179.2,343.5z M240,343.2c-0.6-0.9-1.2-1.4-1.7-2l1.2-0.9
		c0.6,0.6,1.2,1.4,1.7,2.3L240,343.2z M182.7,339.1l-0.9-1.2c0.6-0.6,1.4-1.4,2.3-2l0.9,1.2C184.1,338,183.5,338.6,182.7,339.1z
		 M236.3,338.9c-0.6-0.6-1.4-1.2-2-1.7l0.9-1.2c0.9,0.6,1.4,1.2,2.3,2L236.3,338.9z M187,335.4l-0.9-1.2c0.9-0.6,1.7-1.2,2.3-1.7
		l0.9,1.2C188.7,334.5,187.9,335.1,187,335.4z M232,335.4c-0.9-0.6-1.4-1.2-2.3-1.4l0.9-1.2c0.9,0.6,1.7,1.2,2.3,1.7L232,335.4z
		 M191.9,332.5l-0.6-1.2c0.9-0.6,1.7-0.9,2.6-1.2l0.6,1.4C193.6,331.7,192.8,332.2,191.9,332.5z M227.1,332.5
		c-0.9-0.3-1.7-0.9-2.6-1.2l0.6-1.4c0.9,0.3,1.7,0.9,2.6,1.2L227.1,332.5z M197.1,330.5l-0.6-1.4c0.9-0.3,1.7-0.6,2.9-0.9l0.3,1.4
		C198.8,329.9,198,330.2,197.1,330.5z M221.9,330.2c-0.9-0.3-1.7-0.6-2.6-0.9l0.3-1.4c0.9,0.3,2,0.6,2.9,0.9L221.9,330.2z
		 M202.6,329.1l-0.3-1.4c0.9-0.3,2-0.3,2.9-0.3l0.3,1.4C204.3,328.8,203.4,328.8,202.6,329.1z M216.4,328.8
		c-0.9-0.3-1.7-0.3-2.9-0.3l0.3-1.4c0.9,0,2,0.3,2.9,0.3L216.4,328.8z M208,328.2v-1.4c0.9,0,2,0,2.9,0v1.4
		C210.1,328.2,208.9,328.2,208,328.2z"/>
</g>
<g>
	<path class="st1" d="M557.6,406.6c-0.9,0-2,0-2.9-0.3l0.3-1.4c0.9,0,1.7,0.3,2.9,0.3L557.6,406.6z M560.4,406.6v-1.4
		c0.9,0,2,0,2.9-0.3l0.3,1.4C562.5,406.6,561.6,406.6,560.4,406.6z M551.8,406c-0.9-0.3-2-0.3-2.9-0.6l0.3-1.4
		c0.9,0.3,1.7,0.6,2.9,0.6L551.8,406z M566.2,406l-0.3-1.4c0.9-0.3,1.7-0.3,2.9-0.6l0.3,1.4C568.2,405.7,567.4,406,566.2,406z
		 M546,404.6c-0.9-0.3-1.7-0.6-2.6-1.2l0.6-1.4c0.9,0.3,1.7,0.6,2.6,0.9L546,404.6z M572,404.6l-0.6-1.4c0.9-0.3,1.7-0.6,2.6-0.9
		l0.6,1.4C573.7,404,572.8,404.3,572,404.6z M540.8,402.3c-0.9-0.6-1.7-0.9-2.6-1.4l0.9-1.2c0.9,0.6,1.7,0.9,2.6,1.4L540.8,402.3z
		 M577.2,402.3l-0.6-1.2c0.9-0.3,1.7-0.9,2.3-1.4l0.9,1.2C578.9,401.4,578,402,577.2,402.3z M536,399.4c-0.9-0.6-1.4-1.2-2.3-1.7
		l0.9-1.2c0.6,0.6,1.4,1.2,2.3,1.7L536,399.4z M582.3,399.4l-0.9-1.2c0.9-0.6,1.4-1.2,2.3-1.7l0.9,1.2
		C583.8,398.2,582.9,398.8,582.3,399.4z M531.3,395.6c-0.6-0.6-1.4-1.4-2-2l1.2-0.9c0.6,0.6,1.2,1.4,2,2L531.3,395.6z M586.7,395.6
		l-0.9-1.2c0.6-0.6,1.4-1.4,2-2l1.2,0.9C588.1,394.2,587.5,394.8,586.7,395.6z M527.6,391.3c-0.6-0.9-1.2-1.4-1.7-2.3l1.2-0.9
		c0.6,0.9,1.2,1.4,1.7,2.3L527.6,391.3z M590.7,391.3l-1.2-0.9c0.6-0.9,1.2-1.4,1.7-2.3l1.2,0.9
		C591.9,389.6,591.3,390.4,590.7,391.3z M524.1,386.4c-0.6-0.9-0.9-1.7-1.4-2.6l1.4-0.6c0.3,0.9,0.9,1.7,1.2,2.6L524.1,386.4z
		 M593.9,386.4l-1.2-0.6c0.6-0.9,0.9-1.7,1.2-2.6l1.4,0.6C594.7,384.7,594.2,385.5,593.9,386.4z M521.8,381.2
		c-0.3-0.9-0.6-1.7-0.9-2.9l1.4-0.3c0.3,0.9,0.6,1.7,0.9,2.6L521.8,381.2z M596.2,380.9l-1.4-0.6c0.3-0.9,0.6-1.7,0.9-2.6l1.4,0.3
		C597,379.2,596.8,380.1,596.2,380.9z M520.1,375.5c-0.3-0.9-0.3-2-0.6-2.9l1.4-0.3c0,0.9,0.3,1.7,0.6,2.9L520.1,375.5z
		 M597.9,375.5l-1.4-0.3c0.3-0.9,0.3-1.7,0.6-2.9l1.4,0.3C598.5,373.7,598.2,374.6,597.9,375.5z M519.2,369.7c0-0.9,0-2,0-2.9h1.4
		c0,0.9,0,2,0,2.9H519.2z M598.8,369.7h-1.4c0-0.9,0-1.7,0-2.9h0.9h0.6C598.8,367.7,598.8,368.8,598.8,369.7z M520.7,364.2h-1.4
		c0-0.9,0.3-2,0.3-2.9l1.4,0.3C520.7,362.2,520.7,363.1,520.7,364.2z M597.3,363.9c0-0.9-0.3-2-0.3-2.9l1.4-0.3c0,0.9,0.3,2,0.3,2.9
		L597.3,363.9z M521.5,358.5l-1.4-0.3c0.3-0.9,0.6-2,0.9-2.9l1.4,0.3C521.8,356.7,521.5,357.6,521.5,358.5z M596.5,358.2
		c-0.3-0.9-0.6-1.7-0.6-2.6l1.4-0.3c0.3,0.9,0.6,1.7,0.9,2.9L596.5,358.2L596.5,358.2z M523,353.3l-1.4-0.6c0.3-0.9,0.9-1.7,1.2-2.6
		l1.4,0.6C523.8,351.5,523.3,352.4,523,353.3z M595,353c-0.3-0.9-0.6-1.7-1.2-2.6l1.4-0.6c0.3,0.9,0.9,1.7,1.2,2.6L595,353z
		 M525.3,348.1l-1.2-0.6c0.6-0.9,0.9-1.7,1.4-2.6l1.2,0.9C526.4,346.4,525.9,347.2,525.3,348.1z M592.4,347.8
		c-0.6-0.9-0.9-1.7-1.4-2.3l1.2-0.9c0.6,0.9,1.2,1.7,1.4,2.6L592.4,347.8z M528.5,343.5l-1.2-0.9c0.6-0.9,1.2-1.4,1.7-2.3l1.2,0.9
		C529.6,342,529,342.6,528.5,343.5z M589.3,343.2c-0.6-0.9-1.2-1.4-1.7-2l1.2-0.9c0.6,0.6,1.2,1.4,1.7,2.3L589.3,343.2z
		 M532.2,339.1l-0.9-1.2c0.6-0.6,1.4-1.4,2.3-2l0.9,1.2C533.6,338,532.8,338.6,532.2,339.1z M585.5,339.1c-0.6-0.6-1.4-1.2-2-1.7
		l0.9-1.2c0.9,0.6,1.4,1.2,2.3,2L585.5,339.1z M536.5,335.7l-0.9-1.2c0.9-0.6,1.7-1.2,2.3-1.7l0.9,1.2
		C538,334.5,537.4,335.1,536.5,335.7z M581.2,335.4c-0.9-0.6-1.4-1.2-2.3-1.4l0.9-1.2c0.9,0.6,1.7,1.2,2.3,1.7L581.2,335.4z
		 M541.4,332.5l-0.6-1.2c0.9-0.6,1.7-0.9,2.6-1.2l0.6,1.4C542.9,331.9,542,332.2,541.4,332.5z M576.6,332.5
		c-0.9-0.3-1.7-0.9-2.6-1.2l0.6-1.4c0.9,0.3,1.7,0.9,2.6,1.2L576.6,332.5z M546.3,330.5l-0.6-1.4c0.9-0.3,1.7-0.6,2.9-0.9l0.3,1.4
		C548.3,329.9,547.5,330.2,546.3,330.5z M571.4,330.2c-0.9-0.3-1.7-0.6-2.6-0.9l0.3-1.4c0.9,0.3,2,0.6,2.9,0.9L571.4,330.2z
		 M551.8,329.1l-0.3-1.4c0.9-0.3,2-0.3,2.9-0.3l0.3,1.4C553.8,328.8,552.7,328.8,551.8,329.1z M565.9,329.1
		c-0.9-0.3-1.7-0.3-2.9-0.3l0.3-1.4c0.9,0,2,0.3,2.9,0.3L565.9,329.1z M557.6,328.5V327c0.9,0,2,0,2.9,0v1.4
		C559.3,328.2,558.4,328.2,557.6,328.5z"/>
</g>
<g>
	<path class="st1" d="M515.2,367.4h-2.9v-1.4h2.9V367.4z M509.4,367.4h-2.9v-1.4h2.9V367.4z M503.7,367.4h-2.9v-1.4h2.9V367.4z
		 M497.9,367.4H495v-1.4h2.9V367.4z M492.2,367.4h-2.9v-1.4h2.9V367.4z M486.4,367.4h-2.9v-1.4h2.9V367.4z M480.6,367.4h-2.9v-1.4
		h2.9V367.4z M474.9,367.4H472v-1.4h2.9V367.4z M469.1,367.4h-2.9v-1.4h2.9V367.4z M463.3,367.4h-2.9v-1.4h2.9V367.4z M457.6,367.4
		h-2.9v-1.4h2.9V367.4z M451.8,367.4h-2.9v-1.4h2.9V367.4z M446,367.4h-2.9v-1.4h2.9V367.4z M440.3,367.4h-2.9v-1.4h2.9V367.4z
		 M434.5,367.4h-2.9v-1.4h2.9V367.4z M428.8,367.4h-2.9v-1.4h2.9V367.4z M423,367.4h-2.9v-1.4h2.9V367.4z M417.2,367.4h-2.9v-1.4
		h2.9V367.4z M411.5,367.4h-2.9v-1.4h2.9V367.4z M405.7,367.4h-2.9v-1.4h2.9V367.4z M399.9,367.4h-2.9v-1.4h2.9V367.4z M394.2,367.4
		h-2.9v-1.4h2.9V367.4z M388.4,367.4h-2.9v-1.4h2.9V367.4z M382.7,367.4h-2.9v-1.4h2.9V367.4z M376.9,367.4H374v-1.4h2.9V367.4z
		 M371.1,367.4h-2.9v-1.4h2.9V367.4z M365.4,367.4h-2.9v-1.4h2.9V367.4z M359.6,367.4h-2.9v-1.4h2.9V367.4z M353.8,367.4H351v-1.4
		h2.9V367.4z M348.1,367.4h-2.9v-1.4h2.9V367.4z M342.3,367.4h-2.9v-1.4h2.9V367.4z M336.6,367.4h-2.9v-1.4h2.9V367.4z M330.8,367.4
		h-2.9v-1.4h2.9V367.4z M325,367.4h-2.9v-1.4h2.9V367.4z M319.3,367.4h-2.9v-1.4h2.9V367.4z M313.5,367.4h-2.9v-1.4h2.9V367.4z
		 M307.7,367.4h-2.9v-1.4h2.9V367.4z M302,367.4h-2.9v-1.4h2.9V367.4z M296.2,367.4h-2.9v-1.4h2.9V367.4z M290.4,367.4h-2.9v-1.4
		h2.9V367.4z M284.7,367.4h-2.9v-1.4h2.9V367.4z M278.9,367.4H276v-1.4h2.9V367.4z M273.2,367.4h-2.9v-1.4h2.9V367.4z M267.4,367.4
		h-2.9v-1.4h2.9V367.4z M261.6,367.4h-2.9v-1.4h2.9V367.4z M255.9,367.4H253v-1.4h2.9V367.4z"/>
</g>
</svg>
