<?xml version="1.0" encoding="utf-8"?>
<!-- Generator: Adobe Illustrator 17.0.0, SVG Export Plug-In . SVG Version: 6.00 Build 0)  -->
<!DOCTYPE svg PUBLIC "-//W3C//DTD SVG 1.1//EN" "http://www.w3.org/Graphics/SVG/1.1/DTD/svg11.dtd">
<svg version="1.1" id="Lager_1" xmlns="http://www.w3.org/2000/svg" xmlns:xlink="http://www.w3.org/1999/xlink" x="0px" y="0px"
	 width="710px" height="1003.35px" viewBox="0 0 710 1003.35" enable-background="new 0 0 710 1003.35" xml:space="preserve">
<g>
	<polygon fill="#FFFFFF" points="125.049,111.155 83.366,111.155 83.366,27.789 125.049,27.789 125.049,0 13.894,0 13.894,27.789 
		55.577,27.789 55.577,111.155 13.894,111.155 13.894,138.943 125.049,138.943 	"/>
	<path fill="#FFFFFF" d="M35.569,611.35h67.804l6.947,27.789h28.622l-27.789-111.155v-27.789H27.789v27.789L0,639.139h28.622
		L35.569,611.35z M56.411,527.984h26.121l13.894,55.577h-53.91L56.411,527.984z"/>
	<polygon fill="#FFFFFF" points="125.049,444.618 41.683,444.618 41.683,416.83 111.155,416.83 111.155,389.041 41.683,389.041 
		41.683,361.252 125.049,361.252 125.049,333.464 13.894,333.464 13.894,472.407 125.049,472.407 	"/>
	<polygon fill="#FFFFFF" points="55.577,277.886 41.683,277.886 41.683,305.675 97.26,305.675 97.26,277.886 83.366,277.886 
		83.366,194.521 125.049,194.521 125.049,166.732 13.894,166.732 13.894,194.521 55.577,194.521 	"/>
	<polygon fill="#FFFFFF" points="69.749,736.399 69.194,736.399 51.965,666.928 0,666.928 0,805.871 27.789,805.871 27.789,694.716 
		30.012,694.716 47.518,764.188 91.425,764.188 108.932,694.716 111.155,694.716 111.155,805.871 138.943,805.871 138.943,666.928 
		86.978,666.928 	"/>
</g>
</svg>
