<?xml version="1.0" encoding="utf-8"?>
<!-- Generator: Adobe Illustrator 17.0.0, SVG Export Plug-In . SVG Version: 6.00 Build 0)  -->
<!DOCTYPE svg PUBLIC "-//W3C//DTD SVG 1.1//EN" "http://www.w3.org/Graphics/SVG/1.1/DTD/svg11.dtd">
<svg version="1.1" id="Lager_1" xmlns="http://www.w3.org/2000/svg" xmlns:xlink="http://www.w3.org/1999/xlink" x="0px" y="0px"
	 width="710px" height="768.587px" viewBox="0 234.763 710 768.587" enable-background="new 0 234.763 710 768.587"
	 xml:space="preserve">
<g id="XMLID_99_">
	<g id="XMLID_147_">
		<polygon fill="#FFFFFF" points="601.072,411.935 571.543,411.935 571.543,352.878 601.072,352.878 601.072,333.192 
			522.329,333.192 522.329,352.878 551.858,352.878 551.858,411.935 522.329,411.935 522.329,431.621 601.072,431.621 		"/>
	</g>
	<g id="XMLID_142_">
		<path fill="#FFFFFF" d="M537.684,766.279h48.033l4.987,19.686h20.342l-19.686-78.743v-19.686h-59.057v19.686l-19.686,78.743
			h20.342L537.684,766.279z M552.514,707.222h18.505l9.843,39.372h-38.19L552.514,707.222z"/>
	</g>
	<g id="XMLID_141_">
		<polygon fill="#FFFFFF" points="601.072,648.165 542.015,648.165 542.015,628.479 591.229,628.479 591.229,608.793 
			542.015,608.793 542.015,589.107 601.072,589.107 601.072,569.421 522.329,569.421 522.329,667.85 601.072,667.85 		"/>
	</g>
	<g id="XMLID_140_">
		<polygon fill="#FFFFFF" points="551.858,530.05 542.015,530.05 542.015,549.736 581.386,549.736 581.386,530.05 571.543,530.05 
			571.543,470.993 601.072,470.993 601.072,451.307 522.329,451.307 522.329,470.993 551.858,470.993 		"/>
	</g>
	<g id="XMLID_100_">
		<polygon fill="#FFFFFF" points="561.832,854.865 561.569,854.865 549.233,805.651 512.486,805.651 512.486,904.08 532.172,904.08 
			532.172,825.336 533.878,825.336 546.083,874.551 577.318,874.551 589.523,825.336 591.229,825.336 591.229,904.08 
			610.915,904.08 610.915,805.651 574.168,805.651 		"/>
	</g>
</g>
</svg>
