<?xml version="1.0" encoding="utf-8"?>
<!-- Generator: Adobe Illustrator 17.0.0, SVG Export Plug-In . SVG Version: 6.00 Build 0)  -->
<!DOCTYPE svg PUBLIC "-//W3C//DTD SVG 1.1//EN" "http://www.w3.org/Graphics/SVG/1.1/DTD/svg11.dtd">
<svg version="1.1" id="Lager_1" xmlns="http://www.w3.org/2000/svg" xmlns:xlink="http://www.w3.org/1999/xlink" x="0px" y="0px"
	 width="710px" height="296.599px" viewBox="0 234.763 710 296.599" enable-background="new 0 234.763 710 296.599"
	 xml:space="preserve">
<g id="XMLID_98_">
	<g id="XMLID_146_">
		<polygon fill="#FFFFFF" points="177.828,412.592 148.299,412.592 148.299,353.535 177.828,353.535 177.828,333.849 
			99.085,333.849 99.085,353.535 128.614,353.535 128.614,412.592 99.085,412.592 99.085,432.278 177.828,432.278 		"/>
	</g>
	<g id="XMLID_141_">
		<path fill="#FFFFFF" d="M419.585,412.592h48.003l4.921,19.686h20.291l-19.686-78.743v-19.686h-59.057v19.686l-19.686,78.743
			h20.291L419.585,412.592z M434.349,353.535h18.475l9.843,39.372h-38.16L434.349,353.535z"/>
	</g>
	<g id="XMLID_140_">
		<polygon fill="#FFFFFF" points="374.686,412.592 315.629,412.592 315.629,392.906 364.843,392.906 364.843,373.22 315.629,373.22 
			315.629,353.535 374.686,353.535 374.686,333.849 295.943,333.849 295.943,432.278 374.686,432.278 		"/>
	</g>
	<g id="XMLID_100_">
		<polygon fill="#FFFFFF" points="227.042,412.592 217.2,412.592 217.2,432.278 256.571,432.278 256.571,412.592 246.728,412.592 
			246.728,353.535 276.257,353.535 276.257,333.849 197.514,333.849 197.514,353.535 227.042,353.535 		"/>
	</g>
	<g id="XMLID_99_">
		<polygon fill="#FFFFFF" points="561.889,383.063 561.513,383.063 549.209,333.849 512.486,333.849 512.486,432.278 
			532.172,432.278 532.172,353.535 533.837,353.535 546.141,402.749 577.261,402.749 589.565,353.535 591.23,353.535 
			591.23,432.278 610.915,432.278 610.915,333.849 574.193,333.849 		"/>
	</g>
</g>
</svg>
