<?xml version="1.0" encoding="utf-8"?>
<!-- Generator: Adobe Illustrator 19.0.0, SVG Export Plug-In . SVG Version: 6.00 Build 0)  -->
<!DOCTYPE svg PUBLIC "-//W3C//DTD SVG 1.1//EN" "http://www.w3.org/Graphics/SVG/1.1/DTD/svg11.dtd">
<svg version="1.1" id="Lager_1" xmlns="http://www.w3.org/2000/svg" xmlns:xlink="http://www.w3.org/1999/xlink" x="0px" y="0px"
	 viewBox="-689.3 630.9 275.2 68.8" style="enable-background:new -689.3 630.9 275.2 68.8;" xml:space="preserve">
<g>
	<polygon points="-640.2,680 -654.9,680 -654.9,650.5 -640.2,650.5 -640.2,640.7 -679.5,640.7 -679.5,650.5 -664.8,650.5 
		-664.8,680 -679.5,680 -679.5,689.8 -640.2,689.8 	"/>
	<path d="M-519.5,680h24l2.5,9.8h10.1l-9.8-39.3v-9.8h-29.5v9.8l-9.8,39.3h10.1L-519.5,680z M-512.1,650.5h9.2l4.9,19.7h-19
		L-512.1,650.5z"/>
	<polygon points="-541.9,680 -571.4,680 -571.4,670.2 -546.8,670.2 -546.8,660.4 -571.4,660.4 -571.4,650.5 -541.9,650.5 
		-541.9,640.7 -581.2,640.7 -581.2,689.8 -541.9,689.8 	"/>
	<polygon points="-615.6,680 -620.5,680 -620.5,689.8 -600.9,689.8 -600.9,680 -605.8,680 -605.8,650.5 -591.1,650.5 -591.1,640.7 
		-630.4,640.7 -630.4,650.5 -615.6,650.5 	"/>
	<polygon points="-448.5,665.3 -448.7,665.3 -454.8,640.7 -473.1,640.7 -473.1,689.8 -463.3,689.8 -463.3,650.5 -462.5,650.5 
		-456.3,675.1 -440.8,675.1 -434.7,650.5 -433.8,650.5 -433.8,689.8 -424,689.8 -424,640.7 -442.3,640.7 	"/>
</g>
</svg>
