<?xml version="1.0" encoding="utf-8"?>
<!-- Generator: Adobe Illustrator 17.0.0, SVG Export Plug-In . SVG Version: 6.00 Build 0)  -->
<!DOCTYPE svg PUBLIC "-//W3C//DTD SVG 1.1//EN" "http://www.w3.org/Graphics/SVG/1.1/DTD/svg11.dtd">
<svg version="1.1" id="Lager_1" xmlns="http://www.w3.org/2000/svg" xmlns:xlink="http://www.w3.org/1999/xlink" x="0px" y="0px"
	 width="710px" height="296.599px" viewBox="0 234.763 710 296.599" enable-background="new 0 234.763 710 296.599"
	 xml:space="preserve">
<g id="XMLID_1078_">
	<path fill="#38FFA1" d="M710,531.363H0V234.763h710V531.363z M1.312,530.05h707.375V236.076H1.312V530.05z"/>
</g>
<g id="XMLID_1077_">
	<g>
		<rect x="32.81" y="235.42" fill="#38FFA1" width="1.312" height="1.312"/>
	</g>
	<g>
		<path fill="#38FFA1" d="M34.122,526.758H32.81v-2.638h1.312V526.758z M34.122,521.484H32.81v-2.636h1.312V521.484z
			 M34.122,516.211H32.81v-2.638h1.312V516.211z M34.122,510.937H32.81v-2.636h1.312V510.937z M34.122,505.665H32.81v-2.636h1.312
			V505.665z M34.122,500.391H32.81v-2.636h1.312V500.391z M34.122,495.118H32.81v-2.636h1.312V495.118z M34.122,489.844H32.81
			v-2.636h1.312V489.844z M34.122,484.572H32.81v-2.636h1.312V484.572z M34.122,479.298H32.81v-2.636h1.312V479.298z
			 M34.122,474.025H32.81v-2.636h1.312V474.025z M34.122,468.753H32.81v-2.638h1.312V468.753z M34.122,463.479H32.81v-2.636h1.312
			V463.479z M34.122,458.206H32.81v-2.638h1.312V458.206z M34.122,452.932H32.81v-2.636h1.312V452.932z M34.122,447.66H32.81v-2.636
			h1.312V447.66z M34.122,442.386H32.81v-2.636h1.312V442.386z M34.122,437.113H32.81v-2.636h1.312V437.113z M34.122,431.839H32.81
			v-2.636h1.312V431.839z M34.122,426.567H32.81v-2.636h1.312V426.567z M34.122,421.294H32.81v-2.638h1.312V421.294z M34.122,416.02
			H32.81v-2.636h1.312V416.02z M34.122,410.747H32.81v-2.638h1.312V410.747z M34.122,405.474H32.81v-2.636h1.312V405.474z
			 M34.122,400.201H32.81v-2.636h1.312V400.201z M34.122,394.927H32.81v-2.636h1.312V394.927z M34.122,389.654H32.81v-2.636h1.312
			V389.654z M34.122,384.381H32.81v-2.636h1.312V384.381z M34.122,379.108H32.81v-2.636h1.312V379.108z M34.122,373.835H32.81
			v-2.638h1.312V373.835z M34.122,368.561H32.81v-2.636h1.312V368.561z M34.122,363.289H32.81v-2.638h1.312V363.289z
			 M34.122,358.015H32.81v-2.636h1.312V358.015z M34.122,352.742H32.81v-2.638h1.312V352.742z M34.122,347.468H32.81v-2.636h1.312
			V347.468z M34.122,342.196H32.81v-2.636h1.312V342.196z M34.122,336.922H32.81v-2.636h1.312V336.922z M34.122,331.649H32.81
			v-2.636h1.312V331.649z M34.122,326.375H32.81v-2.636h1.312V326.375z M34.122,321.103H32.81v-2.636h1.312V321.103z M34.122,315.83
			H32.81v-2.638h1.312V315.83z M34.122,310.556H32.81v-2.636h1.312V310.556z M34.122,305.284H32.81v-2.638h1.312V305.284z
			 M34.122,300.01H32.81v-2.636h1.312V300.01z M34.122,294.737H32.81v-2.636h1.312V294.737z M34.122,289.463H32.81v-2.636h1.312
			V289.463z M34.122,284.191H32.81v-2.636h1.312V284.191z M34.122,278.917H32.81v-2.636h1.312V278.917z M34.122,273.644H32.81
			v-2.636h1.312V273.644z M34.122,268.37H32.81v-2.636h1.312V268.37z M34.122,263.098H32.81v-2.636h1.312V263.098z M34.122,257.825
			H32.81v-2.638h1.312V257.825z M34.122,252.551H32.81v-2.636h1.312V252.551z M34.122,247.279H32.81v-2.638h1.312V247.279z
			 M34.122,242.005H32.81v-2.636h1.312V242.005z"/>
	</g>
	<g>
		<rect x="32.81" y="529.394" fill="#38FFA1" width="1.312" height="1.312"/>
	</g>
</g>
<g id="XMLID_1076_">
	<g>
		<rect x="65.619" y="235.42" fill="#38FFA1" width="1.312" height="1.312"/>
	</g>
	<g>
		<path fill="#38FFA1" d="M66.932,526.758h-1.312v-2.638h1.312V526.758z M66.932,521.484h-1.312v-2.636h1.312V521.484z
			 M66.932,516.211h-1.312v-2.638h1.312V516.211z M66.932,510.937h-1.312v-2.636h1.312V510.937z M66.932,505.665h-1.312v-2.636
			h1.312V505.665z M66.932,500.391h-1.312v-2.636h1.312V500.391z M66.932,495.118h-1.312v-2.636h1.312V495.118z M66.932,489.844
			h-1.312v-2.636h1.312V489.844z M66.932,484.572h-1.312v-2.636h1.312V484.572z M66.932,479.298h-1.312v-2.636h1.312V479.298z
			 M66.932,474.025h-1.312v-2.636h1.312V474.025z M66.932,468.753h-1.312v-2.638h1.312V468.753z M66.932,463.479h-1.312v-2.636
			h1.312V463.479z M66.932,458.206h-1.312v-2.638h1.312V458.206z M66.932,452.932h-1.312v-2.636h1.312V452.932z M66.932,447.66
			h-1.312v-2.636h1.312V447.66z M66.932,442.386h-1.312v-2.636h1.312V442.386z M66.932,437.113h-1.312v-2.636h1.312V437.113z
			 M66.932,431.839h-1.312v-2.636h1.312V431.839z M66.932,426.567h-1.312v-2.636h1.312V426.567z M66.932,421.294h-1.312v-2.638
			h1.312V421.294z M66.932,416.02h-1.312v-2.636h1.312V416.02z M66.932,410.747h-1.312v-2.638h1.312V410.747z M66.932,405.474
			h-1.312v-2.636h1.312V405.474z M66.932,400.201h-1.312v-2.636h1.312V400.201z M66.932,394.927h-1.312v-2.636h1.312V394.927z
			 M66.932,389.654h-1.312v-2.636h1.312V389.654z M66.932,384.381h-1.312v-2.636h1.312V384.381z M66.932,379.108h-1.312v-2.636
			h1.312V379.108z M66.932,373.835h-1.312v-2.638h1.312V373.835z M66.932,368.561h-1.312v-2.636h1.312V368.561z M66.932,363.289
			h-1.312v-2.638h1.312V363.289z M66.932,358.015h-1.312v-2.636h1.312V358.015z M66.932,352.742h-1.312v-2.638h1.312V352.742z
			 M66.932,347.468h-1.312v-2.636h1.312V347.468z M66.932,342.196h-1.312v-2.636h1.312V342.196z M66.932,336.922h-1.312v-2.636
			h1.312V336.922z M66.932,331.649h-1.312v-2.636h1.312V331.649z M66.932,326.375h-1.312v-2.636h1.312V326.375z M66.932,321.103
			h-1.312v-2.636h1.312V321.103z M66.932,315.83h-1.312v-2.638h1.312V315.83z M66.932,310.556h-1.312v-2.636h1.312V310.556z
			 M66.932,305.284h-1.312v-2.638h1.312V305.284z M66.932,300.01h-1.312v-2.636h1.312V300.01z M66.932,294.737h-1.312v-2.636h1.312
			V294.737z M66.932,289.463h-1.312v-2.636h1.312V289.463z M66.932,284.191h-1.312v-2.636h1.312V284.191z M66.932,278.917h-1.312
			v-2.636h1.312V278.917z M66.932,273.644h-1.312v-2.636h1.312V273.644z M66.932,268.37h-1.312v-2.636h1.312V268.37z
			 M66.932,263.098h-1.312v-2.636h1.312V263.098z M66.932,257.825h-1.312v-2.638h1.312V257.825z M66.932,252.551h-1.312v-2.636
			h1.312V252.551z M66.932,247.279h-1.312v-2.638h1.312V247.279z M66.932,242.005h-1.312v-2.636h1.312V242.005z"/>
	</g>
	<g>
		<rect x="65.619" y="529.394" fill="#38FFA1" width="1.312" height="1.312"/>
	</g>
</g>
<g id="XMLID_1075_">
	<rect x="98.429" y="235.42" fill="#38FFA1" width="1.312" height="295.287"/>
</g>
<g id="XMLID_1074_">
	<rect x="610.259" y="235.42" fill="#38FFA1" width="1.312" height="295.287"/>
</g>
<g id="XMLID_1071_">
	<g id="XMLID_1073_">
		<g>
			<rect x="0.656" y="497.241" fill="#38FFA1" width="1.312" height="1.312"/>
		</g>
		<g>
			<path fill="#38FFA1" d="M705.409,498.553h-2.625v-1.312h2.625V498.553z M700.16,498.553h-2.625v-1.312h2.625V498.553z
				 M694.91,498.553h-2.625v-1.312h2.625V498.553z M689.661,498.553h-2.625v-1.312h2.625V498.553z M684.411,498.553h-2.625v-1.312
				h2.625V498.553z M679.161,498.553h-2.625v-1.312h2.625V498.553z M673.912,498.553h-2.625v-1.312h2.625V498.553z M668.662,498.553
				h-2.625v-1.312h2.625V498.553z M663.413,498.553h-2.625v-1.312h2.625V498.553z M658.163,498.553h-2.625v-1.312h2.625V498.553z
				 M652.914,498.553h-2.625v-1.312h2.625V498.553z M647.664,498.553h-2.625v-1.312h2.625V498.553z M642.415,498.553h-2.625v-1.312
				h2.625V498.553z M637.165,498.553h-2.625v-1.312h2.625V498.553z M631.916,498.553h-2.625v-1.312h2.625V498.553z M626.666,498.553
				h-2.625v-1.312h2.625V498.553z M621.417,498.553h-2.625v-1.312h2.625V498.553z M616.167,498.553h-2.625v-1.312h2.625V498.553z
				 M610.917,498.553h-2.625v-1.312h2.625V498.553z M605.668,498.553h-2.625v-1.312h2.625V498.553z M600.418,498.553h-2.625v-1.312
				h2.625V498.553z M595.169,498.553h-2.626v-1.312h2.626V498.553z M589.918,498.553h-2.625v-1.312h2.625V498.553z M584.668,498.553
				h-2.625v-1.312h2.625V498.553z M579.419,498.553h-2.625v-1.312h2.625V498.553z M574.169,498.553h-2.625v-1.312h2.625V498.553z
				 M568.92,498.553h-2.625v-1.312h2.625V498.553z M563.67,498.553h-2.625v-1.312h2.625V498.553z M558.421,498.553h-2.625v-1.312
				h2.625V498.553z M553.171,498.553h-2.625v-1.312h2.625V498.553z M547.922,498.553h-2.625v-1.312h2.625V498.553z M542.672,498.553
				h-2.625v-1.312h2.625V498.553z M537.423,498.553h-2.625v-1.312h2.625V498.553z M532.173,498.553h-2.625v-1.312h2.625V498.553z
				 M526.923,498.553h-2.625v-1.312h2.625V498.553z M521.674,498.553h-2.625v-1.312h2.625V498.553z M516.424,498.553H513.8v-1.312
				h2.625V498.553z M511.175,498.553h-2.625v-1.312h2.625V498.553z M505.925,498.553h-2.625v-1.312h2.625V498.553z M500.676,498.553
				h-2.625v-1.312h2.625V498.553z M495.426,498.553h-2.625v-1.312h2.625V498.553z M490.177,498.553h-2.625v-1.312h2.625V498.553z
				 M484.927,498.553h-2.625v-1.312h2.625V498.553z M479.678,498.553h-2.625v-1.312h2.625V498.553z M474.428,498.553h-2.625v-1.312
				h2.625V498.553z M469.179,498.553h-2.625v-1.312h2.625V498.553z M463.929,498.553h-2.625v-1.312h2.625V498.553z M458.679,498.553
				h-2.625v-1.312h2.625V498.553z M453.43,498.553h-2.625v-1.312h2.625V498.553z M448.18,498.553h-2.625v-1.312h2.625V498.553z
				 M442.931,498.553h-2.625v-1.312h2.625V498.553z M437.681,498.553h-2.625v-1.312h2.625V498.553z M432.432,498.553h-2.625v-1.312
				h2.625V498.553z M427.182,498.553h-2.625v-1.312h2.625V498.553z M421.933,498.553h-2.625v-1.312h2.625V498.553z M416.683,498.553
				h-2.625v-1.312h2.625V498.553z M411.434,498.553h-2.625v-1.312h2.625V498.553z M406.184,498.553h-2.625v-1.312h2.625V498.553z
				 M400.934,498.553h-2.625v-1.312h2.625V498.553z M395.685,498.553h-2.625v-1.312h2.625V498.553z M390.435,498.553h-2.625v-1.312
				h2.625V498.553z M385.185,498.553h-2.625v-1.312h2.625V498.553z M379.936,498.553h-2.625v-1.312h2.625V498.553z M374.686,498.553
				h-2.625v-1.312h2.625V498.553z M369.437,498.553h-2.625v-1.312h2.625V498.553z M364.187,498.553h-2.625v-1.312h2.625V498.553z
				 M358.937,498.553h-2.625v-1.312h2.625V498.553z M353.688,498.553h-2.625v-1.312h2.625V498.553z M348.438,498.553h-2.625v-1.312
				h2.625V498.553z M343.189,498.553h-2.625v-1.312h2.625V498.553z M337.939,498.553h-2.625v-1.312h2.625V498.553z M332.69,498.553
				h-2.625v-1.312h2.625V498.553z M327.44,498.553h-2.625v-1.312h2.625V498.553z M322.191,498.553h-2.625v-1.312h2.625V498.553z
				 M316.941,498.553h-2.625v-1.312h2.625V498.553z M311.692,498.553h-2.625v-1.312h2.625V498.553z M306.442,498.553h-2.625v-1.312
				h2.625V498.553z M301.193,498.553h-2.625v-1.312h2.625V498.553z M295.943,498.553h-2.625v-1.312h2.625V498.553z M290.693,498.553
				h-2.625v-1.312h2.625V498.553z M285.444,498.553h-2.625v-1.312h2.625V498.553z M280.194,498.553h-2.625v-1.312h2.625V498.553z
				 M274.945,498.553h-2.625v-1.312h2.625V498.553z M269.695,498.553h-2.625v-1.312h2.625V498.553z M264.446,498.553h-2.625v-1.312
				h2.625V498.553z M259.196,498.553h-2.625v-1.312h2.625V498.553z M253.947,498.553h-2.625v-1.312h2.625V498.553z M248.697,498.553
				h-2.625v-1.312h2.625V498.553z M243.448,498.553h-2.625v-1.312h2.625V498.553z M238.198,498.553h-2.625v-1.312h2.625V498.553z
				 M232.948,498.553h-2.625v-1.312h2.625V498.553z M227.699,498.553h-2.625v-1.312h2.625V498.553z M222.449,498.553h-2.625v-1.312
				h2.625V498.553z M217.2,498.553h-2.625v-1.312h2.625V498.553z M211.95,498.553h-2.625v-1.312h2.625V498.553z M206.701,498.553
				h-2.625v-1.312h2.625V498.553z M201.451,498.553h-2.625v-1.312h2.625V498.553z M196.202,498.553h-2.625v-1.312h2.625V498.553z
				 M190.952,498.553h-2.625v-1.312h2.625V498.553z M185.703,498.553h-2.625v-1.312h2.625V498.553z M180.453,498.553h-2.625v-1.312
				h2.625V498.553z M175.203,498.553h-2.625v-1.312h2.625V498.553z M169.954,498.553h-2.625v-1.312h2.625V498.553z M164.704,498.553
				h-2.625v-1.312h2.625V498.553z M159.455,498.553h-2.625v-1.312h2.625V498.553z M154.205,498.553h-2.625v-1.312h2.625V498.553z
				 M148.956,498.553h-2.625v-1.312h2.625V498.553z M143.706,498.553h-2.625v-1.312h2.625V498.553z M138.457,498.553h-2.625v-1.312
				h2.625V498.553z M133.207,498.553h-2.625v-1.312h2.625V498.553z M127.958,498.553h-2.625v-1.312h2.625V498.553z M122.708,498.553
				h-2.625v-1.312h2.625V498.553z M117.459,498.553h-2.625v-1.312h2.625V498.553z M112.209,498.553h-2.625v-1.312h2.625V498.553z
				 M106.959,498.553h-2.625v-1.312h2.625V498.553z M101.71,498.553h-2.625v-1.312h2.625V498.553z M96.46,498.553h-2.625v-1.312
				h2.625V498.553z M91.211,498.553h-2.625v-1.312h2.625V498.553z M85.961,498.553h-2.625v-1.312h2.625V498.553z M80.712,498.553
				h-2.625v-1.312h2.625V498.553z M75.462,498.553h-2.625v-1.312h2.625V498.553z M70.213,498.553h-2.625v-1.312h2.625V498.553z
				 M64.963,498.553h-2.625v-1.312h2.625V498.553z M59.714,498.553h-2.625v-1.312h2.625V498.553z M54.464,498.553h-2.625v-1.312
				h2.625V498.553z M49.214,498.553H46.59v-1.312h2.625V498.553z M43.965,498.553H41.34v-1.312h2.625V498.553z M38.715,498.553
				h-2.625v-1.312h2.625V498.553z M33.466,498.553h-2.625v-1.312h2.625V498.553z M28.216,498.553h-2.625v-1.312h2.625V498.553z
				 M22.967,498.553h-2.625v-1.312h2.625V498.553z M17.717,498.553h-2.625v-1.312h2.625V498.553z M12.468,498.553H9.843v-1.312
				h2.625V498.553z M7.218,498.553H4.593v-1.312h2.625V498.553z"/>
		</g>
		<g>
			<rect x="708.031" y="497.241" fill="#38FFA1" width="1.312" height="1.312"/>
		</g>
	</g>
	<g id="XMLID_1072_">
		<g>
			<rect x="0.656" y="464.431" fill="#38FFA1" width="1.312" height="1.312"/>
		</g>
		<g>
			<path fill="#38FFA1" d="M705.409,465.743h-2.625v-1.312h2.625V465.743z M700.16,465.743h-2.625v-1.312h2.625V465.743z
				 M694.91,465.743h-2.625v-1.312h2.625V465.743z M689.661,465.743h-2.625v-1.312h2.625V465.743z M684.411,465.743h-2.625v-1.312
				h2.625V465.743z M679.161,465.743h-2.625v-1.312h2.625V465.743z M673.912,465.743h-2.625v-1.312h2.625V465.743z M668.662,465.743
				h-2.625v-1.312h2.625V465.743z M663.413,465.743h-2.625v-1.312h2.625V465.743z M658.163,465.743h-2.625v-1.312h2.625V465.743z
				 M652.914,465.743h-2.625v-1.312h2.625V465.743z M647.664,465.743h-2.625v-1.312h2.625V465.743z M642.415,465.743h-2.625v-1.312
				h2.625V465.743z M637.165,465.743h-2.625v-1.312h2.625V465.743z M631.916,465.743h-2.625v-1.312h2.625V465.743z M626.666,465.743
				h-2.625v-1.312h2.625V465.743z M621.417,465.743h-2.625v-1.312h2.625V465.743z M616.167,465.743h-2.625v-1.312h2.625V465.743z
				 M610.917,465.743h-2.625v-1.312h2.625V465.743z M605.668,465.743h-2.625v-1.312h2.625V465.743z M600.418,465.743h-2.625v-1.312
				h2.625V465.743z M595.169,465.743h-2.626v-1.312h2.626V465.743z M589.918,465.743h-2.625v-1.312h2.625V465.743z M584.668,465.743
				h-2.625v-1.312h2.625V465.743z M579.419,465.743h-2.625v-1.312h2.625V465.743z M574.169,465.743h-2.625v-1.312h2.625V465.743z
				 M568.92,465.743h-2.625v-1.312h2.625V465.743z M563.67,465.743h-2.625v-1.312h2.625V465.743z M558.421,465.743h-2.625v-1.312
				h2.625V465.743z M553.171,465.743h-2.625v-1.312h2.625V465.743z M547.922,465.743h-2.625v-1.312h2.625V465.743z M542.672,465.743
				h-2.625v-1.312h2.625V465.743z M537.423,465.743h-2.625v-1.312h2.625V465.743z M532.173,465.743h-2.625v-1.312h2.625V465.743z
				 M526.923,465.743h-2.625v-1.312h2.625V465.743z M521.674,465.743h-2.625v-1.312h2.625V465.743z M516.424,465.743H513.8v-1.312
				h2.625V465.743z M511.175,465.743h-2.625v-1.312h2.625V465.743z M505.925,465.743h-2.625v-1.312h2.625V465.743z M500.676,465.743
				h-2.625v-1.312h2.625V465.743z M495.426,465.743h-2.625v-1.312h2.625V465.743z M490.177,465.743h-2.625v-1.312h2.625V465.743z
				 M484.927,465.743h-2.625v-1.312h2.625V465.743z M479.678,465.743h-2.625v-1.312h2.625V465.743z M474.428,465.743h-2.625v-1.312
				h2.625V465.743z M469.179,465.743h-2.625v-1.312h2.625V465.743z M463.929,465.743h-2.625v-1.312h2.625V465.743z M458.679,465.743
				h-2.625v-1.312h2.625V465.743z M453.43,465.743h-2.625v-1.312h2.625V465.743z M448.18,465.743h-2.625v-1.312h2.625V465.743z
				 M442.931,465.743h-2.625v-1.312h2.625V465.743z M437.681,465.743h-2.625v-1.312h2.625V465.743z M432.432,465.743h-2.625v-1.312
				h2.625V465.743z M427.182,465.743h-2.625v-1.312h2.625V465.743z M421.933,465.743h-2.625v-1.312h2.625V465.743z M416.683,465.743
				h-2.625v-1.312h2.625V465.743z M411.434,465.743h-2.625v-1.312h2.625V465.743z M406.184,465.743h-2.625v-1.312h2.625V465.743z
				 M400.934,465.743h-2.625v-1.312h2.625V465.743z M395.685,465.743h-2.625v-1.312h2.625V465.743z M390.435,465.743h-2.625v-1.312
				h2.625V465.743z M385.185,465.743h-2.625v-1.312h2.625V465.743z M379.936,465.743h-2.625v-1.312h2.625V465.743z M374.686,465.743
				h-2.625v-1.312h2.625V465.743z M369.437,465.743h-2.625v-1.312h2.625V465.743z M364.187,465.743h-2.625v-1.312h2.625V465.743z
				 M358.937,465.743h-2.625v-1.312h2.625V465.743z M353.688,465.743h-2.625v-1.312h2.625V465.743z M348.438,465.743h-2.625v-1.312
				h2.625V465.743z M343.189,465.743h-2.625v-1.312h2.625V465.743z M337.939,465.743h-2.625v-1.312h2.625V465.743z M332.69,465.743
				h-2.625v-1.312h2.625V465.743z M327.44,465.743h-2.625v-1.312h2.625V465.743z M322.191,465.743h-2.625v-1.312h2.625V465.743z
				 M316.941,465.743h-2.625v-1.312h2.625V465.743z M311.692,465.743h-2.625v-1.312h2.625V465.743z M306.442,465.743h-2.625v-1.312
				h2.625V465.743z M301.193,465.743h-2.625v-1.312h2.625V465.743z M295.943,465.743h-2.625v-1.312h2.625V465.743z M290.693,465.743
				h-2.625v-1.312h2.625V465.743z M285.444,465.743h-2.625v-1.312h2.625V465.743z M280.194,465.743h-2.625v-1.312h2.625V465.743z
				 M274.945,465.743h-2.625v-1.312h2.625V465.743z M269.695,465.743h-2.625v-1.312h2.625V465.743z M264.446,465.743h-2.625v-1.312
				h2.625V465.743z M259.196,465.743h-2.625v-1.312h2.625V465.743z M253.947,465.743h-2.625v-1.312h2.625V465.743z M248.697,465.743
				h-2.625v-1.312h2.625V465.743z M243.448,465.743h-2.625v-1.312h2.625V465.743z M238.198,465.743h-2.625v-1.312h2.625V465.743z
				 M232.948,465.743h-2.625v-1.312h2.625V465.743z M227.699,465.743h-2.625v-1.312h2.625V465.743z M222.449,465.743h-2.625v-1.312
				h2.625V465.743z M217.2,465.743h-2.625v-1.312h2.625V465.743z M211.95,465.743h-2.625v-1.312h2.625V465.743z M206.701,465.743
				h-2.625v-1.312h2.625V465.743z M201.451,465.743h-2.625v-1.312h2.625V465.743z M196.202,465.743h-2.625v-1.312h2.625V465.743z
				 M190.952,465.743h-2.625v-1.312h2.625V465.743z M185.703,465.743h-2.625v-1.312h2.625V465.743z M180.453,465.743h-2.625v-1.312
				h2.625V465.743z M175.203,465.743h-2.625v-1.312h2.625V465.743z M169.954,465.743h-2.625v-1.312h2.625V465.743z M164.704,465.743
				h-2.625v-1.312h2.625V465.743z M159.455,465.743h-2.625v-1.312h2.625V465.743z M154.205,465.743h-2.625v-1.312h2.625V465.743z
				 M148.956,465.743h-2.625v-1.312h2.625V465.743z M143.706,465.743h-2.625v-1.312h2.625V465.743z M138.457,465.743h-2.625v-1.312
				h2.625V465.743z M133.207,465.743h-2.625v-1.312h2.625V465.743z M127.958,465.743h-2.625v-1.312h2.625V465.743z M122.708,465.743
				h-2.625v-1.312h2.625V465.743z M117.459,465.743h-2.625v-1.312h2.625V465.743z M112.209,465.743h-2.625v-1.312h2.625V465.743z
				 M106.959,465.743h-2.625v-1.312h2.625V465.743z M101.71,465.743h-2.625v-1.312h2.625V465.743z M96.46,465.743h-2.625v-1.312
				h2.625V465.743z M91.211,465.743h-2.625v-1.312h2.625V465.743z M85.961,465.743h-2.625v-1.312h2.625V465.743z M80.712,465.743
				h-2.625v-1.312h2.625V465.743z M75.462,465.743h-2.625v-1.312h2.625V465.743z M70.213,465.743h-2.625v-1.312h2.625V465.743z
				 M64.963,465.743h-2.625v-1.312h2.625V465.743z M59.714,465.743h-2.625v-1.312h2.625V465.743z M54.464,465.743h-2.625v-1.312
				h2.625V465.743z M49.214,465.743H46.59v-1.312h2.625V465.743z M43.965,465.743H41.34v-1.312h2.625V465.743z M38.715,465.743
				h-2.625v-1.312h2.625V465.743z M33.466,465.743h-2.625v-1.312h2.625V465.743z M28.216,465.743h-2.625v-1.312h2.625V465.743z
				 M22.967,465.743h-2.625v-1.312h2.625V465.743z M17.717,465.743h-2.625v-1.312h2.625V465.743z M12.468,465.743H9.843v-1.312
				h2.625V465.743z M7.218,465.743H4.593v-1.312h2.625V465.743z"/>
		</g>
		<g>
			<rect x="708.031" y="464.431" fill="#38FFA1" width="1.312" height="1.312"/>
		</g>
	</g>
</g>
<g id="XMLID_1070_">
	<g>
		<rect x="0.656" y="300.383" fill="#38FFA1" width="1.312" height="1.312"/>
	</g>
	<g>
		<path fill="#38FFA1" d="M705.411,301.695h-2.625v-1.312h2.625V301.695z M700.161,301.695h-2.625v-1.312h2.625V301.695z
			 M694.911,301.695h-2.625v-1.312h2.625V301.695z M689.662,301.695h-2.625v-1.312h2.625V301.695z M684.412,301.695h-2.625v-1.312
			h2.625V301.695z M679.163,301.695h-2.626v-1.312h2.626V301.695z M673.912,301.695h-2.625v-1.312h2.625V301.695z M668.662,301.695
			h-2.625v-1.312h2.625V301.695z M663.413,301.695h-2.625v-1.312h2.625V301.695z M658.163,301.695h-2.625v-1.312h2.625V301.695z
			 M652.914,301.695h-2.625v-1.312h2.625V301.695z M647.664,301.695h-2.625v-1.312h2.625V301.695z M642.415,301.695h-2.625v-1.312
			h2.625V301.695z M637.165,301.695h-2.625v-1.312h2.625V301.695z M631.916,301.695h-2.625v-1.312h2.625V301.695z M626.666,301.695
			h-2.625v-1.312h2.625V301.695z M621.417,301.695h-2.625v-1.312h2.625V301.695z M616.167,301.695h-2.625v-1.312h2.625V301.695z
			 M610.917,301.695h-2.625v-1.312h2.625V301.695z M605.668,301.695h-2.625v-1.312h2.625V301.695z M600.418,301.695h-2.625v-1.312
			h2.625V301.695z M595.169,301.695h-2.625v-1.312h2.625V301.695z M589.919,301.695h-2.625v-1.312h2.625V301.695z M584.67,301.695
			h-2.625v-1.312h2.625V301.695z M579.42,301.695h-2.625v-1.312h2.625V301.695z M574.171,301.695h-2.625v-1.312h2.625V301.695z
			 M568.921,301.695h-2.625v-1.312h2.625V301.695z M563.672,301.695h-2.625v-1.312h2.625V301.695z M558.422,301.695h-2.625v-1.312
			h2.625V301.695z M553.172,301.695h-2.625v-1.312h2.625V301.695z M547.923,301.695h-2.625v-1.312h2.625V301.695z M542.673,301.695
			h-2.625v-1.312h2.625V301.695z M537.424,301.695h-2.625v-1.312h2.625V301.695z M532.174,301.695h-2.625v-1.312h2.625V301.695z
			 M526.925,301.695H524.3v-1.312h2.625V301.695z M521.674,301.695h-2.625v-1.312h2.625V301.695z M516.424,301.695H513.8v-1.312
			h2.625V301.695z M511.175,301.695h-2.625v-1.312h2.625V301.695z M505.925,301.695h-2.625v-1.312h2.625V301.695z M500.676,301.695
			h-2.625v-1.312h2.625V301.695z M495.426,301.695h-2.625v-1.312h2.625V301.695z M490.177,301.695h-2.625v-1.312h2.625V301.695z
			 M484.927,301.695h-2.625v-1.312h2.625V301.695z M479.678,301.695h-2.625v-1.312h2.625V301.695z M474.428,301.695h-2.625v-1.312
			h2.625V301.695z M469.179,301.695h-2.625v-1.312h2.625V301.695z M463.929,301.695h-2.625v-1.312h2.625V301.695z M458.679,301.695
			h-2.625v-1.312h2.625V301.695z M453.43,301.695h-2.625v-1.312h2.625V301.695z M448.18,301.695h-2.625v-1.312h2.625V301.695z
			 M442.931,301.695h-2.625v-1.312h2.625V301.695z M437.681,301.695h-2.625v-1.312h2.625V301.695z M432.432,301.695h-2.625v-1.312
			h2.625V301.695z M427.182,301.695h-2.625v-1.312h2.625V301.695z M421.933,301.695h-2.625v-1.312h2.625V301.695z M416.683,301.695
			h-2.625v-1.312h2.625V301.695z M411.434,301.695h-2.625v-1.312h2.625V301.695z M406.184,301.695h-2.625v-1.312h2.625V301.695z
			 M400.934,301.695h-2.625v-1.312h2.625V301.695z M395.685,301.695h-2.625v-1.312h2.625V301.695z M390.435,301.695h-2.625v-1.312
			h2.625V301.695z M385.185,301.695h-2.625v-1.312h2.625V301.695z M379.936,301.695h-2.625v-1.312h2.625V301.695z M374.686,301.695
			h-2.625v-1.312h2.625V301.695z M369.437,301.695h-2.625v-1.312h2.625V301.695z M364.187,301.695h-2.625v-1.312h2.625V301.695z
			 M358.937,301.695h-2.625v-1.312h2.625V301.695z M353.688,301.695h-2.625v-1.312h2.625V301.695z M348.438,301.695h-2.625v-1.312
			h2.625V301.695z M343.189,301.695h-2.625v-1.312h2.625V301.695z M337.939,301.695h-2.625v-1.312h2.625V301.695z M332.69,301.695
			h-2.625v-1.312h2.625V301.695z M327.44,301.695h-2.625v-1.312h2.625V301.695z M322.191,301.695h-2.625v-1.312h2.625V301.695z
			 M316.941,301.695h-2.625v-1.312h2.625V301.695z M311.692,301.695h-2.625v-1.312h2.625V301.695z M306.442,301.695h-2.625v-1.312
			h2.625V301.695z M301.193,301.695h-2.625v-1.312h2.625V301.695z M295.943,301.695h-2.625v-1.312h2.625V301.695z M290.693,301.695
			h-2.625v-1.312h2.625V301.695z M285.444,301.695h-2.625v-1.312h2.625V301.695z M280.194,301.695h-2.625v-1.312h2.625V301.695z
			 M274.945,301.695h-2.625v-1.312h2.625V301.695z M269.695,301.695h-2.625v-1.312h2.625V301.695z M264.446,301.695h-2.625v-1.312
			h2.625V301.695z M259.196,301.695h-2.625v-1.312h2.625V301.695z M253.947,301.695h-2.625v-1.312h2.625V301.695z M248.697,301.695
			h-2.625v-1.312h2.625V301.695z M243.448,301.695h-2.625v-1.312h2.625V301.695z M238.198,301.695h-2.625v-1.312h2.625V301.695z
			 M232.948,301.695h-2.625v-1.312h2.625V301.695z M227.699,301.695h-2.625v-1.312h2.625V301.695z M222.449,301.695h-2.625v-1.312
			h2.625V301.695z M217.2,301.695h-2.625v-1.312h2.625V301.695z M211.95,301.695h-2.625v-1.312h2.625V301.695z M206.701,301.695
			h-2.625v-1.312h2.625V301.695z M201.451,301.695h-2.625v-1.312h2.625V301.695z M196.202,301.695h-2.625v-1.312h2.625V301.695z
			 M190.952,301.695h-2.625v-1.312h2.625V301.695z M185.703,301.695h-2.625v-1.312h2.625V301.695z M180.453,301.695h-2.625v-1.312
			h2.625V301.695z M175.203,301.695h-2.625v-1.312h2.625V301.695z M169.954,301.695h-2.625v-1.312h2.625V301.695z M164.704,301.695
			h-2.625v-1.312h2.625V301.695z M159.455,301.695h-2.625v-1.312h2.625V301.695z M154.205,301.695h-2.625v-1.312h2.625V301.695z
			 M148.956,301.695h-2.625v-1.312h2.625V301.695z M143.706,301.695h-2.625v-1.312h2.625V301.695z M138.457,301.695h-2.625v-1.312
			h2.625V301.695z M133.207,301.695h-2.625v-1.312h2.625V301.695z M127.958,301.695h-2.625v-1.312h2.625V301.695z M122.708,301.695
			h-2.625v-1.312h2.625V301.695z M117.459,301.695h-2.625v-1.312h2.625V301.695z M112.209,301.695h-2.625v-1.312h2.625V301.695z
			 M106.959,301.695h-2.625v-1.312h2.625V301.695z M101.71,301.695h-2.625v-1.312h2.625V301.695z M96.46,301.695h-2.625v-1.312
			h2.625V301.695z M91.211,301.695h-2.625v-1.312h2.625V301.695z M85.961,301.695h-2.625v-1.312h2.625V301.695z M80.712,301.695
			h-2.625v-1.312h2.625V301.695z M75.462,301.695h-2.625v-1.312h2.625V301.695z M70.213,301.695h-2.625v-1.312h2.625V301.695z
			 M64.963,301.695h-2.625v-1.312h2.625V301.695z M59.714,301.695h-2.625v-1.312h2.625V301.695z M54.464,301.695h-2.625v-1.312
			h2.625V301.695z M49.214,301.695H46.59v-1.312h2.625V301.695z M43.965,301.695H41.34v-1.312h2.625V301.695z M38.715,301.695
			h-2.625v-1.312h2.625V301.695z M33.466,301.695h-2.625v-1.312h2.625V301.695z M28.216,301.695h-2.625v-1.312h2.625V301.695z
			 M22.967,301.695h-2.625v-1.312h2.625V301.695z M17.717,301.695h-2.625v-1.312h2.625V301.695z M12.468,301.695H9.843v-1.312h2.625
			V301.695z M7.218,301.695H4.593v-1.312h2.625V301.695z"/>
	</g>
	<g>
		<rect x="708.033" y="300.383" fill="#38FFA1" width="1.312" height="1.312"/>
	</g>
</g>
<g id="XMLID_1069_">
	<g>
		<rect x="0.656" y="267.573" fill="#38FFA1" width="1.312" height="1.312"/>
	</g>
	<g>
		<path fill="#38FFA1" d="M705.411,268.885h-2.625v-1.312h2.625V268.885z M700.161,268.885h-2.625v-1.312h2.625V268.885z
			 M694.911,268.885h-2.625v-1.312h2.625V268.885z M689.662,268.885h-2.625v-1.312h2.625V268.885z M684.412,268.885h-2.625v-1.312
			h2.625V268.885z M679.163,268.885h-2.626v-1.312h2.626V268.885z M673.912,268.885h-2.625v-1.312h2.625V268.885z M668.662,268.885
			h-2.625v-1.312h2.625V268.885z M663.413,268.885h-2.625v-1.312h2.625V268.885z M658.163,268.885h-2.625v-1.312h2.625V268.885z
			 M652.914,268.885h-2.625v-1.312h2.625V268.885z M647.664,268.885h-2.625v-1.312h2.625V268.885z M642.415,268.885h-2.625v-1.312
			h2.625V268.885z M637.165,268.885h-2.625v-1.312h2.625V268.885z M631.916,268.885h-2.625v-1.312h2.625V268.885z M626.666,268.885
			h-2.625v-1.312h2.625V268.885z M621.417,268.885h-2.625v-1.312h2.625V268.885z M616.167,268.885h-2.625v-1.312h2.625V268.885z
			 M610.917,268.885h-2.625v-1.312h2.625V268.885z M605.668,268.885h-2.625v-1.312h2.625V268.885z M600.418,268.885h-2.625v-1.312
			h2.625V268.885z M595.169,268.885h-2.625v-1.312h2.625V268.885z M589.919,268.885h-2.625v-1.312h2.625V268.885z M584.67,268.885
			h-2.625v-1.312h2.625V268.885z M579.42,268.885h-2.625v-1.312h2.625V268.885z M574.171,268.885h-2.625v-1.312h2.625V268.885z
			 M568.921,268.885h-2.625v-1.312h2.625V268.885z M563.672,268.885h-2.625v-1.312h2.625V268.885z M558.422,268.885h-2.625v-1.312
			h2.625V268.885z M553.172,268.885h-2.625v-1.312h2.625V268.885z M547.923,268.885h-2.625v-1.312h2.625V268.885z M542.673,268.885
			h-2.625v-1.312h2.625V268.885z M537.424,268.885h-2.625v-1.312h2.625V268.885z M532.174,268.885h-2.625v-1.312h2.625V268.885z
			 M526.925,268.885H524.3v-1.312h2.625V268.885z M521.674,268.885h-2.625v-1.312h2.625V268.885z M516.424,268.885H513.8v-1.312
			h2.625V268.885z M511.175,268.885h-2.625v-1.312h2.625V268.885z M505.925,268.885h-2.625v-1.312h2.625V268.885z M500.676,268.885
			h-2.625v-1.312h2.625V268.885z M495.426,268.885h-2.625v-1.312h2.625V268.885z M490.177,268.885h-2.625v-1.312h2.625V268.885z
			 M484.927,268.885h-2.625v-1.312h2.625V268.885z M479.678,268.885h-2.625v-1.312h2.625V268.885z M474.428,268.885h-2.625v-1.312
			h2.625V268.885z M469.179,268.885h-2.625v-1.312h2.625V268.885z M463.929,268.885h-2.625v-1.312h2.625V268.885z M458.679,268.885
			h-2.625v-1.312h2.625V268.885z M453.43,268.885h-2.625v-1.312h2.625V268.885z M448.18,268.885h-2.625v-1.312h2.625V268.885z
			 M442.931,268.885h-2.625v-1.312h2.625V268.885z M437.681,268.885h-2.625v-1.312h2.625V268.885z M432.432,268.885h-2.625v-1.312
			h2.625V268.885z M427.182,268.885h-2.625v-1.312h2.625V268.885z M421.933,268.885h-2.625v-1.312h2.625V268.885z M416.683,268.885
			h-2.625v-1.312h2.625V268.885z M411.434,268.885h-2.625v-1.312h2.625V268.885z M406.184,268.885h-2.625v-1.312h2.625V268.885z
			 M400.934,268.885h-2.625v-1.312h2.625V268.885z M395.685,268.885h-2.625v-1.312h2.625V268.885z M390.435,268.885h-2.625v-1.312
			h2.625V268.885z M385.185,268.885h-2.625v-1.312h2.625V268.885z M379.936,268.885h-2.625v-1.312h2.625V268.885z M374.686,268.885
			h-2.625v-1.312h2.625V268.885z M369.437,268.885h-2.625v-1.312h2.625V268.885z M364.187,268.885h-2.625v-1.312h2.625V268.885z
			 M358.937,268.885h-2.625v-1.312h2.625V268.885z M353.688,268.885h-2.625v-1.312h2.625V268.885z M348.438,268.885h-2.625v-1.312
			h2.625V268.885z M343.189,268.885h-2.625v-1.312h2.625V268.885z M337.939,268.885h-2.625v-1.312h2.625V268.885z M332.69,268.885
			h-2.625v-1.312h2.625V268.885z M327.44,268.885h-2.625v-1.312h2.625V268.885z M322.191,268.885h-2.625v-1.312h2.625V268.885z
			 M316.941,268.885h-2.625v-1.312h2.625V268.885z M311.692,268.885h-2.625v-1.312h2.625V268.885z M306.442,268.885h-2.625v-1.312
			h2.625V268.885z M301.193,268.885h-2.625v-1.312h2.625V268.885z M295.943,268.885h-2.625v-1.312h2.625V268.885z M290.693,268.885
			h-2.625v-1.312h2.625V268.885z M285.444,268.885h-2.625v-1.312h2.625V268.885z M280.194,268.885h-2.625v-1.312h2.625V268.885z
			 M274.945,268.885h-2.625v-1.312h2.625V268.885z M269.695,268.885h-2.625v-1.312h2.625V268.885z M264.446,268.885h-2.625v-1.312
			h2.625V268.885z M259.196,268.885h-2.625v-1.312h2.625V268.885z M253.947,268.885h-2.625v-1.312h2.625V268.885z M248.697,268.885
			h-2.625v-1.312h2.625V268.885z M243.448,268.885h-2.625v-1.312h2.625V268.885z M238.198,268.885h-2.625v-1.312h2.625V268.885z
			 M232.948,268.885h-2.625v-1.312h2.625V268.885z M227.699,268.885h-2.625v-1.312h2.625V268.885z M222.449,268.885h-2.625v-1.312
			h2.625V268.885z M217.2,268.885h-2.625v-1.312h2.625V268.885z M211.95,268.885h-2.625v-1.312h2.625V268.885z M206.701,268.885
			h-2.625v-1.312h2.625V268.885z M201.451,268.885h-2.625v-1.312h2.625V268.885z M196.202,268.885h-2.625v-1.312h2.625V268.885z
			 M190.952,268.885h-2.625v-1.312h2.625V268.885z M185.703,268.885h-2.625v-1.312h2.625V268.885z M180.453,268.885h-2.625v-1.312
			h2.625V268.885z M175.203,268.885h-2.625v-1.312h2.625V268.885z M169.954,268.885h-2.625v-1.312h2.625V268.885z M164.704,268.885
			h-2.625v-1.312h2.625V268.885z M159.455,268.885h-2.625v-1.312h2.625V268.885z M154.205,268.885h-2.625v-1.312h2.625V268.885z
			 M148.956,268.885h-2.625v-1.312h2.625V268.885z M143.706,268.885h-2.625v-1.312h2.625V268.885z M138.457,268.885h-2.625v-1.312
			h2.625V268.885z M133.207,268.885h-2.625v-1.312h2.625V268.885z M127.958,268.885h-2.625v-1.312h2.625V268.885z M122.708,268.885
			h-2.625v-1.312h2.625V268.885z M117.459,268.885h-2.625v-1.312h2.625V268.885z M112.209,268.885h-2.625v-1.312h2.625V268.885z
			 M106.959,268.885h-2.625v-1.312h2.625V268.885z M101.71,268.885h-2.625v-1.312h2.625V268.885z M96.46,268.885h-2.625v-1.312
			h2.625V268.885z M91.211,268.885h-2.625v-1.312h2.625V268.885z M85.961,268.885h-2.625v-1.312h2.625V268.885z M80.712,268.885
			h-2.625v-1.312h2.625V268.885z M75.462,268.885h-2.625v-1.312h2.625V268.885z M70.213,268.885h-2.625v-1.312h2.625V268.885z
			 M64.963,268.885h-2.625v-1.312h2.625V268.885z M59.714,268.885h-2.625v-1.312h2.625V268.885z M54.464,268.885h-2.625v-1.312
			h2.625V268.885z M49.214,268.885H46.59v-1.312h2.625V268.885z M43.965,268.885H41.34v-1.312h2.625V268.885z M38.715,268.885
			h-2.625v-1.312h2.625V268.885z M33.466,268.885h-2.625v-1.312h2.625V268.885z M28.216,268.885h-2.625v-1.312h2.625V268.885z
			 M22.967,268.885h-2.625v-1.312h2.625V268.885z M17.717,268.885h-2.625v-1.312h2.625V268.885z M12.468,268.885H9.843v-1.312h2.625
			V268.885z M7.218,268.885H4.593v-1.312h2.625V268.885z"/>
	</g>
	<g>
		<rect x="708.033" y="267.573" fill="#38FFA1" width="1.312" height="1.312"/>
	</g>
</g>
<g id="XMLID_1067_">
	<g id="XMLID_1068_">
		<rect x="0.656" y="333.191" fill="#38FFA1" width="708.689" height="1.312"/>
	</g>
</g>
<g id="XMLID_1065_">
	<g id="XMLID_1066_">
		<rect x="0.656" y="431.621" fill="#38FFA1" width="708.689" height="1.312"/>
	</g>
</g>
<g id="XMLID_1064_">
	<g>
		<rect x="643.068" y="235.42" fill="#38FFA1" width="1.312" height="1.312"/>
	</g>
	<g>
		<path fill="#38FFA1" d="M644.381,526.758h-1.312v-2.638h1.312V526.758z M644.381,521.484h-1.312v-2.636h1.312V521.484z
			 M644.381,516.211h-1.312v-2.638h1.312V516.211z M644.381,510.937h-1.312v-2.636h1.312V510.937z M644.381,505.665h-1.312v-2.636
			h1.312V505.665z M644.381,500.391h-1.312v-2.636h1.312V500.391z M644.381,495.118h-1.312v-2.636h1.312V495.118z M644.381,489.844
			h-1.312v-2.636h1.312V489.844z M644.381,484.572h-1.312v-2.636h1.312V484.572z M644.381,479.298h-1.312v-2.636h1.312V479.298z
			 M644.381,474.025h-1.312v-2.636h1.312V474.025z M644.381,468.753h-1.312v-2.638h1.312V468.753z M644.381,463.479h-1.312v-2.636
			h1.312V463.479z M644.381,458.206h-1.312v-2.638h1.312V458.206z M644.381,452.932h-1.312v-2.636h1.312V452.932z M644.381,447.66
			h-1.312v-2.636h1.312V447.66z M644.381,442.386h-1.312v-2.636h1.312V442.386z M644.381,437.113h-1.312v-2.636h1.312V437.113z
			 M644.381,431.839h-1.312v-2.636h1.312V431.839z M644.381,426.567h-1.312v-2.636h1.312V426.567z M644.381,421.294h-1.312v-2.638
			h1.312V421.294z M644.381,416.02h-1.312v-2.636h1.312V416.02z M644.381,410.747h-1.312v-2.638h1.312V410.747z M644.381,405.474
			h-1.312v-2.636h1.312V405.474z M644.381,400.201h-1.312v-2.636h1.312V400.201z M644.381,394.927h-1.312v-2.636h1.312V394.927z
			 M644.381,389.654h-1.312v-2.636h1.312V389.654z M644.381,384.381h-1.312v-2.636h1.312V384.381z M644.381,379.108h-1.312v-2.636
			h1.312V379.108z M644.381,373.835h-1.312v-2.638h1.312V373.835z M644.381,368.561h-1.312v-2.636h1.312V368.561z M644.381,363.289
			h-1.312v-2.638h1.312V363.289z M644.381,358.015h-1.312v-2.636h1.312V358.015z M644.381,352.742h-1.312v-2.638h1.312V352.742z
			 M644.381,347.468h-1.312v-2.636h1.312V347.468z M644.381,342.196h-1.312v-2.636h1.312V342.196z M644.381,336.922h-1.312v-2.636
			h1.312V336.922z M644.381,331.649h-1.312v-2.636h1.312V331.649z M644.381,326.375h-1.312v-2.636h1.312V326.375z M644.381,321.103
			h-1.312v-2.636h1.312V321.103z M644.381,315.83h-1.312v-2.638h1.312V315.83z M644.381,310.556h-1.312v-2.636h1.312V310.556z
			 M644.381,305.284h-1.312v-2.638h1.312V305.284z M644.381,300.01h-1.312v-2.636h1.312V300.01z M644.381,294.737h-1.312v-2.636
			h1.312V294.737z M644.381,289.463h-1.312v-2.636h1.312V289.463z M644.381,284.191h-1.312v-2.636h1.312V284.191z M644.381,278.917
			h-1.312v-2.636h1.312V278.917z M644.381,273.644h-1.312v-2.636h1.312V273.644z M644.381,268.37h-1.312v-2.636h1.312V268.37z
			 M644.381,263.098h-1.312v-2.636h1.312V263.098z M644.381,257.825h-1.312v-2.638h1.312V257.825z M644.381,252.551h-1.312v-2.636
			h1.312V252.551z M644.381,247.279h-1.312v-2.638h1.312V247.279z M644.381,242.005h-1.312v-2.636h1.312V242.005z"/>
	</g>
	<g>
		<rect x="643.068" y="529.394" fill="#38FFA1" width="1.312" height="1.312"/>
	</g>
</g>
<g id="XMLID_1063_">
	<g>
		<rect x="675.878" y="235.42" fill="#38FFA1" width="1.312" height="1.312"/>
	</g>
	<g>
		<path fill="#38FFA1" d="M677.19,526.758h-1.312v-2.638h1.312V526.758z M677.19,521.484h-1.312v-2.636h1.312V521.484z
			 M677.19,516.211h-1.312v-2.638h1.312V516.211z M677.19,510.937h-1.312v-2.636h1.312V510.937z M677.19,505.665h-1.312v-2.636
			h1.312V505.665z M677.19,500.391h-1.312v-2.636h1.312V500.391z M677.19,495.118h-1.312v-2.636h1.312V495.118z M677.19,489.844
			h-1.312v-2.636h1.312V489.844z M677.19,484.572h-1.312v-2.636h1.312V484.572z M677.19,479.298h-1.312v-2.636h1.312V479.298z
			 M677.19,474.025h-1.312v-2.636h1.312V474.025z M677.19,468.753h-1.312v-2.638h1.312V468.753z M677.19,463.479h-1.312v-2.636
			h1.312V463.479z M677.19,458.206h-1.312v-2.638h1.312V458.206z M677.19,452.932h-1.312v-2.636h1.312V452.932z M677.19,447.66
			h-1.312v-2.636h1.312V447.66z M677.19,442.386h-1.312v-2.636h1.312V442.386z M677.19,437.113h-1.312v-2.636h1.312V437.113z
			 M677.19,431.839h-1.312v-2.636h1.312V431.839z M677.19,426.567h-1.312v-2.636h1.312V426.567z M677.19,421.294h-1.312v-2.638
			h1.312V421.294z M677.19,416.02h-1.312v-2.636h1.312V416.02z M677.19,410.747h-1.312v-2.638h1.312V410.747z M677.19,405.474
			h-1.312v-2.636h1.312V405.474z M677.19,400.201h-1.312v-2.636h1.312V400.201z M677.19,394.927h-1.312v-2.636h1.312V394.927z
			 M677.19,389.654h-1.312v-2.636h1.312V389.654z M677.19,384.381h-1.312v-2.636h1.312V384.381z M677.19,379.108h-1.312v-2.636
			h1.312V379.108z M677.19,373.835h-1.312v-2.638h1.312V373.835z M677.19,368.561h-1.312v-2.636h1.312V368.561z M677.19,363.289
			h-1.312v-2.638h1.312V363.289z M677.19,358.015h-1.312v-2.636h1.312V358.015z M677.19,352.742h-1.312v-2.638h1.312V352.742z
			 M677.19,347.468h-1.312v-2.636h1.312V347.468z M677.19,342.196h-1.312v-2.636h1.312V342.196z M677.19,336.922h-1.312v-2.636
			h1.312V336.922z M677.19,331.649h-1.312v-2.636h1.312V331.649z M677.19,326.375h-1.312v-2.636h1.312V326.375z M677.19,321.103
			h-1.312v-2.636h1.312V321.103z M677.19,315.83h-1.312v-2.638h1.312V315.83z M677.19,310.556h-1.312v-2.636h1.312V310.556z
			 M677.19,305.284h-1.312v-2.638h1.312V305.284z M677.19,300.01h-1.312v-2.636h1.312V300.01z M677.19,294.737h-1.312v-2.636h1.312
			V294.737z M677.19,289.463h-1.312v-2.636h1.312V289.463z M677.19,284.191h-1.312v-2.636h1.312V284.191z M677.19,278.917h-1.312
			v-2.636h1.312V278.917z M677.19,273.644h-1.312v-2.636h1.312V273.644z M677.19,268.37h-1.312v-2.636h1.312V268.37z
			 M677.19,263.098h-1.312v-2.636h1.312V263.098z M677.19,257.825h-1.312v-2.638h1.312V257.825z M677.19,252.551h-1.312v-2.636
			h1.312V252.551z M677.19,247.279h-1.312v-2.638h1.312V247.279z M677.19,242.005h-1.312v-2.636h1.312V242.005z"/>
	</g>
	<g>
		<rect x="675.878" y="529.394" fill="#38FFA1" width="1.312" height="1.312"/>
	</g>
</g>
<g id="XMLID_1060_">
	<g id="XMLID_1062_">
		<g>
			
				<rect x="0.464" y="235.227" transform="matrix(0.7071 0.7071 -0.7071 0.7071 167.123 68.2967)" fill="#38FFA1" width="1.312" height="1.312"/>
		</g>
		<g>
			<path fill="#38FFA1" d="M95.871,331.562l-1.822-1.822l0.928-0.928l1.822,1.822L95.871,331.562z M92.226,327.918l-1.822-1.822
				l0.928-0.928l1.822,1.822L92.226,327.918z M88.582,324.274l-1.822-1.821l0.928-0.928l1.822,1.821L88.582,324.274z M84.938,320.63
				l-1.822-1.822l0.928-0.928l1.822,1.822L84.938,320.63z M81.294,316.985l-1.822-1.821l0.928-0.928l1.822,1.821L81.294,316.985z
				 M77.65,313.341l-1.822-1.822l0.928-0.928l1.822,1.822L77.65,313.341z M74.006,309.696l-1.822-1.821l0.928-0.928l1.822,1.821
				L74.006,309.696z M70.361,306.053l-1.822-1.822l0.928-0.928l1.822,1.822L70.361,306.053z M66.717,302.408l-1.822-1.821
				l0.928-0.928l1.822,1.821L66.717,302.408z M63.073,298.764l-1.822-1.822l0.928-0.928l1.822,1.822L63.073,298.764z M59.428,295.12
				l-1.822-1.822l0.928-0.928l1.822,1.822L59.428,295.12z M55.784,291.475l-1.822-1.822l0.928-0.928l1.822,1.822L55.784,291.475z
				 M52.14,287.832l-1.822-1.822l0.928-0.928l1.822,1.822L52.14,287.832z M48.495,284.187l-1.822-1.822l0.928-0.928l1.822,1.822
				L48.495,284.187z M44.851,280.543l-1.822-1.822l0.928-0.928l1.822,1.822L44.851,280.543z M41.207,276.898l-1.822-1.821
				l0.928-0.928l1.822,1.821L41.207,276.898z M37.563,273.255l-1.822-1.822l0.928-0.928l1.822,1.822L37.563,273.255z M33.918,269.61
				l-1.822-1.821l0.928-0.928l1.822,1.821L33.918,269.61z M30.274,265.966l-1.822-1.822l0.928-0.928l1.822,1.822L30.274,265.966z
				 M26.63,262.321l-1.822-1.821l0.928-0.928l1.822,1.821L26.63,262.321z M22.985,258.677l-1.822-1.822l0.928-0.928l1.822,1.822
				L22.985,258.677z M19.341,255.034l-1.822-1.822l0.928-0.928l1.822,1.822L19.341,255.034z M15.697,251.389l-1.822-1.822
				l0.928-0.928l1.822,1.822L15.697,251.389z M12.052,247.745l-1.822-1.822l0.928-0.928l1.822,1.822L12.052,247.745z M8.408,244.1
				l-1.822-1.822l0.928-0.928l1.822,1.822L8.408,244.1z M4.764,240.456l-1.822-1.822l0.928-0.928l1.822,1.822L4.764,240.456z"/>
		</g>
		<g>
			
				<rect x="97.965" y="332.729" transform="matrix(0.7074 0.7069 -0.7069 0.7074 264.5185 27.8533)" fill="#38FFA1" width="1.313" height="1.312"/>
		</g>
	</g>
	<g id="XMLID_1061_">
		<g>
			
				<rect x="97.965" y="235.227" transform="matrix(0.7071 0.7071 -0.7071 0.7071 195.6803 -0.6468)" fill="#38FFA1" width="1.312" height="1.313"/>
		</g>
		<g>
			<path fill="#38FFA1" d="M3.871,331.561l-0.928-0.928l1.822-1.821l0.928,0.928L3.871,331.561z M7.515,327.917l-0.928-0.928
				l1.822-1.822l0.928,0.928L7.515,327.917z M11.159,324.272l-0.928-0.928l1.822-1.821l0.928,0.928L11.159,324.272z M14.803,320.629
				l-0.928-0.928l1.822-1.822l0.928,0.928L14.803,320.629z M18.448,316.985l-0.928-0.928l1.822-1.822l0.928,0.928L18.448,316.985z
				 M22.092,313.34l-0.928-0.928l1.822-1.822l0.928,0.928L22.092,313.34z M25.736,309.696l-0.928-0.928l1.822-1.822l0.928,0.928
				L25.736,309.696z M29.381,306.051l-0.928-0.928l1.822-1.821l0.928,0.928L29.381,306.051z M33.024,302.408l-0.928-0.928
				l1.822-1.822l0.928,0.928L33.024,302.408z M36.669,298.763l-0.928-0.928l1.822-1.821l0.928,0.928L36.669,298.763z
				 M40.313,295.119l-0.928-0.928l1.822-1.822l0.928,0.928L40.313,295.119z M43.957,291.475l-0.928-0.928l1.822-1.822l0.928,0.928
				L43.957,291.475z M47.602,287.83l-0.928-0.928l1.822-1.821l0.928,0.928L47.602,287.83z M51.246,284.187l-0.928-0.928l1.822-1.822
				l0.928,0.928L51.246,284.187z M54.89,280.542l-0.928-0.928l1.822-1.821l0.928,0.928L54.89,280.542z M58.534,276.898l-0.928-0.928
				l1.822-1.822l0.928,0.928L58.534,276.898z M62.179,273.255l-0.928-0.928l1.822-1.822l0.928,0.928L62.179,273.255z M65.822,269.61
				l-0.928-0.928l1.822-1.822l0.928,0.928L65.822,269.61z M69.467,265.966l-0.928-0.928l1.822-1.822l0.928,0.928L69.467,265.966z
				 M73.111,262.321l-0.928-0.928l1.822-1.821l0.928,0.928L73.111,262.321z M76.755,258.677l-0.928-0.928l1.822-1.822l0.928,0.928
				L76.755,258.677z M80.4,255.032l-0.928-0.928l1.822-1.821l0.928,0.928L80.4,255.032z M84.044,251.389l-0.928-0.928l1.822-1.822
				l0.928,0.928L84.044,251.389z M87.688,247.745l-0.928-0.928l1.822-1.822l0.928,0.928L87.688,247.745z M91.333,244.1l-0.928-0.928
				l1.822-1.822l0.928,0.928L91.333,244.1z M94.977,240.456l-0.928-0.928l1.822-1.822l0.928,0.928L94.977,240.456z"/>
		</g>
		<g>
			
				<rect x="0.465" y="332.727" transform="matrix(0.7071 0.7071 -0.7071 0.7071 236.0659 96.8532)" fill="#38FFA1" width="1.312" height="1.312"/>
		</g>
	</g>
</g>
<g id="XMLID_1057_">
	<g id="XMLID_1059_">
		<g>
			
				<rect x="0.464" y="432.085" transform="matrix(0.7071 0.7071 -0.7071 0.7071 306.3225 125.955)" fill="#38FFA1" width="1.312" height="1.312"/>
		</g>
		<g>
			<path fill="#38FFA1" d="M95.871,528.42l-1.822-1.822l0.928-0.928l1.822,1.823L95.871,528.42z M92.226,524.776l-1.822-1.822
				l0.928-0.928l1.822,1.823L92.226,524.776z M88.582,521.131l-1.822-1.821l0.928-0.928l1.822,1.821L88.582,521.131z
				 M84.938,517.488l-1.822-1.823l0.928-0.928l1.822,1.822L84.938,517.488z M81.294,513.843l-1.822-1.821l0.928-0.928l1.822,1.821
				L81.294,513.843z M77.65,510.199l-1.822-1.822l0.928-0.928l1.822,1.822L77.65,510.199z M74.006,506.554l-1.822-1.821l0.928-0.928
				l1.822,1.821L74.006,506.554z M70.361,502.91l-1.822-1.822l0.928-0.928l1.822,1.822L70.361,502.91z M66.717,499.266l-1.822-1.821
				l0.928-0.928l1.822,1.821L66.717,499.266z M63.073,495.622l-1.822-1.822l0.928-0.928l1.822,1.822L63.073,495.622z
				 M59.428,491.978l-1.822-1.822l0.928-0.928l1.822,1.822L59.428,491.978z M55.784,488.333l-1.822-1.822l0.928-0.928l1.822,1.822
				L55.784,488.333z M52.14,484.69l-1.822-1.822l0.928-0.928l1.822,1.822L52.14,484.69z M48.495,481.045l-1.822-1.822l0.928-0.928
				l1.822,1.822L48.495,481.045z M44.851,477.401l-1.822-1.822l0.928-0.928l1.822,1.822L44.851,477.401z M41.207,473.756
				l-1.822-1.821l0.928-0.928l1.822,1.821L41.207,473.756z M37.563,470.112l-1.822-1.822l0.928-0.928l1.822,1.822L37.563,470.112z
				 M33.918,466.467l-1.822-1.821l0.928-0.928l1.822,1.821L33.918,466.467z M30.274,462.824l-1.822-1.822l0.928-0.928l1.822,1.822
				L30.274,462.824z M26.63,459.179l-1.822-1.821l0.928-0.928l1.822,1.821L26.63,459.179z M22.985,455.535l-1.822-1.822l0.928-0.928
				l1.822,1.822L22.985,455.535z M19.341,451.892l-1.822-1.822l0.928-0.928l1.822,1.822L19.341,451.892z M15.697,448.247
				l-1.822-1.822l0.928-0.928l1.822,1.822L15.697,448.247z M12.052,444.603l-1.822-1.822l0.928-0.928l1.822,1.822L12.052,444.603z
				 M8.408,440.958l-1.822-1.822l0.928-0.928l1.822,1.822L8.408,440.958z M4.764,437.314l-1.822-1.822l0.928-0.928l1.822,1.822
				L4.764,437.314z"/>
		</g>
		<g>
			
				<rect x="97.965" y="529.586" transform="matrix(0.7074 0.7069 -0.7069 0.7074 403.6699 85.4636)" fill="#38FFA1" width="1.313" height="1.312"/>
		</g>
	</g>
	<g id="XMLID_1058_">
		<g>
			
				<rect x="97.965" y="432.085" transform="matrix(0.7071 0.7071 -0.7071 0.7071 334.8798 57.0116)" fill="#38FFA1" width="1.312" height="1.313"/>
		</g>
		<g>
			<path fill="#38FFA1" d="M3.871,528.419l-0.928-0.928l1.822-1.821l0.928,0.928L3.871,528.419z M7.515,524.775l-0.928-0.928
				l1.822-1.823l0.928,0.928L7.515,524.775z M11.159,521.13l-0.928-0.928l1.822-1.821l0.928,0.928L11.159,521.13z M14.803,517.486
				l-0.928-0.928l1.822-1.822l0.928,0.928L14.803,517.486z M18.448,513.843l-0.928-0.928l1.822-1.822l0.928,0.928L18.448,513.843z
				 M22.092,510.198l-0.928-0.928l1.822-1.822l0.928,0.928L22.092,510.198z M25.736,506.554l-0.928-0.928l1.822-1.822l0.928,0.928
				L25.736,506.554z M29.381,502.909l-0.928-0.928l1.822-1.821l0.928,0.928L29.381,502.909z M33.024,499.266l-0.928-0.928
				l1.822-1.822l0.928,0.928L33.024,499.266z M36.669,495.621l-0.928-0.928l1.822-1.821l0.928,0.928L36.669,495.621z
				 M40.313,491.977l-0.928-0.928l1.822-1.822l0.928,0.928L40.313,491.977z M43.957,488.333l-0.928-0.928l1.822-1.822l0.928,0.928
				L43.957,488.333z M47.602,484.688l-0.928-0.928l1.822-1.821l0.928,0.928L47.602,484.688z M51.246,481.045l-0.928-0.928
				l1.822-1.822l0.928,0.928L51.246,481.045z M54.89,477.4l-0.928-0.928l1.822-1.821l0.928,0.928L54.89,477.4z M58.534,473.756
				l-0.928-0.928l1.822-1.822l0.928,0.928L58.534,473.756z M62.179,470.112l-0.928-0.928l1.822-1.822l0.928,0.928L62.179,470.112z
				 M65.822,466.467l-0.928-0.928l1.822-1.822l0.928,0.928L65.822,466.467z M69.467,462.824l-0.928-0.928l1.822-1.822l0.928,0.928
				L69.467,462.824z M73.111,459.179l-0.928-0.928l1.822-1.821l0.928,0.928L73.111,459.179z M76.755,455.535l-0.928-0.928
				l1.822-1.822l0.928,0.928L76.755,455.535z M80.4,451.89l-0.928-0.928l1.822-1.821l0.928,0.928L80.4,451.89z M84.044,448.247
				l-0.928-0.928l1.822-1.822l0.928,0.928L84.044,448.247z M87.688,444.603l-0.928-0.928l1.822-1.822l0.928,0.928L87.688,444.603z
				 M91.333,440.958l-0.928-0.928l1.822-1.822l0.928,0.928L91.333,440.958z M94.977,437.314l-0.928-0.928l1.822-1.822l0.928,0.928
				L94.977,437.314z"/>
		</g>
		<g>
			
				<rect x="0.465" y="529.585" transform="matrix(0.7071 0.7071 -0.7071 0.7071 375.2654 154.5115)" fill="#38FFA1" width="1.312" height="1.312"/>
		</g>
	</g>
</g>
<g id="XMLID_185_">
	<g id="XMLID_1056_">
		<g>
			
				<rect x="610.723" y="235.227" transform="matrix(0.7071 0.7071 -0.7071 0.7071 345.8636 -363.2214)" fill="#38FFA1" width="1.312" height="1.312"/>
		</g>
		<g>
			<path fill="#38FFA1" d="M706.131,331.562l-1.823-1.822l0.928-0.928l1.822,1.822L706.131,331.562z M702.486,327.917l-1.821-1.821
				l0.928-0.928l1.821,1.821L702.486,327.917z M698.842,324.274l-1.822-1.822l0.928-0.928l1.823,1.822L698.842,324.274z
				 M695.197,320.63l-1.821-1.822l0.928-0.928l1.821,1.822L695.197,320.63z M691.554,316.985l-1.822-1.822l0.928-0.928l1.822,1.822
				L691.554,316.985z M687.909,313.341l-1.821-1.822l0.928-0.928l1.821,1.822L687.909,313.341z M684.265,309.696l-1.823-1.822
				l0.928-0.928l1.822,1.822L684.265,309.696z M680.62,306.053l-1.821-1.822l0.928-0.928l1.821,1.822L680.62,306.053z
				 M676.976,302.408l-1.822-1.821l0.928-0.928l1.823,1.821L676.976,302.408z M673.333,298.764l-1.822-1.822l0.928-0.928
				l1.822,1.822L673.333,298.764z M669.688,295.119l-1.823-1.821l0.928-0.928l1.822,1.821L669.688,295.119z M666.044,291.475
				l-1.823-1.822l0.928-0.928l1.822,1.822L666.044,291.475z M662.399,287.832l-1.822-1.822l0.928-0.928l1.823,1.822L662.399,287.832
				z M658.755,284.187l-1.822-1.822l0.928-0.928l1.823,1.822L658.755,284.187z M655.11,280.543l-1.822-1.822l0.928-0.928
				l1.822,1.822L655.11,280.543z M651.467,276.898l-1.823-1.822l0.928-0.928l1.822,1.822L651.467,276.898z M647.822,273.255
				l-1.823-1.822l0.928-0.928l1.822,1.822L647.822,273.255z M644.178,269.61l-1.822-1.821l0.928-0.928l1.823,1.821L644.178,269.61z
				 M640.533,265.966l-1.822-1.822l0.928-0.928l1.823,1.822L640.533,265.966z M636.89,262.321l-1.822-1.821l0.928-0.928l1.822,1.821
				L636.89,262.321z M633.245,258.677l-1.823-1.822l0.928-0.928l1.822,1.822L633.245,258.677z M629.601,255.034l-1.823-1.822
				l0.928-0.928l1.822,1.822L629.601,255.034z M625.956,251.389l-1.822-1.822l0.928-0.928l1.823,1.822L625.956,251.389z
				 M622.312,247.745l-1.822-1.822l0.928-0.928l1.823,1.822L622.312,247.745z M618.667,244.1l-1.822-1.822l0.928-0.928l1.822,1.822
				L618.667,244.1z M615.024,240.456l-1.823-1.822l0.928-0.928l1.822,1.822L615.024,240.456z"/>
		</g>
		<g>
			
				<rect x="708.224" y="332.729" transform="matrix(0.7071 0.7071 -0.7071 0.7071 443.3647 -403.6077)" fill="#38FFA1" width="1.312" height="1.312"/>
		</g>
	</g>
	<g id="XMLID_1054_">
		<g>
			
				<rect x="708.224" y="235.227" transform="matrix(0.7071 0.7071 -0.7071 0.7071 374.421 -432.1651)" fill="#38FFA1" width="1.312" height="1.312"/>
		</g>
		<g>
			<path fill="#38FFA1" d="M614.13,331.561l-0.928-0.928l1.823-1.822l0.928,0.928L614.13,331.561z M617.774,327.917l-0.928-0.928
				l1.822-1.822l0.928,0.928L617.774,327.917z M621.419,324.272l-0.928-0.928l1.822-1.821l0.928,0.928L621.419,324.272z
				 M625.063,320.629l-0.928-0.928l1.822-1.822l0.928,0.928L625.063,320.629z M628.708,316.984l-0.928-0.928l1.821-1.821
				l0.928,0.928L628.708,316.984z M632.351,313.34l-0.928-0.928l1.823-1.822l0.928,0.928L632.351,313.34z M635.996,309.696
				l-0.928-0.928l1.821-1.822l0.928,0.928L635.996,309.696z M639.64,306.051l-0.928-0.928l1.822-1.822l0.928,0.928L639.64,306.051z
				 M643.285,302.408l-0.928-0.928l1.821-1.822l0.928,0.928L643.285,302.408z M646.929,298.763l-0.928-0.928l1.823-1.821
				l0.928,0.928L646.929,298.763z M650.572,295.119l-0.928-0.928l1.823-1.822l0.928,0.928L650.572,295.119z M654.217,291.474
				l-0.928-0.928l1.822-1.821l0.928,0.928L654.217,291.474z M657.861,287.83l-0.928-0.928l1.822-1.822l0.928,0.928L657.861,287.83z
				 M661.506,284.187l-0.928-0.928l1.822-1.822l0.928,0.928L661.506,284.187z M665.149,280.542l-0.928-0.928l1.823-1.821
				l0.928,0.928L665.149,280.542z M668.794,276.898l-0.928-0.928l1.821-1.822l0.928,0.928L668.794,276.898z M672.438,273.253
				l-0.928-0.928l1.822-1.821l0.928,0.928L672.438,273.253z M676.083,269.61l-0.928-0.928l1.821-1.822l0.928,0.928L676.083,269.61z
				 M679.727,265.966l-0.928-0.928l1.822-1.822l0.928,0.928L679.727,265.966z M683.372,262.321l-0.928-0.928l1.821-1.822
				l0.928,0.928L683.372,262.321z M687.015,258.677l-0.928-0.928l1.823-1.822l0.928,0.928L687.015,258.677z M690.659,255.032
				l-0.928-0.928l1.822-1.821l0.928,0.928L690.659,255.032z M694.304,251.389l-0.928-0.928l1.822-1.822l0.928,0.928L694.304,251.389
				z M697.948,247.745l-0.928-0.928l1.822-1.822l0.928,0.928L697.948,247.745z M701.593,244.1l-0.928-0.928l1.823-1.822l0.928,0.928
				L701.593,244.1z M705.236,240.456l-0.928-0.928l1.823-1.822l0.928,0.928L705.236,240.456z"/>
		</g>
		<g>
			
				<rect x="610.724" y="332.727" transform="matrix(0.7071 0.7071 -0.7071 0.7071 414.8067 -334.6653)" fill="#38FFA1" width="1.312" height="1.312"/>
		</g>
	</g>
</g>
<g id="XMLID_147_">
	<g id="XMLID_181_">
		<g>
			
				<rect x="610.723" y="432.085" transform="matrix(0.7071 0.7071 -0.7071 0.7071 485.0631 -305.5631)" fill="#38FFA1" width="1.312" height="1.312"/>
		</g>
		<g>
			<path fill="#38FFA1" d="M706.131,528.42l-1.823-1.822l0.928-0.928l1.822,1.823L706.131,528.42z M702.486,524.775l-1.821-1.821
				l0.928-0.928l1.821,1.821L702.486,524.775z M698.842,521.131l-1.822-1.823l0.928-0.928l1.823,1.822L698.842,521.131z
				 M695.197,517.488l-1.821-1.823l0.928-0.928l1.821,1.822L695.197,517.488z M691.554,513.843l-1.822-1.822l0.928-0.928
				l1.822,1.822L691.554,513.843z M687.909,510.199l-1.821-1.822l0.928-0.928l1.821,1.822L687.909,510.199z M684.265,506.554
				l-1.823-1.822l0.928-0.928l1.822,1.822L684.265,506.554z M680.62,502.91l-1.821-1.822l0.928-0.928l1.821,1.822L680.62,502.91z
				 M676.976,499.266l-1.822-1.821l0.928-0.928l1.823,1.821L676.976,499.266z M673.333,495.622l-1.822-1.822l0.928-0.928
				l1.822,1.822L673.333,495.622z M669.688,491.977l-1.823-1.821l0.928-0.928l1.822,1.821L669.688,491.977z M666.044,488.333
				l-1.823-1.822l0.928-0.928l1.822,1.822L666.044,488.333z M662.399,484.69l-1.822-1.822l0.928-0.928l1.823,1.822L662.399,484.69z
				 M658.755,481.045l-1.822-1.822l0.928-0.928l1.823,1.822L658.755,481.045z M655.11,477.401l-1.822-1.822l0.928-0.928l1.822,1.822
				L655.11,477.401z M651.467,473.756l-1.823-1.822l0.928-0.928l1.822,1.822L651.467,473.756z M647.822,470.112l-1.823-1.822
				l0.928-0.928l1.822,1.822L647.822,470.112z M644.178,466.467l-1.822-1.821l0.928-0.928l1.823,1.821L644.178,466.467z
				 M640.533,462.824l-1.822-1.822l0.928-0.928l1.823,1.822L640.533,462.824z M636.89,459.179l-1.822-1.821l0.928-0.928l1.822,1.821
				L636.89,459.179z M633.245,455.535l-1.823-1.822l0.928-0.928l1.822,1.822L633.245,455.535z M629.601,451.892l-1.823-1.822
				l0.928-0.928l1.822,1.822L629.601,451.892z M625.956,448.247l-1.822-1.822l0.928-0.928l1.823,1.822L625.956,448.247z
				 M622.312,444.603l-1.822-1.822l0.928-0.928l1.823,1.822L622.312,444.603z M618.667,440.958l-1.822-1.822l0.928-0.928
				l1.822,1.822L618.667,440.958z M615.024,437.314l-1.823-1.822l0.928-0.928l1.822,1.822L615.024,437.314z"/>
		</g>
		<g>
			
				<rect x="708.224" y="529.586" transform="matrix(0.7071 0.7071 -0.7071 0.7071 582.5641 -345.9493)" fill="#38FFA1" width="1.312" height="1.312"/>
		</g>
	</g>
	<g id="XMLID_172_">
		<g>
			
				<rect x="708.224" y="432.085" transform="matrix(0.7071 0.7071 -0.7071 0.7071 513.6205 -374.5067)" fill="#38FFA1" width="1.312" height="1.312"/>
		</g>
		<g>
			<path fill="#38FFA1" d="M614.13,528.419l-0.928-0.928l1.823-1.823l0.928,0.928L614.13,528.419z M617.774,524.775l-0.928-0.928
				l1.822-1.823l0.928,0.928L617.774,524.775z M621.419,521.13l-0.928-0.928l1.822-1.821l0.928,0.928L621.419,521.13z
				 M625.063,517.486l-0.928-0.928l1.822-1.822l0.928,0.928L625.063,517.486z M628.708,513.841l-0.928-0.928l1.821-1.821
				l0.928,0.928L628.708,513.841z M632.351,510.198l-0.928-0.928l1.823-1.822l0.928,0.928L632.351,510.198z M635.996,506.554
				l-0.928-0.928l1.821-1.822l0.928,0.928L635.996,506.554z M639.64,502.909l-0.928-0.928l1.822-1.822l0.928,0.928L639.64,502.909z
				 M643.285,499.266l-0.928-0.928l1.821-1.822l0.928,0.928L643.285,499.266z M646.929,495.621l-0.928-0.928l1.823-1.821
				l0.928,0.928L646.929,495.621z M650.572,491.977l-0.928-0.928l1.823-1.822l0.928,0.928L650.572,491.977z M654.217,488.332
				l-0.928-0.928l1.822-1.821l0.928,0.928L654.217,488.332z M657.861,484.688l-0.928-0.928l1.822-1.822l0.928,0.928L657.861,484.688
				z M661.506,481.045l-0.928-0.928l1.822-1.822l0.928,0.928L661.506,481.045z M665.149,477.4l-0.928-0.928l1.823-1.821l0.928,0.928
				L665.149,477.4z M668.794,473.756l-0.928-0.928l1.821-1.822l0.928,0.928L668.794,473.756z M672.438,470.111l-0.928-0.928
				l1.822-1.821l0.928,0.928L672.438,470.111z M676.083,466.467l-0.928-0.928l1.821-1.822l0.928,0.928L676.083,466.467z
				 M679.727,462.824l-0.928-0.928l1.822-1.822l0.928,0.928L679.727,462.824z M683.372,459.179l-0.928-0.928l1.821-1.822
				l0.928,0.928L683.372,459.179z M687.015,455.535l-0.928-0.928l1.823-1.822l0.928,0.928L687.015,455.535z M690.659,451.89
				l-0.928-0.928l1.822-1.821l0.928,0.928L690.659,451.89z M694.304,448.247l-0.928-0.928l1.822-1.822l0.928,0.928L694.304,448.247z
				 M697.948,444.603l-0.928-0.928l1.822-1.822l0.928,0.928L697.948,444.603z M701.593,440.958l-0.928-0.928l1.823-1.822
				l0.928,0.928L701.593,440.958z M705.236,437.314l-0.928-0.928l1.823-1.822l0.928,0.928L705.236,437.314z"/>
		</g>
		<g>
			
				<rect x="610.724" y="529.585" transform="matrix(0.7071 0.7071 -0.7071 0.7071 554.0062 -277.007)" fill="#38FFA1" width="1.312" height="1.312"/>
		</g>
	</g>
</g>
<g id="XMLID_98_">
	<g id="XMLID_146_">
		<polygon fill="#FFFFFF" points="177.828,412.592 148.299,412.592 148.299,353.535 177.828,353.535 177.828,333.849 
			99.085,333.849 99.085,353.535 128.614,353.535 128.614,412.592 99.085,412.592 99.085,432.278 177.828,432.278 		"/>
	</g>
	<g id="XMLID_141_">
		<path fill="#FFFFFF" d="M419.585,412.592h48.003l4.921,19.686h20.291l-19.686-78.743v-19.686h-59.057v19.686l-19.686,78.743
			h20.291L419.585,412.592z M434.349,353.535h18.475l9.843,39.372h-38.16L434.349,353.535z"/>
	</g>
	<g id="XMLID_140_">
		<polygon fill="#FFFFFF" points="374.686,412.592 315.629,412.592 315.629,392.906 364.843,392.906 364.843,373.22 315.629,373.22 
			315.629,353.535 374.686,353.535 374.686,333.849 295.943,333.849 295.943,432.278 374.686,432.278 		"/>
	</g>
	<g id="XMLID_100_">
		<polygon fill="#FFFFFF" points="227.042,412.592 217.2,412.592 217.2,432.278 256.571,432.278 256.571,412.592 246.728,412.592 
			246.728,353.535 276.257,353.535 276.257,333.849 197.514,333.849 197.514,353.535 227.042,353.535 		"/>
	</g>
	<g id="XMLID_99_">
		<polygon fill="#FFFFFF" points="561.889,383.063 561.513,383.063 549.209,333.849 512.486,333.849 512.486,432.278 
			532.172,432.278 532.172,353.535 533.837,353.535 546.141,402.749 577.261,402.749 589.565,353.535 591.23,353.535 
			591.23,432.278 610.915,432.278 610.915,333.849 574.193,333.849 		"/>
	</g>
</g>
</svg>
