<?xml version="1.0" encoding="utf-8"?>
<!-- Generator: Adobe Illustrator 17.0.0, SVG Export Plug-In . SVG Version: 6.00 Build 0)  -->
<!DOCTYPE svg PUBLIC "-//W3C//DTD SVG 1.1//EN" "http://www.w3.org/Graphics/SVG/1.1/DTD/svg11.dtd">
<svg version="1.1" id="Lager_1" xmlns="http://www.w3.org/2000/svg" xmlns:xlink="http://www.w3.org/1999/xlink" x="0px" y="0px"
	 width="710px" height="1003.35px" viewBox="0 0 710 1003.35" enable-background="new 0 0 710 1003.35" xml:space="preserve">
<g>
	<polygon points="-554.451,610.194 -596.134,610.194 -596.134,526.828 -554.451,526.828 -554.451,499.04 -665.606,499.04 
		-665.606,526.828 -623.923,526.828 -623.923,610.194 -665.606,610.194 -665.606,637.983 -554.451,637.983 	"/>
	<path d="M-643.931,1110.39h67.804l6.947,27.789h28.622l-27.789-111.155v-27.789h-83.366v27.789l-27.789,111.155h28.622
		L-643.931,1110.39z M-623.089,1027.024h26.121l13.894,55.577h-53.91L-623.089,1027.024z"/>
	<polygon points="-554.451,943.658 -637.817,943.658 -637.817,915.869 -568.345,915.869 -568.345,888.081 -637.817,888.081 
		-637.817,860.292 -554.451,860.292 -554.451,832.503 -665.606,832.503 -665.606,971.447 -554.451,971.447 	"/>
	<polygon points="-623.923,776.926 -637.817,776.926 -637.817,804.715 -582.24,804.715 -582.24,776.926 -596.134,776.926 
		-596.134,693.56 -554.451,693.56 -554.451,665.772 -665.606,665.772 -665.606,693.56 -623.923,693.56 	"/>
	<polygon points="-609.751,1235.439 -610.306,1235.439 -627.535,1165.967 -679.5,1165.967 -679.5,1304.911 -651.711,1304.911 
		-651.711,1193.756 -649.488,1193.756 -631.982,1263.228 -588.075,1263.228 -570.568,1193.756 -568.345,1193.756 -568.345,1304.911 
		-540.557,1304.911 -540.557,1165.967 -592.522,1165.967 	"/>
</g>
</svg>
