<?xml version="1.0" encoding="utf-8"?>
<!-- Generator: Adobe Illustrator 19.0.0, SVG Export Plug-In . SVG Version: 6.00 Build 0)  -->
<!DOCTYPE svg PUBLIC "-//W3C//DTD SVG 1.1//EN" "http://www.w3.org/Graphics/SVG/1.1/DTD/svg11.dtd">
<svg version="1.1" id="Layer_1" xmlns="http://www.w3.org/2000/svg" xmlns:xlink="http://www.w3.org/1999/xlink" x="0px" y="0px"
	 viewBox="-271 494.8 324.1 137.2" style="enable-background:new -271 494.8 324.1 137.2;" xml:space="preserve">
<style type="text/css">
	.st0{fill:#22FF9A;}
</style>
<g>
	<path class="st0" d="M-212.3,494.8h-5.9h-21.1h-5.9l-25.8,6.4v3.1v7.8v102.6v5.7v5.2l25.7,6.4h5.9h21.1h5.9l25.7-6.4v-5.2v-5.7
		V512.1v-7.8v-3.1L-212.3,494.8z M-197.1,617.4l-16.5,4.1h-4.6h-21.1h-4.7l-16.5-4.1V509.5l16.5-4.1h4.6h21.1h4.6l16.5,4.1
		L-197.1,617.4L-197.1,617.4z"/>
</g>
<g>
	<rect id="XMLID_27_" x="-253.1" y="538.8" class="st0" width="10.6" height="17.9"/>
	<rect id="XMLID_26_" x="-215.1" y="538.8" class="st0" width="10.6" height="17.9"/>
</g>
<polygon class="st0" points="-228.8,568.4 -249.9,573.6 -249.9,584.5 -228.8,579.3 -207.8,584.5 -207.8,573.6 "/>
<g id="XMLID_79_">
	<rect id="XMLID_23_" x="-24" y="540.8" class="st0" width="10.6" height="17.9"/>
	<rect id="XMLID_22_" x="14" y="540.8" class="st0" width="10.6" height="17.9"/>
</g>
<polygon class="st0" points="0.2,575.6 -20.8,570.3 -20.8,581.2 0.2,586.5 21.4,581.2 21.4,570.3 "/>
<g id="XMLID_71_">
	<path id="XMLID_73_" class="st0" d="M-52.5,521v6.3v4.2v63.3v10.6h10.6h84.5h10.6v-10.6v-63.2v-4.2v-6.3L-52.5,521L-52.5,521z
		 M42.5,594.9H-42v-63.3h84.5V594.9z"/>
	<polygon id="XMLID_17_" class="st0" points="-52.5,623.4 -52.5,626.6 -52.5,631.9 -41.9,631.9 -41.9,626.6 42.5,626.6 42.5,631.9 
		53.1,631.9 53.1,626.6 53.1,623.4 53.1,616 -52.5,616 	"/>
</g>
<polygon id="XMLID_2_" class="st0" points="-172.3,581.4 -172.3,570.8 -161.7,570.8 -87.8,570.8 -109,561.5 -109,549.7 -66.7,570.8 
	-66.7,581.4 -109,602.5 -109,590.7 -87.8,581.4 -161.7,581.4 "/>
</svg>
