<?xml version="1.0" encoding="utf-8"?>
<!-- Generator: Adobe Illustrator 18.0.0, SVG Export Plug-In . SVG Version: 6.00 Build 0)  -->
<!DOCTYPE svg PUBLIC "-//W3C//DTD SVG 1.1//EN" "http://www.w3.org/Graphics/SVG/1.1/DTD/svg11.dtd">
<svg version="1.1" id="Lager_1" xmlns="http://www.w3.org/2000/svg" xmlns:xlink="http://www.w3.org/1999/xlink" x="0px" y="0px"
	 viewBox="0 0 283.5 283.5" enable-background="new 0 0 283.5 283.5" xml:space="preserve">
<polygon fill="#E6007E" points="178.8,104.7 178.8,157.1 194.1,141.7 231.1,178.8 283.5,178.8 283.5,104.7 "/>
<polygon fill="#951B81" points="126.4,178.8 141.7,194.1 104.7,231.1 104.7,283.5 178.8,283.5 178.8,178.8 "/>
<polygon fill="#312783" points="104.7,157.1 104.7,178.8 52.4,178.8 15.3,215.8 67.7,268.1 141.7,194.1 "/>
<polygon fill="#004F9F" points="89.4,141.7 52.4,104.7 0,104.7 0,178.8 104.7,178.8 104.7,126.4 "/>
<polygon fill="#2581C4" points="104.7,104.7 104.7,52.4 67.7,15.3 15.3,67.7 89.4,141.7 126.4,104.7 "/>
<rect x="104.7" y="0" fill="#009FE3" width="74" height="104.7"/>
<polygon fill="#C7017F" points="194.1,141.7 157.1,178.8 178.8,178.8 178.8,231.1 215.8,268.1 268.1,215.8 "/>
</svg>
